<svg width="95" height="95" viewBox="0 0 95 95" fill="none" xmlns="http://www.w3.org/2000/svg">
<path d="M78.1495 77.875C77.8608 78.375 77.1392 78.375 76.8505 77.875C76.5618 77.375 76.9226 76.75 77.5 76.75C78.0773 76.75 78.4382 77.375 78.1495 77.875Z" stroke="#42A5F5"/>
<path d="M63.1495 77.875C62.8608 78.375 62.1392 78.375 61.8505 77.875C61.5618 77.375 61.9226 76.75 62.5 76.75C63.0773 76.75 63.4382 77.375 63.1495 77.875Z" stroke="#42A5F5"/>
<path d="M48.1495 77.875C47.8608 78.375 47.1392 78.375 46.8505 77.875C46.5618 77.375 46.9226 76.75 47.5 76.75C48.0773 76.75 48.4382 77.375 48.1495 77.875Z" stroke="#42A5F5"/>
<path d="M33.1495 77.875C32.8608 78.375 32.1392 78.375 31.8505 77.875C31.5618 77.375 31.9226 76.75 32.5 76.75C33.0773 76.75 33.4382 77.375 33.1495 77.875Z" stroke="#42A5F5"/>
<path d="M18.1495 77.875C17.8608 78.375 17.1392 78.375 16.8505 77.875C16.5618 77.375 16.9226 76.75 17.5 76.75C18.0773 76.75 18.4382 77.375 18.1495 77.875Z" stroke="#42A5F5"/>
<path d="M3.14952 77.875C2.86084 78.375 2.13916 78.375 1.85048 77.875C1.56181 77.375 1.92265 76.75 2.5 76.75C3.07735 76.75 3.43819 77.375 3.14952 77.875Z" stroke="#42A5F5"/>
<path d="M93.1495 77.875C92.8608 78.375 92.1392 78.375 91.8505 77.875C91.5618 77.375 91.9226 76.75 92.5 76.75C93.0773 76.75 93.4382 77.375 93.1495 77.875Z" stroke="#42A5F5"/>
<path d="M93.1495 62.875C92.8608 63.375 92.1392 63.375 91.8505 62.875C91.5618 62.375 91.9226 61.75 92.5 61.75C93.0773 61.75 93.4382 62.375 93.1495 62.875Z" stroke="#42A5F5"/>
<path d="M93.1495 47.875C92.8608 48.375 92.1392 48.375 91.8505 47.875C91.5618 47.375 91.9226 46.75 92.5 46.75C93.0773 46.75 93.4382 47.375 93.1495 47.875Z" stroke="#42A5F5"/>
<path d="M93.1495 32.875C92.8608 33.375 92.1392 33.375 91.8505 32.875C91.5618 32.375 91.9226 31.75 92.5 31.75C93.0773 31.75 93.4382 32.375 93.1495 32.875Z" stroke="#42A5F5"/>
<path d="M93.1495 17.875C92.8608 18.375 92.1392 18.375 91.8505 17.875C91.5618 17.375 91.9226 16.75 92.5 16.75C93.0773 16.75 93.4382 17.375 93.1495 17.875Z" stroke="#42A5F5"/>
<path d="M93.1495 2.875C92.8608 3.375 92.1392 3.375 91.8505 2.875C91.5618 2.375 91.9226 1.75 92.5 1.75C93.0773 1.75 93.4382 2.375 93.1495 2.875Z" stroke="#42A5F5"/>
<path d="M78.1495 62.875C77.8608 63.375 77.1392 63.375 76.8505 62.875C76.5618 62.375 76.9226 61.75 77.5 61.75C78.0773 61.75 78.4382 62.375 78.1495 62.875Z" stroke="#42A5F5"/>
<path d="M78.1495 47.875C77.8608 48.375 77.1392 48.375 76.8505 47.875C76.5618 47.375 76.9226 46.75 77.5 46.75C78.0773 46.75 78.4382 47.375 78.1495 47.875Z" stroke="#42A5F5"/>
<path d="M78.1495 32.875C77.8608 33.375 77.1392 33.375 76.8505 32.875C76.5618 32.375 76.9226 31.75 77.5 31.75C78.0773 31.75 78.4382 32.375 78.1495 32.875Z" stroke="#42A5F5"/>
<path d="M78.1495 17.875C77.8608 18.375 77.1392 18.375 76.8505 17.875C76.5618 17.375 76.9226 16.75 77.5 16.75C78.0773 16.75 78.4382 17.375 78.1495 17.875Z" stroke="#42A5F5"/>
<path d="M78.1495 2.875C77.8608 3.375 77.1392 3.375 76.8505 2.875C76.5618 2.375 76.9226 1.75 77.5 1.75C78.0773 1.75 78.4382 2.375 78.1495 2.875Z" stroke="#42A5F5"/>
<path d="M63.1495 62.875C62.8608 63.375 62.1392 63.375 61.8505 62.875C61.5618 62.375 61.9226 61.75 62.5 61.75C63.0773 61.75 63.4382 62.375 63.1495 62.875Z" stroke="#42A5F5"/>
<path d="M48.1495 62.875C47.8608 63.375 47.1392 63.375 46.8505 62.875C46.5618 62.375 46.9226 61.75 47.5 61.75C48.0773 61.75 48.4382 62.375 48.1495 62.875Z" stroke="#42A5F5"/>
<path d="M33.1495 62.875C32.8608 63.375 32.1392 63.375 31.8505 62.875C31.5618 62.375 31.9226 61.75 32.5 61.75C33.0773 61.75 33.4382 62.375 33.1495 62.875Z" stroke="#42A5F5"/>
<path d="M33.1495 47.875C32.8608 48.375 32.1392 48.375 31.8505 47.875C31.5618 47.375 31.9226 46.75 32.5 46.75C33.0773 46.75 33.4382 47.375 33.1495 47.875Z" stroke="#42A5F5"/>
<path d="M33.1495 32.875C32.8608 33.375 32.1392 33.375 31.8505 32.875C31.5618 32.375 31.9226 31.75 32.5 31.75C33.0773 31.75 33.4382 32.375 33.1495 32.875Z" stroke="#42A5F5"/>
<path d="M48.1495 48.875C47.8608 49.375 47.1392 49.375 46.8505 48.875C46.5618 48.375 46.9226 47.75 47.5 47.75C48.0773 47.75 48.4382 48.375 48.1495 48.875Z" stroke="#42A5F5"/>
<path d="M48.1495 32.875C47.8608 33.375 47.1392 33.375 46.8505 32.875C46.5618 32.375 46.9226 31.75 47.5 31.75C48.0773 31.75 48.4382 32.375 48.1495 32.875Z" stroke="#42A5F5"/>
<path d="M63.1495 47.875C62.8608 48.375 62.1392 48.375 61.8505 47.875C61.5618 47.375 61.9226 46.75 62.5 46.75C63.0773 46.75 63.4382 47.375 63.1495 47.875Z" stroke="#42A5F5"/>
<path d="M63.1495 32.875C62.8608 33.375 62.1392 33.375 61.8505 32.875C61.5618 32.375 61.9226 31.75 62.5 31.75C63.0773 31.75 63.4382 32.375 63.1495 32.875Z" stroke="#42A5F5"/>
<path d="M93.1495 92.875C92.8608 93.375 92.1392 93.375 91.8505 92.875C91.5618 92.375 91.9226 91.75 92.5 91.75C93.0773 91.75 93.4382 92.375 93.1495 92.875Z" stroke="#42A5F5"/>
<path d="M78.1495 92.875C77.8608 93.375 77.1392 93.375 76.8505 92.875C76.5618 92.375 76.9226 91.75 77.5 91.75C78.0773 91.75 78.4382 92.375 78.1495 92.875Z" stroke="#42A5F5"/>
<path d="M63.1495 92.875C62.8608 93.375 62.1392 93.375 61.8505 92.875C61.5618 92.375 61.9226 91.75 62.5 91.75C63.0773 91.75 63.4382 92.375 63.1495 92.875Z" stroke="#42A5F5"/>
<path d="M48.1495 92.875C47.8608 93.375 47.1392 93.375 46.8505 92.875C46.5618 92.375 46.9226 91.75 47.5 91.75C48.0773 91.75 48.4382 92.375 48.1495 92.875Z" stroke="#42A5F5"/>
<path d="M33.1495 92.875C32.8608 93.375 32.1392 93.375 31.8505 92.875C31.5618 92.375 31.9226 91.75 32.5 91.75C33.0773 91.75 33.4382 92.375 33.1495 92.875Z" stroke="#42A5F5"/>
<path d="M18.1495 92.875C17.8608 93.375 17.1392 93.375 16.8505 92.875C16.5618 92.375 16.9226 91.75 17.5 91.75C18.0773 91.75 18.4382 92.375 18.1495 92.875Z" stroke="#42A5F5"/>
<path d="M3.14952 92.875C2.86084 93.375 2.13916 93.375 1.85048 92.875C1.56181 92.375 1.92265 91.75 2.5 91.75C3.07735 91.75 3.43819 92.375 3.14952 92.875Z" stroke="#42A5F5"/>
</svg>
