<svg width="302" height="304" viewBox="0 0 302 304" fill="none" xmlns="http://www.w3.org/2000/svg">
<path d="M285.15 286.875C284.861 287.375 284.139 287.375 283.85 286.875C283.562 286.375 283.923 285.75 284.5 285.75C285.077 285.75 285.438 286.375 285.15 286.875Z" stroke="#0D79D0"/>
<path d="M181.15 286.875C180.861 287.375 180.139 287.375 179.85 286.875C179.562 286.375 179.923 285.75 180.5 285.75C181.077 285.75 181.438 286.375 181.15 286.875Z" stroke="#0D79D0"/>
<path d="M285.15 183.875C284.861 184.375 284.139 184.375 283.85 183.875C283.562 183.375 283.923 182.75 284.5 182.75C285.077 182.75 285.438 183.375 285.15 183.875Z" stroke="#0D79D0"/>
<path d="M181.15 181.875C180.861 182.375 180.139 182.375 179.85 181.875C179.562 181.375 179.923 180.75 180.5 180.75C181.077 180.75 181.438 181.375 181.15 181.875Z" stroke="#0D79D0"/>
<path d="M285.15 77.875C284.861 78.375 284.139 78.375 283.85 77.875C283.562 77.375 283.923 76.75 284.5 76.75C285.077 76.75 285.438 77.375 285.15 77.875Z" stroke="#0D79D0"/>
<path d="M78.1495 286.875C77.8608 287.375 77.1392 287.375 76.8505 286.875C76.5618 286.375 76.9227 285.75 77.5 285.75C78.0774 285.75 78.4382 286.375 78.1495 286.875Z" stroke="#0D79D0"/>
<path d="M270.15 286.875C269.861 287.375 269.139 287.375 268.85 286.875C268.562 286.375 268.923 285.75 269.5 285.75C270.077 285.75 270.438 286.375 270.15 286.875Z" stroke="#0D79D0"/>
<path d="M166.15 286.875C165.861 287.375 165.139 287.375 164.85 286.875C164.562 286.375 164.923 285.75 165.5 285.75C166.077 285.75 166.438 286.375 166.15 286.875Z" stroke="#0D79D0"/>
<path d="M270.15 183.875C269.861 184.375 269.139 184.375 268.85 183.875C268.562 183.375 268.923 182.75 269.5 182.75C270.077 182.75 270.438 183.375 270.15 183.875Z" stroke="#0D79D0"/>
<path d="M166.15 181.875C165.861 182.375 165.139 182.375 164.85 181.875C164.562 181.375 164.923 180.75 165.5 180.75C166.077 180.75 166.438 181.375 166.15 181.875Z" stroke="#0D79D0"/>
<path d="M270.15 77.875C269.861 78.375 269.139 78.375 268.85 77.875C268.562 77.375 268.923 76.75 269.5 76.75C270.077 76.75 270.438 77.375 270.15 77.875Z" stroke="#0D79D0"/>
<path d="M63.1495 286.875C62.8608 287.375 62.1392 287.375 61.8505 286.875C61.5618 286.375 61.9227 285.75 62.5 285.75C63.0774 285.75 63.4382 286.375 63.1495 286.875Z" stroke="#0D79D0"/>
<path d="M255.15 286.875C254.861 287.375 254.139 287.375 253.85 286.875C253.562 286.375 253.923 285.75 254.5 285.75C255.077 285.75 255.438 286.375 255.15 286.875Z" stroke="#0D79D0"/>
<path d="M151.15 286.875C150.861 287.375 150.139 287.375 149.85 286.875C149.562 286.375 149.923 285.75 150.5 285.75C151.077 285.75 151.438 286.375 151.15 286.875Z" stroke="#0D79D0"/>
<path d="M255.15 183.875C254.861 184.375 254.139 184.375 253.85 183.875C253.562 183.375 253.923 182.75 254.5 182.75C255.077 182.75 255.438 183.375 255.15 183.875Z" stroke="#0D79D0"/>
<path d="M151.15 181.875C150.861 182.375 150.139 182.375 149.85 181.875C149.562 181.375 149.923 180.75 150.5 180.75C151.077 180.75 151.438 181.375 151.15 181.875Z" stroke="#0D79D0"/>
<path d="M255.15 77.875C254.861 78.375 254.139 78.375 253.85 77.875C253.562 77.375 253.923 76.75 254.5 76.75C255.077 76.75 255.438 77.375 255.15 77.875Z" stroke="#0D79D0"/>
<path d="M48.1495 286.875C47.8608 287.375 47.1392 287.375 46.8505 286.875C46.5618 286.375 46.9227 285.75 47.5 285.75C48.0774 285.75 48.4382 286.375 48.1495 286.875Z" stroke="#0D79D0"/>
<path d="M240.15 286.875C239.861 287.375 239.139 287.375 238.85 286.875C238.562 286.375 238.923 285.75 239.5 285.75C240.077 285.75 240.438 286.375 240.15 286.875Z" stroke="#0D79D0"/>
<path d="M136.15 286.875C135.861 287.375 135.139 287.375 134.85 286.875C134.562 286.375 134.923 285.75 135.5 285.75C136.077 285.75 136.438 286.375 136.15 286.875Z" stroke="#0D79D0"/>
<path d="M240.15 183.875C239.861 184.375 239.139 184.375 238.85 183.875C238.562 183.375 238.923 182.75 239.5 182.75C240.077 182.75 240.438 183.375 240.15 183.875Z" stroke="#0D79D0"/>
<path d="M136.15 181.875C135.861 182.375 135.139 182.375 134.85 181.875C134.562 181.375 134.923 180.75 135.5 180.75C136.077 180.75 136.438 181.375 136.15 181.875Z" stroke="#0D79D0"/>
<path d="M240.15 77.875C239.861 78.375 239.139 78.375 238.85 77.875C238.562 77.375 238.923 76.75 239.5 76.75C240.077 76.75 240.438 77.375 240.15 77.875Z" stroke="#0D79D0"/>
<path d="M33.1495 286.875C32.8608 287.375 32.1392 287.375 31.8505 286.875C31.5618 286.375 31.9227 285.75 32.5 285.75C33.0774 285.75 33.4382 286.375 33.1495 286.875Z" stroke="#0D79D0"/>
<path d="M225.15 286.875C224.861 287.375 224.139 287.375 223.85 286.875C223.562 286.375 223.923 285.75 224.5 285.75C225.077 285.75 225.438 286.375 225.15 286.875Z" stroke="#0D79D0"/>
<path d="M121.15 286.875C120.861 287.375 120.139 287.375 119.85 286.875C119.562 286.375 119.923 285.75 120.5 285.75C121.077 285.75 121.438 286.375 121.15 286.875Z" stroke="#0D79D0"/>
<path d="M225.15 183.875C224.861 184.375 224.139 184.375 223.85 183.875C223.562 183.375 223.923 182.75 224.5 182.75C225.077 182.75 225.438 183.375 225.15 183.875Z" stroke="#0D79D0"/>
<path d="M121.15 181.875C120.861 182.375 120.139 182.375 119.85 181.875C119.562 181.375 119.923 180.75 120.5 180.75C121.077 180.75 121.438 181.375 121.15 181.875Z" stroke="#0D79D0"/>
<path d="M225.15 77.875C224.861 78.375 224.139 78.375 223.85 77.875C223.562 77.375 223.923 76.75 224.5 76.75C225.077 76.75 225.438 77.375 225.15 77.875Z" stroke="#0D79D0"/>
<path d="M18.1495 286.875C17.8608 287.375 17.1392 287.375 16.8505 286.875C16.5618 286.375 16.9227 285.75 17.5 285.75C18.0774 285.75 18.4382 286.375 18.1495 286.875Z" stroke="#0D79D0"/>
<path d="M210.15 286.875C209.861 287.375 209.139 287.375 208.85 286.875C208.562 286.375 208.923 285.75 209.5 285.75C210.077 285.75 210.438 286.375 210.15 286.875Z" stroke="#0D79D0"/>
<path d="M106.15 286.875C105.861 287.375 105.139 287.375 104.85 286.875C104.562 286.375 104.923 285.75 105.5 285.75C106.077 285.75 106.438 286.375 106.15 286.875Z" stroke="#0D79D0"/>
<path d="M210.15 183.875C209.861 184.375 209.139 184.375 208.85 183.875C208.562 183.375 208.923 182.75 209.5 182.75C210.077 182.75 210.438 183.375 210.15 183.875Z" stroke="#0D79D0"/>
<path d="M106.15 181.875C105.861 182.375 105.139 182.375 104.85 181.875C104.562 181.375 104.923 180.75 105.5 180.75C106.077 180.75 106.438 181.375 106.15 181.875Z" stroke="#0D79D0"/>
<path d="M210.15 77.875C209.861 78.375 209.139 78.375 208.85 77.875C208.562 77.375 208.923 76.75 209.5 76.75C210.077 76.75 210.438 77.375 210.15 77.875Z" stroke="#0D79D0"/>
<path d="M3.14952 286.875C2.86084 287.375 2.13916 287.375 1.85048 286.875C1.56181 286.375 1.92265 285.75 2.5 285.75C3.07735 285.75 3.43819 286.375 3.14952 286.875Z" stroke="#0D79D0"/>
<path d="M300.15 286.875C299.861 287.375 299.139 287.375 298.85 286.875C298.562 286.375 298.923 285.75 299.5 285.75C300.077 285.75 300.438 286.375 300.15 286.875Z" stroke="#0D79D0"/>
<path d="M196.15 286.875C195.861 287.375 195.139 287.375 194.85 286.875C194.562 286.375 194.923 285.75 195.5 285.75C196.077 285.75 196.438 286.375 196.15 286.875Z" stroke="#0D79D0"/>
<path d="M300.15 183.875C299.861 184.375 299.139 184.375 298.85 183.875C298.562 183.375 298.923 182.75 299.5 182.75C300.077 182.75 300.438 183.375 300.15 183.875Z" stroke="#0D79D0"/>
<path d="M196.15 181.875C195.861 182.375 195.139 182.375 194.85 181.875C194.562 181.375 194.923 180.75 195.5 180.75C196.077 180.75 196.438 181.375 196.15 181.875Z" stroke="#0D79D0"/>
<path d="M300.15 77.875C299.861 78.375 299.139 78.375 298.85 77.875C298.562 77.375 298.923 76.75 299.5 76.75C300.077 76.75 300.438 77.375 300.15 77.875Z" stroke="#0D79D0"/>
<path d="M93.1495 286.875C92.8608 287.375 92.1392 287.375 91.8505 286.875C91.5618 286.375 91.9227 285.75 92.5 285.75C93.0774 285.75 93.4382 286.375 93.1495 286.875Z" stroke="#0D79D0"/>
<path d="M300.15 271.875C299.861 272.375 299.139 272.375 298.85 271.875C298.562 271.375 298.923 270.75 299.5 270.75C300.077 270.75 300.438 271.375 300.15 271.875Z" stroke="#0D79D0"/>
<path d="M196.15 271.875C195.861 272.375 195.139 272.375 194.85 271.875C194.562 271.375 194.923 270.75 195.5 270.75C196.077 270.75 196.438 271.375 196.15 271.875Z" stroke="#0D79D0"/>
<path d="M300.15 168.875C299.861 169.375 299.139 169.375 298.85 168.875C298.562 168.375 298.923 167.75 299.5 167.75C300.077 167.75 300.438 168.375 300.15 168.875Z" stroke="#0D79D0"/>
<path d="M196.15 166.875C195.861 167.375 195.139 167.375 194.85 166.875C194.562 166.375 194.923 165.75 195.5 165.75C196.077 165.75 196.438 166.375 196.15 166.875Z" stroke="#0D79D0"/>
<path d="M300.15 62.875C299.861 63.375 299.139 63.375 298.85 62.875C298.562 62.375 298.923 61.75 299.5 61.75C300.077 61.75 300.438 62.375 300.15 62.875Z" stroke="#0D79D0"/>
<path d="M93.1495 271.875C92.8608 272.375 92.1392 272.375 91.8505 271.875C91.5618 271.375 91.9227 270.75 92.5 270.75C93.0774 270.75 93.4382 271.375 93.1495 271.875Z" stroke="#0D79D0"/>
<path d="M300.15 256.875C299.861 257.375 299.139 257.375 298.85 256.875C298.562 256.375 298.923 255.75 299.5 255.75C300.077 255.75 300.438 256.375 300.15 256.875Z" stroke="#0D79D0"/>
<path d="M196.15 256.875C195.861 257.375 195.139 257.375 194.85 256.875C194.562 256.375 194.923 255.75 195.5 255.75C196.077 255.75 196.438 256.375 196.15 256.875Z" stroke="#0D79D0"/>
<path d="M300.15 153.875C299.861 154.375 299.139 154.375 298.85 153.875C298.562 153.375 298.923 152.75 299.5 152.75C300.077 152.75 300.438 153.375 300.15 153.875Z" stroke="#0D79D0"/>
<path d="M196.15 151.875C195.861 152.375 195.139 152.375 194.85 151.875C194.562 151.375 194.923 150.75 195.5 150.75C196.077 150.75 196.438 151.375 196.15 151.875Z" stroke="#0D79D0"/>
<path d="M300.15 47.875C299.861 48.375 299.139 48.375 298.85 47.875C298.562 47.375 298.923 46.75 299.5 46.75C300.077 46.75 300.438 47.375 300.15 47.875Z" stroke="#0D79D0"/>
<path d="M93.1495 256.875C92.8608 257.375 92.1392 257.375 91.8505 256.875C91.5618 256.375 91.9227 255.75 92.5 255.75C93.0774 255.75 93.4382 256.375 93.1495 256.875Z" stroke="#0D79D0"/>
<path d="M300.15 241.875C299.861 242.375 299.139 242.375 298.85 241.875C298.562 241.375 298.923 240.75 299.5 240.75C300.077 240.75 300.438 241.375 300.15 241.875Z" stroke="#0D79D0"/>
<path d="M196.15 241.875C195.861 242.375 195.139 242.375 194.85 241.875C194.562 241.375 194.923 240.75 195.5 240.75C196.077 240.75 196.438 241.375 196.15 241.875Z" stroke="#0D79D0"/>
<path d="M300.15 138.875C299.861 139.375 299.139 139.375 298.85 138.875C298.562 138.375 298.923 137.75 299.5 137.75C300.077 137.75 300.438 138.375 300.15 138.875Z" stroke="#0D79D0"/>
<path d="M196.15 136.875C195.861 137.375 195.139 137.375 194.85 136.875C194.562 136.375 194.923 135.75 195.5 135.75C196.077 135.75 196.438 136.375 196.15 136.875Z" stroke="#0D79D0"/>
<path d="M300.15 32.875C299.861 33.375 299.139 33.375 298.85 32.875C298.562 32.375 298.923 31.75 299.5 31.75C300.077 31.75 300.438 32.375 300.15 32.875Z" stroke="#0D79D0"/>
<path d="M93.1495 241.875C92.8608 242.375 92.1392 242.375 91.8505 241.875C91.5618 241.375 91.9227 240.75 92.5 240.75C93.0774 240.75 93.4382 241.375 93.1495 241.875Z" stroke="#0D79D0"/>
<path d="M300.15 226.875C299.861 227.375 299.139 227.375 298.85 226.875C298.562 226.375 298.923 225.75 299.5 225.75C300.077 225.75 300.438 226.375 300.15 226.875Z" stroke="#0D79D0"/>
<path d="M196.15 226.875C195.861 227.375 195.139 227.375 194.85 226.875C194.562 226.375 194.923 225.75 195.5 225.75C196.077 225.75 196.438 226.375 196.15 226.875Z" stroke="#0D79D0"/>
<path d="M300.15 123.875C299.861 124.375 299.139 124.375 298.85 123.875C298.562 123.375 298.923 122.75 299.5 122.75C300.077 122.75 300.438 123.375 300.15 123.875Z" stroke="#0D79D0"/>
<path d="M196.15 121.875C195.861 122.375 195.139 122.375 194.85 121.875C194.562 121.375 194.923 120.75 195.5 120.75C196.077 120.75 196.438 121.375 196.15 121.875Z" stroke="#0D79D0"/>
<path d="M300.15 17.875C299.861 18.375 299.139 18.375 298.85 17.875C298.562 17.375 298.923 16.75 299.5 16.75C300.077 16.75 300.438 17.375 300.15 17.875Z" stroke="#0D79D0"/>
<path d="M93.1495 226.875C92.8608 227.375 92.1392 227.375 91.8505 226.875C91.5618 226.375 91.9227 225.75 92.5 225.75C93.0774 225.75 93.4382 226.375 93.1495 226.875Z" stroke="#0D79D0"/>
<path d="M300.15 211.875C299.861 212.375 299.139 212.375 298.85 211.875C298.562 211.375 298.923 210.75 299.5 210.75C300.077 210.75 300.438 211.375 300.15 211.875Z" stroke="#0D79D0"/>
<path d="M196.15 211.875C195.861 212.375 195.139 212.375 194.85 211.875C194.562 211.375 194.923 210.75 195.5 210.75C196.077 210.75 196.438 211.375 196.15 211.875Z" stroke="#0D79D0"/>
<path d="M300.15 108.875C299.861 109.375 299.139 109.375 298.85 108.875C298.562 108.375 298.923 107.75 299.5 107.75C300.077 107.75 300.438 108.375 300.15 108.875Z" stroke="#0D79D0"/>
<path d="M196.15 106.875C195.861 107.375 195.139 107.375 194.85 106.875C194.562 106.375 194.923 105.75 195.5 105.75C196.077 105.75 196.438 106.375 196.15 106.875Z" stroke="#0D79D0"/>
<path d="M196.15 92.875C195.861 93.375 195.139 93.375 194.85 92.875C194.562 92.375 194.923 91.75 195.5 91.75C196.077 91.75 196.438 92.375 196.15 92.875Z" stroke="#0D79D0"/>
<path d="M196.15 78.875C195.861 79.375 195.139 79.375 194.85 78.875C194.562 78.375 194.923 77.75 195.5 77.75C196.077 77.75 196.438 78.375 196.15 78.875Z" stroke="#0D79D0"/>
<path d="M196.15 64.875C195.861 65.375 195.139 65.375 194.85 64.875C194.562 64.375 194.923 63.75 195.5 63.75C196.077 63.75 196.438 64.375 196.15 64.875Z" stroke="#0D79D0"/>
<path d="M196.15 50.875C195.861 51.375 195.139 51.375 194.85 50.875C194.562 50.375 194.923 49.75 195.5 49.75C196.077 49.75 196.438 50.375 196.15 50.875Z" stroke="#0D79D0"/>
<path d="M300.15 2.875C299.861 3.375 299.139 3.375 298.85 2.875C298.562 2.375 298.923 1.75 299.5 1.75C300.077 1.75 300.438 2.375 300.15 2.875Z" stroke="#0D79D0"/>
<path d="M93.1495 211.875C92.8608 212.375 92.1392 212.375 91.8505 211.875C91.5618 211.375 91.9227 210.75 92.5 210.75C93.0774 210.75 93.4382 211.375 93.1495 211.875Z" stroke="#0D79D0"/>
<path d="M93.1495 196.875C92.8608 197.375 92.1392 197.375 91.8505 196.875C91.5618 196.375 91.9227 195.75 92.5 195.75C93.0774 195.75 93.4382 196.375 93.1495 196.875Z" stroke="#0D79D0"/>
<path d="M93.1495 181.875C92.8608 182.375 92.1392 182.375 91.8505 181.875C91.5618 181.375 91.9227 180.75 92.5 180.75C93.0774 180.75 93.4382 181.375 93.1495 181.875Z" stroke="#0D79D0"/>
<path d="M93.1495 166.875C92.8608 167.375 92.1392 167.375 91.8505 166.875C91.5618 166.375 91.9227 165.75 92.5 165.75C93.0774 165.75 93.4382 166.375 93.1495 166.875Z" stroke="#0D79D0"/>
<path d="M93.1495 151.875C92.8608 152.375 92.1392 152.375 91.8505 151.875C91.5618 151.375 91.9227 150.75 92.5 150.75C93.0774 150.75 93.4382 151.375 93.1495 151.875Z" stroke="#0D79D0"/>
<path d="M270.15 211.875C269.861 212.375 269.139 212.375 268.85 211.875C268.562 211.375 268.923 210.75 269.5 210.75C270.077 210.75 270.438 211.375 270.15 211.875Z" stroke="#0D79D0"/>
<path d="M166.15 211.875C165.861 212.375 165.139 212.375 164.85 211.875C164.562 211.375 164.923 210.75 165.5 210.75C166.077 210.75 166.438 211.375 166.15 211.875Z" stroke="#0D79D0"/>
<path d="M270.15 108.875C269.861 109.375 269.139 109.375 268.85 108.875C268.562 108.375 268.923 107.75 269.5 107.75C270.077 107.75 270.438 108.375 270.15 108.875Z" stroke="#0D79D0"/>
<path d="M166.15 106.875C165.861 107.375 165.139 107.375 164.85 106.875C164.562 106.375 164.923 105.75 165.5 105.75C166.077 105.75 166.438 106.375 166.15 106.875Z" stroke="#0D79D0"/>
<path d="M166.15 92.875C165.861 93.375 165.139 93.375 164.85 92.875C164.562 92.375 164.923 91.75 165.5 91.75C166.077 91.75 166.438 92.375 166.15 92.875Z" stroke="#0D79D0"/>
<path d="M166.15 78.875C165.861 79.375 165.139 79.375 164.85 78.875C164.562 78.375 164.923 77.75 165.5 77.75C166.077 77.75 166.438 78.375 166.15 78.875Z" stroke="#0D79D0"/>
<path d="M166.15 64.875C165.861 65.375 165.139 65.375 164.85 64.875C164.562 64.375 164.923 63.75 165.5 63.75C166.077 63.75 166.438 64.375 166.15 64.875Z" stroke="#0D79D0"/>
<path d="M166.15 50.875C165.861 51.375 165.139 51.375 164.85 50.875C164.562 50.375 164.923 49.75 165.5 49.75C166.077 49.75 166.438 50.375 166.15 50.875Z" stroke="#0D79D0"/>
<path d="M270.15 2.875C269.861 3.375 269.139 3.375 268.85 2.875C268.562 2.375 268.923 1.75 269.5 1.75C270.077 1.75 270.438 2.375 270.15 2.875Z" stroke="#0D79D0"/>
<path d="M63.1495 211.875C62.8608 212.375 62.1392 212.375 61.8505 211.875C61.5618 211.375 61.9227 210.75 62.5 210.75C63.0774 210.75 63.4382 211.375 63.1495 211.875Z" stroke="#0D79D0"/>
<path d="M63.1495 196.875C62.8608 197.375 62.1392 197.375 61.8505 196.875C61.5618 196.375 61.9227 195.75 62.5 195.75C63.0774 195.75 63.4382 196.375 63.1495 196.875Z" stroke="#0D79D0"/>
<path d="M63.1495 181.875C62.8608 182.375 62.1392 182.375 61.8505 181.875C61.5618 181.375 61.9227 180.75 62.5 180.75C63.0774 180.75 63.4382 181.375 63.1495 181.875Z" stroke="#0D79D0"/>
<path d="M63.1495 166.875C62.8608 167.375 62.1392 167.375 61.8505 166.875C61.5618 166.375 61.9227 165.75 62.5 165.75C63.0774 165.75 63.4382 166.375 63.1495 166.875Z" stroke="#0D79D0"/>
<path d="M63.1495 151.875C62.8608 152.375 62.1392 152.375 61.8505 151.875C61.5618 151.375 61.9227 150.75 62.5 150.75C63.0774 150.75 63.4382 151.375 63.1495 151.875Z" stroke="#0D79D0"/>
<path d="M270.15 226.875C269.861 227.375 269.139 227.375 268.85 226.875C268.562 226.375 268.923 225.75 269.5 225.75C270.077 225.75 270.438 226.375 270.15 226.875Z" stroke="#0D79D0"/>
<path d="M166.15 226.875C165.861 227.375 165.139 227.375 164.85 226.875C164.562 226.375 164.923 225.75 165.5 225.75C166.077 225.75 166.438 226.375 166.15 226.875Z" stroke="#0D79D0"/>
<path d="M270.15 123.875C269.861 124.375 269.139 124.375 268.85 123.875C268.562 123.375 268.923 122.75 269.5 122.75C270.077 122.75 270.438 123.375 270.15 123.875Z" stroke="#0D79D0"/>
<path d="M166.15 121.875C165.861 122.375 165.139 122.375 164.85 121.875C164.562 121.375 164.923 120.75 165.5 120.75C166.077 120.75 166.438 121.375 166.15 121.875Z" stroke="#0D79D0"/>
<path d="M270.15 17.875C269.861 18.375 269.139 18.375 268.85 17.875C268.562 17.375 268.923 16.75 269.5 16.75C270.077 16.75 270.438 17.375 270.15 17.875Z" stroke="#0D79D0"/>
<path d="M63.1495 226.875C62.8608 227.375 62.1392 227.375 61.8505 226.875C61.5618 226.375 61.9227 225.75 62.5 225.75C63.0774 225.75 63.4382 226.375 63.1495 226.875Z" stroke="#0D79D0"/>
<path d="M285.15 271.875C284.861 272.375 284.139 272.375 283.85 271.875C283.562 271.375 283.923 270.75 284.5 270.75C285.077 270.75 285.438 271.375 285.15 271.875Z" stroke="#0D79D0"/>
<path d="M181.15 271.875C180.861 272.375 180.139 272.375 179.85 271.875C179.562 271.375 179.923 270.75 180.5 270.75C181.077 270.75 181.438 271.375 181.15 271.875Z" stroke="#0D79D0"/>
<path d="M285.15 168.875C284.861 169.375 284.139 169.375 283.85 168.875C283.562 168.375 283.923 167.75 284.5 167.75C285.077 167.75 285.438 168.375 285.15 168.875Z" stroke="#0D79D0"/>
<path d="M181.15 166.875C180.861 167.375 180.139 167.375 179.85 166.875C179.562 166.375 179.923 165.75 180.5 165.75C181.077 165.75 181.438 166.375 181.15 166.875Z" stroke="#0D79D0"/>
<path d="M285.15 62.875C284.861 63.375 284.139 63.375 283.85 62.875C283.562 62.375 283.923 61.75 284.5 61.75C285.077 61.75 285.438 62.375 285.15 62.875Z" stroke="#0D79D0"/>
<path d="M78.1495 271.875C77.8608 272.375 77.1392 272.375 76.8505 271.875C76.5618 271.375 76.9227 270.75 77.5 270.75C78.0774 270.75 78.4382 271.375 78.1495 271.875Z" stroke="#0D79D0"/>
<path d="M285.15 256.875C284.861 257.375 284.139 257.375 283.85 256.875C283.562 256.375 283.923 255.75 284.5 255.75C285.077 255.75 285.438 256.375 285.15 256.875Z" stroke="#0D79D0"/>
<path d="M181.15 256.875C180.861 257.375 180.139 257.375 179.85 256.875C179.562 256.375 179.923 255.75 180.5 255.75C181.077 255.75 181.438 256.375 181.15 256.875Z" stroke="#0D79D0"/>
<path d="M285.15 153.875C284.861 154.375 284.139 154.375 283.85 153.875C283.562 153.375 283.923 152.75 284.5 152.75C285.077 152.75 285.438 153.375 285.15 153.875Z" stroke="#0D79D0"/>
<path d="M181.15 151.875C180.861 152.375 180.139 152.375 179.85 151.875C179.562 151.375 179.923 150.75 180.5 150.75C181.077 150.75 181.438 151.375 181.15 151.875Z" stroke="#0D79D0"/>
<path d="M285.15 47.875C284.861 48.375 284.139 48.375 283.85 47.875C283.562 47.375 283.923 46.75 284.5 46.75C285.077 46.75 285.438 47.375 285.15 47.875Z" stroke="#0D79D0"/>
<path d="M78.1495 256.875C77.8608 257.375 77.1392 257.375 76.8505 256.875C76.5618 256.375 76.9227 255.75 77.5 255.75C78.0774 255.75 78.4382 256.375 78.1495 256.875Z" stroke="#0D79D0"/>
<path d="M285.15 241.875C284.861 242.375 284.139 242.375 283.85 241.875C283.562 241.375 283.923 240.75 284.5 240.75C285.077 240.75 285.438 241.375 285.15 241.875Z" stroke="#0D79D0"/>
<path d="M181.15 241.875C180.861 242.375 180.139 242.375 179.85 241.875C179.562 241.375 179.923 240.75 180.5 240.75C181.077 240.75 181.438 241.375 181.15 241.875Z" stroke="#0D79D0"/>
<path d="M285.15 138.875C284.861 139.375 284.139 139.375 283.85 138.875C283.562 138.375 283.923 137.75 284.5 137.75C285.077 137.75 285.438 138.375 285.15 138.875Z" stroke="#0D79D0"/>
<path d="M181.15 136.875C180.861 137.375 180.139 137.375 179.85 136.875C179.562 136.375 179.923 135.75 180.5 135.75C181.077 135.75 181.438 136.375 181.15 136.875Z" stroke="#0D79D0"/>
<path d="M285.15 32.875C284.861 33.375 284.139 33.375 283.85 32.875C283.562 32.375 283.923 31.75 284.5 31.75C285.077 31.75 285.438 32.375 285.15 32.875Z" stroke="#0D79D0"/>
<path d="M78.1495 241.875C77.8608 242.375 77.1392 242.375 76.8505 241.875C76.5618 241.375 76.9227 240.75 77.5 240.75C78.0774 240.75 78.4382 241.375 78.1495 241.875Z" stroke="#0D79D0"/>
<path d="M285.15 226.875C284.861 227.375 284.139 227.375 283.85 226.875C283.562 226.375 283.923 225.75 284.5 225.75C285.077 225.75 285.438 226.375 285.15 226.875Z" stroke="#0D79D0"/>
<path d="M181.15 226.875C180.861 227.375 180.139 227.375 179.85 226.875C179.562 226.375 179.923 225.75 180.5 225.75C181.077 225.75 181.438 226.375 181.15 226.875Z" stroke="#0D79D0"/>
<path d="M285.15 123.875C284.861 124.375 284.139 124.375 283.85 123.875C283.562 123.375 283.923 122.75 284.5 122.75C285.077 122.75 285.438 123.375 285.15 123.875Z" stroke="#0D79D0"/>
<path d="M181.15 121.875C180.861 122.375 180.139 122.375 179.85 121.875C179.562 121.375 179.923 120.75 180.5 120.75C181.077 120.75 181.438 121.375 181.15 121.875Z" stroke="#0D79D0"/>
<path d="M285.15 17.875C284.861 18.375 284.139 18.375 283.85 17.875C283.562 17.375 283.923 16.75 284.5 16.75C285.077 16.75 285.438 17.375 285.15 17.875Z" stroke="#0D79D0"/>
<path d="M78.1495 226.875C77.8608 227.375 77.1392 227.375 76.8505 226.875C76.5618 226.375 76.9227 225.75 77.5 225.75C78.0774 225.75 78.4382 226.375 78.1495 226.875Z" stroke="#0D79D0"/>
<path d="M285.15 211.875C284.861 212.375 284.139 212.375 283.85 211.875C283.562 211.375 283.923 210.75 284.5 210.75C285.077 210.75 285.438 211.375 285.15 211.875Z" stroke="#0D79D0"/>
<path d="M181.15 211.875C180.861 212.375 180.139 212.375 179.85 211.875C179.562 211.375 179.923 210.75 180.5 210.75C181.077 210.75 181.438 211.375 181.15 211.875Z" stroke="#0D79D0"/>
<path d="M285.15 108.875C284.861 109.375 284.139 109.375 283.85 108.875C283.562 108.375 283.923 107.75 284.5 107.75C285.077 107.75 285.438 108.375 285.15 108.875Z" stroke="#0D79D0"/>
<path d="M181.15 106.875C180.861 107.375 180.139 107.375 179.85 106.875C179.562 106.375 179.923 105.75 180.5 105.75C181.077 105.75 181.438 106.375 181.15 106.875Z" stroke="#0D79D0"/>
<path d="M181.15 92.875C180.861 93.375 180.139 93.375 179.85 92.875C179.562 92.375 179.923 91.75 180.5 91.75C181.077 91.75 181.438 92.375 181.15 92.875Z" stroke="#0D79D0"/>
<path d="M181.15 78.875C180.861 79.375 180.139 79.375 179.85 78.875C179.562 78.375 179.923 77.75 180.5 77.75C181.077 77.75 181.438 78.375 181.15 78.875Z" stroke="#0D79D0"/>
<path d="M181.15 64.875C180.861 65.375 180.139 65.375 179.85 64.875C179.562 64.375 179.923 63.75 180.5 63.75C181.077 63.75 181.438 64.375 181.15 64.875Z" stroke="#0D79D0"/>
<path d="M181.15 50.875C180.861 51.375 180.139 51.375 179.85 50.875C179.562 50.375 179.923 49.75 180.5 49.75C181.077 49.75 181.438 50.375 181.15 50.875Z" stroke="#0D79D0"/>
<path d="M285.15 2.875C284.861 3.375 284.139 3.375 283.85 2.875C283.562 2.375 283.923 1.75 284.5 1.75C285.077 1.75 285.438 2.375 285.15 2.875Z" stroke="#0D79D0"/>
<path d="M78.1495 211.875C77.8608 212.375 77.1392 212.375 76.8505 211.875C76.5618 211.375 76.9227 210.75 77.5 210.75C78.0774 210.75 78.4382 211.375 78.1495 211.875Z" stroke="#0D79D0"/>
<path d="M78.1495 196.875C77.8608 197.375 77.1392 197.375 76.8505 196.875C76.5618 196.375 76.9227 195.75 77.5 195.75C78.0774 195.75 78.4382 196.375 78.1495 196.875Z" stroke="#0D79D0"/>
<path d="M78.1495 181.875C77.8608 182.375 77.1392 182.375 76.8505 181.875C76.5618 181.375 76.9227 180.75 77.5 180.75C78.0774 180.75 78.4382 181.375 78.1495 181.875Z" stroke="#0D79D0"/>
<path d="M78.1495 166.875C77.8608 167.375 77.1392 167.375 76.8505 166.875C76.5618 166.375 76.9227 165.75 77.5 165.75C78.0774 165.75 78.4382 166.375 78.1495 166.875Z" stroke="#0D79D0"/>
<path d="M78.1495 151.875C77.8608 152.375 77.1392 152.375 76.8505 151.875C76.5618 151.375 76.9227 150.75 77.5 150.75C78.0774 150.75 78.4382 151.375 78.1495 151.875Z" stroke="#0D79D0"/>
<path d="M255.15 211.875C254.861 212.375 254.139 212.375 253.85 211.875C253.562 211.375 253.923 210.75 254.5 210.75C255.077 210.75 255.438 211.375 255.15 211.875Z" stroke="#0D79D0"/>
<path d="M151.15 211.875C150.861 212.375 150.139 212.375 149.85 211.875C149.562 211.375 149.923 210.75 150.5 210.75C151.077 210.75 151.438 211.375 151.15 211.875Z" stroke="#0D79D0"/>
<path d="M255.15 108.875C254.861 109.375 254.139 109.375 253.85 108.875C253.562 108.375 253.923 107.75 254.5 107.75C255.077 107.75 255.438 108.375 255.15 108.875Z" stroke="#0D79D0"/>
<path d="M151.15 106.875C150.861 107.375 150.139 107.375 149.85 106.875C149.562 106.375 149.923 105.75 150.5 105.75C151.077 105.75 151.438 106.375 151.15 106.875Z" stroke="#0D79D0"/>
<path d="M151.15 92.875C150.861 93.375 150.139 93.375 149.85 92.875C149.562 92.375 149.923 91.75 150.5 91.75C151.077 91.75 151.438 92.375 151.15 92.875Z" stroke="#0D79D0"/>
<path d="M151.15 78.875C150.861 79.375 150.139 79.375 149.85 78.875C149.562 78.375 149.923 77.75 150.5 77.75C151.077 77.75 151.438 78.375 151.15 78.875Z" stroke="#0D79D0"/>
<path d="M151.15 64.875C150.861 65.375 150.139 65.375 149.85 64.875C149.562 64.375 149.923 63.75 150.5 63.75C151.077 63.75 151.438 64.375 151.15 64.875Z" stroke="#0D79D0"/>
<path d="M151.15 50.875C150.861 51.375 150.139 51.375 149.85 50.875C149.562 50.375 149.923 49.75 150.5 49.75C151.077 49.75 151.438 50.375 151.15 50.875Z" stroke="#0D79D0"/>
<path d="M255.15 2.875C254.861 3.375 254.139 3.375 253.85 2.875C253.562 2.375 253.923 1.75 254.5 1.75C255.077 1.75 255.438 2.375 255.15 2.875Z" stroke="#0D79D0"/>
<path d="M48.1495 211.875C47.8608 212.375 47.1392 212.375 46.8505 211.875C46.5618 211.375 46.9227 210.75 47.5 210.75C48.0774 210.75 48.4382 211.375 48.1495 211.875Z" stroke="#0D79D0"/>
<path d="M255.15 226.875C254.861 227.375 254.139 227.375 253.85 226.875C253.562 226.375 253.923 225.75 254.5 225.75C255.077 225.75 255.438 226.375 255.15 226.875Z" stroke="#0D79D0"/>
<path d="M151.15 226.875C150.861 227.375 150.139 227.375 149.85 226.875C149.562 226.375 149.923 225.75 150.5 225.75C151.077 225.75 151.438 226.375 151.15 226.875Z" stroke="#0D79D0"/>
<path d="M255.15 123.875C254.861 124.375 254.139 124.375 253.85 123.875C253.562 123.375 253.923 122.75 254.5 122.75C255.077 122.75 255.438 123.375 255.15 123.875Z" stroke="#0D79D0"/>
<path d="M151.15 121.875C150.861 122.375 150.139 122.375 149.85 121.875C149.562 121.375 149.923 120.75 150.5 120.75C151.077 120.75 151.438 121.375 151.15 121.875Z" stroke="#0D79D0"/>
<path d="M255.15 17.875C254.861 18.375 254.139 18.375 253.85 17.875C253.562 17.375 253.923 16.75 254.5 16.75C255.077 16.75 255.438 17.375 255.15 17.875Z" stroke="#0D79D0"/>
<path d="M48.1495 226.875C47.8608 227.375 47.1392 227.375 46.8505 226.875C46.5618 226.375 46.9227 225.75 47.5 225.75C48.0774 225.75 48.4382 226.375 48.1495 226.875Z" stroke="#0D79D0"/>
<path d="M270.15 271.875C269.861 272.375 269.139 272.375 268.85 271.875C268.562 271.375 268.923 270.75 269.5 270.75C270.077 270.75 270.438 271.375 270.15 271.875Z" stroke="#0D79D0"/>
<path d="M166.15 271.875C165.861 272.375 165.139 272.375 164.85 271.875C164.562 271.375 164.923 270.75 165.5 270.75C166.077 270.75 166.438 271.375 166.15 271.875Z" stroke="#0D79D0"/>
<path d="M270.15 168.875C269.861 169.375 269.139 169.375 268.85 168.875C268.562 168.375 268.923 167.75 269.5 167.75C270.077 167.75 270.438 168.375 270.15 168.875Z" stroke="#0D79D0"/>
<path d="M166.15 166.875C165.861 167.375 165.139 167.375 164.85 166.875C164.562 166.375 164.923 165.75 165.5 165.75C166.077 165.75 166.438 166.375 166.15 166.875Z" stroke="#0D79D0"/>
<path d="M270.15 62.875C269.861 63.375 269.139 63.375 268.85 62.875C268.562 62.375 268.923 61.75 269.5 61.75C270.077 61.75 270.438 62.375 270.15 62.875Z" stroke="#0D79D0"/>
<path d="M63.1495 271.875C62.8608 272.375 62.1392 272.375 61.8505 271.875C61.5618 271.375 61.9227 270.75 62.5 270.75C63.0774 270.75 63.4382 271.375 63.1495 271.875Z" stroke="#0D79D0"/>
<path d="M255.15 271.875C254.861 272.375 254.139 272.375 253.85 271.875C253.562 271.375 253.923 270.75 254.5 270.75C255.077 270.75 255.438 271.375 255.15 271.875Z" stroke="#0D79D0"/>
<path d="M151.15 271.875C150.861 272.375 150.139 272.375 149.85 271.875C149.562 271.375 149.923 270.75 150.5 270.75C151.077 270.75 151.438 271.375 151.15 271.875Z" stroke="#0D79D0"/>
<path d="M255.15 168.875C254.861 169.375 254.139 169.375 253.85 168.875C253.562 168.375 253.923 167.75 254.5 167.75C255.077 167.75 255.438 168.375 255.15 168.875Z" stroke="#0D79D0"/>
<path d="M151.15 166.875C150.861 167.375 150.139 167.375 149.85 166.875C149.562 166.375 149.923 165.75 150.5 165.75C151.077 165.75 151.438 166.375 151.15 166.875Z" stroke="#0D79D0"/>
<path d="M255.15 62.875C254.861 63.375 254.139 63.375 253.85 62.875C253.562 62.375 253.923 61.75 254.5 61.75C255.077 61.75 255.438 62.375 255.15 62.875Z" stroke="#0D79D0"/>
<path d="M48.1495 271.875C47.8608 272.375 47.1392 272.375 46.8505 271.875C46.5618 271.375 46.9227 270.75 47.5 270.75C48.0774 270.75 48.4382 271.375 48.1495 271.875Z" stroke="#0D79D0"/>
<path d="M240.15 271.875C239.861 272.375 239.139 272.375 238.85 271.875C238.562 271.375 238.923 270.75 239.5 270.75C240.077 270.75 240.438 271.375 240.15 271.875Z" stroke="#0D79D0"/>
<path d="M136.15 271.875C135.861 272.375 135.139 272.375 134.85 271.875C134.562 271.375 134.923 270.75 135.5 270.75C136.077 270.75 136.438 271.375 136.15 271.875Z" stroke="#0D79D0"/>
<path d="M240.15 168.875C239.861 169.375 239.139 169.375 238.85 168.875C238.562 168.375 238.923 167.75 239.5 167.75C240.077 167.75 240.438 168.375 240.15 168.875Z" stroke="#0D79D0"/>
<path d="M136.15 166.875C135.861 167.375 135.139 167.375 134.85 166.875C134.562 166.375 134.923 165.75 135.5 165.75C136.077 165.75 136.438 166.375 136.15 166.875Z" stroke="#0D79D0"/>
<path d="M240.15 62.875C239.861 63.375 239.139 63.375 238.85 62.875C238.562 62.375 238.923 61.75 239.5 61.75C240.077 61.75 240.438 62.375 240.15 62.875Z" stroke="#0D79D0"/>
<path d="M33.1495 271.875C32.8608 272.375 32.1392 272.375 31.8505 271.875C31.5618 271.375 31.9227 270.75 32.5 270.75C33.0774 270.75 33.4382 271.375 33.1495 271.875Z" stroke="#0D79D0"/>
<path d="M225.15 271.875C224.861 272.375 224.139 272.375 223.85 271.875C223.562 271.375 223.923 270.75 224.5 270.75C225.077 270.75 225.438 271.375 225.15 271.875Z" stroke="#0D79D0"/>
<path d="M121.15 271.875C120.861 272.375 120.139 272.375 119.85 271.875C119.562 271.375 119.923 270.75 120.5 270.75C121.077 270.75 121.438 271.375 121.15 271.875Z" stroke="#0D79D0"/>
<path d="M225.15 168.875C224.861 169.375 224.139 169.375 223.85 168.875C223.562 168.375 223.923 167.75 224.5 167.75C225.077 167.75 225.438 168.375 225.15 168.875Z" stroke="#0D79D0"/>
<path d="M121.15 166.875C120.861 167.375 120.139 167.375 119.85 166.875C119.562 166.375 119.923 165.75 120.5 165.75C121.077 165.75 121.438 166.375 121.15 166.875Z" stroke="#0D79D0"/>
<path d="M225.15 62.875C224.861 63.375 224.139 63.375 223.85 62.875C223.562 62.375 223.923 61.75 224.5 61.75C225.077 61.75 225.438 62.375 225.15 62.875Z" stroke="#0D79D0"/>
<path d="M18.1495 271.875C17.8608 272.375 17.1392 272.375 16.8505 271.875C16.5618 271.375 16.9227 270.75 17.5 270.75C18.0774 270.75 18.4382 271.375 18.1495 271.875Z" stroke="#0D79D0"/>
<path d="M210.15 271.875C209.861 272.375 209.139 272.375 208.85 271.875C208.562 271.375 208.923 270.75 209.5 270.75C210.077 270.75 210.438 271.375 210.15 271.875Z" stroke="#0D79D0"/>
<path d="M106.15 271.875C105.861 272.375 105.139 272.375 104.85 271.875C104.562 271.375 104.923 270.75 105.5 270.75C106.077 270.75 106.438 271.375 106.15 271.875Z" stroke="#0D79D0"/>
<path d="M210.15 168.875C209.861 169.375 209.139 169.375 208.85 168.875C208.562 168.375 208.923 167.75 209.5 167.75C210.077 167.75 210.438 168.375 210.15 168.875Z" stroke="#0D79D0"/>
<path d="M106.15 166.875C105.861 167.375 105.139 167.375 104.85 166.875C104.562 166.375 104.923 165.75 105.5 165.75C106.077 165.75 106.438 166.375 106.15 166.875Z" stroke="#0D79D0"/>
<path d="M210.15 62.875C209.861 63.375 209.139 63.375 208.85 62.875C208.562 62.375 208.923 61.75 209.5 61.75C210.077 61.75 210.438 62.375 210.15 62.875Z" stroke="#0D79D0"/>
<path d="M3.14952 271.875C2.86084 272.375 2.13916 272.375 1.85048 271.875C1.56181 271.375 1.92265 270.75 2.5 270.75C3.07735 270.75 3.43819 271.375 3.14952 271.875Z" stroke="#0D79D0"/>
<path d="M240.15 256.875C239.861 257.375 239.139 257.375 238.85 256.875C238.562 256.375 238.923 255.75 239.5 255.75C240.077 255.75 240.438 256.375 240.15 256.875Z" stroke="#0D79D0"/>
<path d="M136.15 256.875C135.861 257.375 135.139 257.375 134.85 256.875C134.562 256.375 134.923 255.75 135.5 255.75C136.077 255.75 136.438 256.375 136.15 256.875Z" stroke="#0D79D0"/>
<path d="M240.15 153.875C239.861 154.375 239.139 154.375 238.85 153.875C238.562 153.375 238.923 152.75 239.5 152.75C240.077 152.75 240.438 153.375 240.15 153.875Z" stroke="#0D79D0"/>
<path d="M136.15 151.875C135.861 152.375 135.139 152.375 134.85 151.875C134.562 151.375 134.923 150.75 135.5 150.75C136.077 150.75 136.438 151.375 136.15 151.875Z" stroke="#0D79D0"/>
<path d="M240.15 47.875C239.861 48.375 239.139 48.375 238.85 47.875C238.562 47.375 238.923 46.75 239.5 46.75C240.077 46.75 240.438 47.375 240.15 47.875Z" stroke="#0D79D0"/>
<path d="M33.1495 256.875C32.8608 257.375 32.1392 257.375 31.8505 256.875C31.5618 256.375 31.9227 255.75 32.5 255.75C33.0774 255.75 33.4382 256.375 33.1495 256.875Z" stroke="#0D79D0"/>
<path d="M225.15 256.875C224.861 257.375 224.139 257.375 223.85 256.875C223.562 256.375 223.923 255.75 224.5 255.75C225.077 255.75 225.438 256.375 225.15 256.875Z" stroke="#0D79D0"/>
<path d="M121.15 256.875C120.861 257.375 120.139 257.375 119.85 256.875C119.562 256.375 119.923 255.75 120.5 255.75C121.077 255.75 121.438 256.375 121.15 256.875Z" stroke="#0D79D0"/>
<path d="M225.15 153.875C224.861 154.375 224.139 154.375 223.85 153.875C223.562 153.375 223.923 152.75 224.5 152.75C225.077 152.75 225.438 153.375 225.15 153.875Z" stroke="#0D79D0"/>
<path d="M121.15 151.875C120.861 152.375 120.139 152.375 119.85 151.875C119.562 151.375 119.923 150.75 120.5 150.75C121.077 150.75 121.438 151.375 121.15 151.875Z" stroke="#0D79D0"/>
<path d="M225.15 47.875C224.861 48.375 224.139 48.375 223.85 47.875C223.562 47.375 223.923 46.75 224.5 46.75C225.077 46.75 225.438 47.375 225.15 47.875Z" stroke="#0D79D0"/>
<path d="M18.1495 256.875C17.8608 257.375 17.1392 257.375 16.8505 256.875C16.5618 256.375 16.9227 255.75 17.5 255.75C18.0774 255.75 18.4382 256.375 18.1495 256.875Z" stroke="#0D79D0"/>
<path d="M210.15 256.875C209.861 257.375 209.139 257.375 208.85 256.875C208.562 256.375 208.923 255.75 209.5 255.75C210.077 255.75 210.438 256.375 210.15 256.875Z" stroke="#0D79D0"/>
<path d="M106.15 256.875C105.861 257.375 105.139 257.375 104.85 256.875C104.562 256.375 104.923 255.75 105.5 255.75C106.077 255.75 106.438 256.375 106.15 256.875Z" stroke="#0D79D0"/>
<path d="M210.15 153.875C209.861 154.375 209.139 154.375 208.85 153.875C208.562 153.375 208.923 152.75 209.5 152.75C210.077 152.75 210.438 153.375 210.15 153.875Z" stroke="#0D79D0"/>
<path d="M106.15 151.875C105.861 152.375 105.139 152.375 104.85 151.875C104.562 151.375 104.923 150.75 105.5 150.75C106.077 150.75 106.438 151.375 106.15 151.875Z" stroke="#0D79D0"/>
<path d="M210.15 47.875C209.861 48.375 209.139 48.375 208.85 47.875C208.562 47.375 208.923 46.75 209.5 46.75C210.077 46.75 210.438 47.375 210.15 47.875Z" stroke="#0D79D0"/>
<path d="M3.14952 256.875C2.86084 257.375 2.13916 257.375 1.85048 256.875C1.56181 256.375 1.92265 255.75 2.5 255.75C3.07735 255.75 3.43819 256.375 3.14952 256.875Z" stroke="#0D79D0"/>
<path d="M240.15 241.875C239.861 242.375 239.139 242.375 238.85 241.875C238.562 241.375 238.923 240.75 239.5 240.75C240.077 240.75 240.438 241.375 240.15 241.875Z" stroke="#0D79D0"/>
<path d="M136.15 241.875C135.861 242.375 135.139 242.375 134.85 241.875C134.562 241.375 134.923 240.75 135.5 240.75C136.077 240.75 136.438 241.375 136.15 241.875Z" stroke="#0D79D0"/>
<path d="M240.15 138.875C239.861 139.375 239.139 139.375 238.85 138.875C238.562 138.375 238.923 137.75 239.5 137.75C240.077 137.75 240.438 138.375 240.15 138.875Z" stroke="#0D79D0"/>
<path d="M136.15 136.875C135.861 137.375 135.139 137.375 134.85 136.875C134.562 136.375 134.923 135.75 135.5 135.75C136.077 135.75 136.438 136.375 136.15 136.875Z" stroke="#0D79D0"/>
<path d="M240.15 32.875C239.861 33.375 239.139 33.375 238.85 32.875C238.562 32.375 238.923 31.75 239.5 31.75C240.077 31.75 240.438 32.375 240.15 32.875Z" stroke="#0D79D0"/>
<path d="M33.1495 241.875C32.8608 242.375 32.1392 242.375 31.8505 241.875C31.5618 241.375 31.9227 240.75 32.5 240.75C33.0774 240.75 33.4382 241.375 33.1495 241.875Z" stroke="#0D79D0"/>
<path d="M225.15 241.875C224.861 242.375 224.139 242.375 223.85 241.875C223.562 241.375 223.923 240.75 224.5 240.75C225.077 240.75 225.438 241.375 225.15 241.875Z" stroke="#0D79D0"/>
<path d="M121.15 241.875C120.861 242.375 120.139 242.375 119.85 241.875C119.562 241.375 119.923 240.75 120.5 240.75C121.077 240.75 121.438 241.375 121.15 241.875Z" stroke="#0D79D0"/>
<path d="M225.15 138.875C224.861 139.375 224.139 139.375 223.85 138.875C223.562 138.375 223.923 137.75 224.5 137.75C225.077 137.75 225.438 138.375 225.15 138.875Z" stroke="#0D79D0"/>
<path d="M121.15 136.875C120.861 137.375 120.139 137.375 119.85 136.875C119.562 136.375 119.923 135.75 120.5 135.75C121.077 135.75 121.438 136.375 121.15 136.875Z" stroke="#0D79D0"/>
<path d="M225.15 32.875C224.861 33.375 224.139 33.375 223.85 32.875C223.562 32.375 223.923 31.75 224.5 31.75C225.077 31.75 225.438 32.375 225.15 32.875Z" stroke="#0D79D0"/>
<path d="M18.1495 241.875C17.8608 242.375 17.1392 242.375 16.8505 241.875C16.5618 241.375 16.9227 240.75 17.5 240.75C18.0774 240.75 18.4382 241.375 18.1495 241.875Z" stroke="#0D79D0"/>
<path d="M210.15 241.875C209.861 242.375 209.139 242.375 208.85 241.875C208.562 241.375 208.923 240.75 209.5 240.75C210.077 240.75 210.438 241.375 210.15 241.875Z" stroke="#0D79D0"/>
<path d="M106.15 241.875C105.861 242.375 105.139 242.375 104.85 241.875C104.562 241.375 104.923 240.75 105.5 240.75C106.077 240.75 106.438 241.375 106.15 241.875Z" stroke="#0D79D0"/>
<path d="M210.15 138.875C209.861 139.375 209.139 139.375 208.85 138.875C208.562 138.375 208.923 137.75 209.5 137.75C210.077 137.75 210.438 138.375 210.15 138.875Z" stroke="#0D79D0"/>
<path d="M106.15 136.875C105.861 137.375 105.139 137.375 104.85 136.875C104.562 136.375 104.923 135.75 105.5 135.75C106.077 135.75 106.438 136.375 106.15 136.875Z" stroke="#0D79D0"/>
<path d="M210.15 32.875C209.861 33.375 209.139 33.375 208.85 32.875C208.562 32.375 208.923 31.75 209.5 31.75C210.077 31.75 210.438 32.375 210.15 32.875Z" stroke="#0D79D0"/>
<path d="M3.14952 241.875C2.86084 242.375 2.13916 242.375 1.85048 241.875C1.56181 241.375 1.92265 240.75 2.5 240.75C3.07735 240.75 3.43819 241.375 3.14952 241.875Z" stroke="#0D79D0"/>
<path d="M240.15 226.875C239.861 227.375 239.139 227.375 238.85 226.875C238.562 226.375 238.923 225.75 239.5 225.75C240.077 225.75 240.438 226.375 240.15 226.875Z" stroke="#0D79D0"/>
<path d="M136.15 226.875C135.861 227.375 135.139 227.375 134.85 226.875C134.562 226.375 134.923 225.75 135.5 225.75C136.077 225.75 136.438 226.375 136.15 226.875Z" stroke="#0D79D0"/>
<path d="M240.15 123.875C239.861 124.375 239.139 124.375 238.85 123.875C238.562 123.375 238.923 122.75 239.5 122.75C240.077 122.75 240.438 123.375 240.15 123.875Z" stroke="#0D79D0"/>
<path d="M136.15 121.875C135.861 122.375 135.139 122.375 134.85 121.875C134.562 121.375 134.923 120.75 135.5 120.75C136.077 120.75 136.438 121.375 136.15 121.875Z" stroke="#0D79D0"/>
<path d="M240.15 17.875C239.861 18.375 239.139 18.375 238.85 17.875C238.562 17.375 238.923 16.75 239.5 16.75C240.077 16.75 240.438 17.375 240.15 17.875Z" stroke="#0D79D0"/>
<path d="M33.1495 226.875C32.8608 227.375 32.1392 227.375 31.8505 226.875C31.5618 226.375 31.9227 225.75 32.5 225.75C33.0774 225.75 33.4382 226.375 33.1495 226.875Z" stroke="#0D79D0"/>
<path d="M225.15 226.875C224.861 227.375 224.139 227.375 223.85 226.875C223.562 226.375 223.923 225.75 224.5 225.75C225.077 225.75 225.438 226.375 225.15 226.875Z" stroke="#0D79D0"/>
<path d="M121.15 226.875C120.861 227.375 120.139 227.375 119.85 226.875C119.562 226.375 119.923 225.75 120.5 225.75C121.077 225.75 121.438 226.375 121.15 226.875Z" stroke="#0D79D0"/>
<path d="M225.15 123.875C224.861 124.375 224.139 124.375 223.85 123.875C223.562 123.375 223.923 122.75 224.5 122.75C225.077 122.75 225.438 123.375 225.15 123.875Z" stroke="#0D79D0"/>
<path d="M121.15 121.875C120.861 122.375 120.139 122.375 119.85 121.875C119.562 121.375 119.923 120.75 120.5 120.75C121.077 120.75 121.438 121.375 121.15 121.875Z" stroke="#0D79D0"/>
<path d="M225.15 17.875C224.861 18.375 224.139 18.375 223.85 17.875C223.562 17.375 223.923 16.75 224.5 16.75C225.077 16.75 225.438 17.375 225.15 17.875Z" stroke="#0D79D0"/>
<path d="M18.1495 226.875C17.8608 227.375 17.1392 227.375 16.8505 226.875C16.5618 226.375 16.9227 225.75 17.5 225.75C18.0774 225.75 18.4382 226.375 18.1495 226.875Z" stroke="#0D79D0"/>
<path d="M210.15 226.875C209.861 227.375 209.139 227.375 208.85 226.875C208.562 226.375 208.923 225.75 209.5 225.75C210.077 225.75 210.438 226.375 210.15 226.875Z" stroke="#0D79D0"/>
<path d="M106.15 226.875C105.861 227.375 105.139 227.375 104.85 226.875C104.562 226.375 104.923 225.75 105.5 225.75C106.077 225.75 106.438 226.375 106.15 226.875Z" stroke="#0D79D0"/>
<path d="M210.15 123.875C209.861 124.375 209.139 124.375 208.85 123.875C208.562 123.375 208.923 122.75 209.5 122.75C210.077 122.75 210.438 123.375 210.15 123.875Z" stroke="#0D79D0"/>
<path d="M106.15 121.875C105.861 122.375 105.139 122.375 104.85 121.875C104.562 121.375 104.923 120.75 105.5 120.75C106.077 120.75 106.438 121.375 106.15 121.875Z" stroke="#0D79D0"/>
<path d="M210.15 17.875C209.861 18.375 209.139 18.375 208.85 17.875C208.562 17.375 208.923 16.75 209.5 16.75C210.077 16.75 210.438 17.375 210.15 17.875Z" stroke="#0D79D0"/>
<path d="M3.14952 226.875C2.86084 227.375 2.13916 227.375 1.85048 226.875C1.56181 226.375 1.92265 225.75 2.5 225.75C3.07735 225.75 3.43819 226.375 3.14952 226.875Z" stroke="#0D79D0"/>
<path d="M240.15 211.875C239.861 212.375 239.139 212.375 238.85 211.875C238.562 211.375 238.923 210.75 239.5 210.75C240.077 210.75 240.438 211.375 240.15 211.875Z" stroke="#0D79D0"/>
<path d="M136.15 211.875C135.861 212.375 135.139 212.375 134.85 211.875C134.562 211.375 134.923 210.75 135.5 210.75C136.077 210.75 136.438 211.375 136.15 211.875Z" stroke="#0D79D0"/>
<path d="M240.15 108.875C239.861 109.375 239.139 109.375 238.85 108.875C238.562 108.375 238.923 107.75 239.5 107.75C240.077 107.75 240.438 108.375 240.15 108.875Z" stroke="#0D79D0"/>
<path d="M136.15 106.875C135.861 107.375 135.139 107.375 134.85 106.875C134.562 106.375 134.923 105.75 135.5 105.75C136.077 105.75 136.438 106.375 136.15 106.875Z" stroke="#0D79D0"/>
<path d="M240.15 2.875C239.861 3.375 239.139 3.375 238.85 2.875C238.562 2.375 238.923 1.75 239.5 1.75C240.077 1.75 240.438 2.375 240.15 2.875Z" stroke="#0D79D0"/>
<path d="M33.1495 211.875C32.8608 212.375 32.1392 212.375 31.8505 211.875C31.5618 211.375 31.9227 210.75 32.5 210.75C33.0774 210.75 33.4382 211.375 33.1495 211.875Z" stroke="#0D79D0"/>
<path d="M225.15 211.875C224.861 212.375 224.139 212.375 223.85 211.875C223.562 211.375 223.923 210.75 224.5 210.75C225.077 210.75 225.438 211.375 225.15 211.875Z" stroke="#0D79D0"/>
<path d="M121.15 211.875C120.861 212.375 120.139 212.375 119.85 211.875C119.562 211.375 119.923 210.75 120.5 210.75C121.077 210.75 121.438 211.375 121.15 211.875Z" stroke="#0D79D0"/>
<path d="M225.15 108.875C224.861 109.375 224.139 109.375 223.85 108.875C223.562 108.375 223.923 107.75 224.5 107.75C225.077 107.75 225.438 108.375 225.15 108.875Z" stroke="#0D79D0"/>
<path d="M121.15 106.875C120.861 107.375 120.139 107.375 119.85 106.875C119.562 106.375 119.923 105.75 120.5 105.75C121.077 105.75 121.438 106.375 121.15 106.875Z" stroke="#0D79D0"/>
<path d="M225.15 2.875C224.861 3.375 224.139 3.375 223.85 2.875C223.562 2.375 223.923 1.75 224.5 1.75C225.077 1.75 225.438 2.375 225.15 2.875Z" stroke="#0D79D0"/>
<path d="M18.1495 211.875C17.8608 212.375 17.1392 212.375 16.8505 211.875C16.5618 211.375 16.9227 210.75 17.5 210.75C18.0774 210.75 18.4382 211.375 18.1495 211.875Z" stroke="#0D79D0"/>
<path d="M210.15 211.875C209.861 212.375 209.139 212.375 208.85 211.875C208.562 211.375 208.923 210.75 209.5 210.75C210.077 210.75 210.438 211.375 210.15 211.875Z" stroke="#0D79D0"/>
<path d="M106.15 211.875C105.861 212.375 105.139 212.375 104.85 211.875C104.562 211.375 104.923 210.75 105.5 210.75C106.077 210.75 106.438 211.375 106.15 211.875Z" stroke="#0D79D0"/>
<path d="M210.15 108.875C209.861 109.375 209.139 109.375 208.85 108.875C208.562 108.375 208.923 107.75 209.5 107.75C210.077 107.75 210.438 108.375 210.15 108.875Z" stroke="#0D79D0"/>
<path d="M106.15 106.875C105.861 107.375 105.139 107.375 104.85 106.875C104.562 106.375 104.923 105.75 105.5 105.75C106.077 105.75 106.438 106.375 106.15 106.875Z" stroke="#0D79D0"/>
<path d="M210.15 2.875C209.861 3.375 209.139 3.375 208.85 2.875C208.562 2.375 208.923 1.75 209.5 1.75C210.077 1.75 210.438 2.375 210.15 2.875Z" stroke="#0D79D0"/>
<path d="M3.14952 211.875C2.86084 212.375 2.13916 212.375 1.85048 211.875C1.56181 211.375 1.92265 210.75 2.5 210.75C3.07735 210.75 3.43819 211.375 3.14952 211.875Z" stroke="#0D79D0"/>
<path d="M255.15 256.875C254.861 257.375 254.139 257.375 253.85 256.875C253.562 256.375 253.923 255.75 254.5 255.75C255.077 255.75 255.438 256.375 255.15 256.875Z" stroke="#0D79D0"/>
<path d="M151.15 256.875C150.861 257.375 150.139 257.375 149.85 256.875C149.562 256.375 149.923 255.75 150.5 255.75C151.077 255.75 151.438 256.375 151.15 256.875Z" stroke="#0D79D0"/>
<path d="M255.15 153.875C254.861 154.375 254.139 154.375 253.85 153.875C253.562 153.375 253.923 152.75 254.5 152.75C255.077 152.75 255.438 153.375 255.15 153.875Z" stroke="#0D79D0"/>
<path d="M151.15 151.875C150.861 152.375 150.139 152.375 149.85 151.875C149.562 151.375 149.923 150.75 150.5 150.75C151.077 150.75 151.438 151.375 151.15 151.875Z" stroke="#0D79D0"/>
<path d="M255.15 47.875C254.861 48.375 254.139 48.375 253.85 47.875C253.562 47.375 253.923 46.75 254.5 46.75C255.077 46.75 255.438 47.375 255.15 47.875Z" stroke="#0D79D0"/>
<path d="M48.1495 256.875C47.8608 257.375 47.1392 257.375 46.8505 256.875C46.5618 256.375 46.9227 255.75 47.5 255.75C48.0774 255.75 48.4382 256.375 48.1495 256.875Z" stroke="#0D79D0"/>
<path d="M255.15 241.875C254.861 242.375 254.139 242.375 253.85 241.875C253.562 241.375 253.923 240.75 254.5 240.75C255.077 240.75 255.438 241.375 255.15 241.875Z" stroke="#0D79D0"/>
<path d="M151.15 241.875C150.861 242.375 150.139 242.375 149.85 241.875C149.562 241.375 149.923 240.75 150.5 240.75C151.077 240.75 151.438 241.375 151.15 241.875Z" stroke="#0D79D0"/>
<path d="M255.15 138.875C254.861 139.375 254.139 139.375 253.85 138.875C253.562 138.375 253.923 137.75 254.5 137.75C255.077 137.75 255.438 138.375 255.15 138.875Z" stroke="#0D79D0"/>
<path d="M151.15 136.875C150.861 137.375 150.139 137.375 149.85 136.875C149.562 136.375 149.923 135.75 150.5 135.75C151.077 135.75 151.438 136.375 151.15 136.875Z" stroke="#0D79D0"/>
<path d="M255.15 32.875C254.861 33.375 254.139 33.375 253.85 32.875C253.562 32.375 253.923 31.75 254.5 31.75C255.077 31.75 255.438 32.375 255.15 32.875Z" stroke="#0D79D0"/>
<path d="M48.1495 241.875C47.8608 242.375 47.1392 242.375 46.8505 241.875C46.5618 241.375 46.9227 240.75 47.5 240.75C48.0774 240.75 48.4382 241.375 48.1495 241.875Z" stroke="#0D79D0"/>
<path d="M270.15 256.875C269.861 257.375 269.139 257.375 268.85 256.875C268.562 256.375 268.923 255.75 269.5 255.75C270.077 255.75 270.438 256.375 270.15 256.875Z" stroke="#0D79D0"/>
<path d="M166.15 256.875C165.861 257.375 165.139 257.375 164.85 256.875C164.562 256.375 164.923 255.75 165.5 255.75C166.077 255.75 166.438 256.375 166.15 256.875Z" stroke="#0D79D0"/>
<path d="M270.15 153.875C269.861 154.375 269.139 154.375 268.85 153.875C268.562 153.375 268.923 152.75 269.5 152.75C270.077 152.75 270.438 153.375 270.15 153.875Z" stroke="#0D79D0"/>
<path d="M166.15 151.875C165.861 152.375 165.139 152.375 164.85 151.875C164.562 151.375 164.923 150.75 165.5 150.75C166.077 150.75 166.438 151.375 166.15 151.875Z" stroke="#0D79D0"/>
<path d="M270.15 47.875C269.861 48.375 269.139 48.375 268.85 47.875C268.562 47.375 268.923 46.75 269.5 46.75C270.077 46.75 270.438 47.375 270.15 47.875Z" stroke="#0D79D0"/>
<path d="M63.1495 256.875C62.8608 257.375 62.1392 257.375 61.8505 256.875C61.5618 256.375 61.9227 255.75 62.5 255.75C63.0774 255.75 63.4382 256.375 63.1495 256.875Z" stroke="#0D79D0"/>
<path d="M270.15 241.875C269.861 242.375 269.139 242.375 268.85 241.875C268.562 241.375 268.923 240.75 269.5 240.75C270.077 240.75 270.438 241.375 270.15 241.875Z" stroke="#0D79D0"/>
<path d="M166.15 241.875C165.861 242.375 165.139 242.375 164.85 241.875C164.562 241.375 164.923 240.75 165.5 240.75C166.077 240.75 166.438 241.375 166.15 241.875Z" stroke="#0D79D0"/>
<path d="M270.15 138.875C269.861 139.375 269.139 139.375 268.85 138.875C268.562 138.375 268.923 137.75 269.5 137.75C270.077 137.75 270.438 138.375 270.15 138.875Z" stroke="#0D79D0"/>
<path d="M166.15 136.875C165.861 137.375 165.139 137.375 164.85 136.875C164.562 136.375 164.923 135.75 165.5 135.75C166.077 135.75 166.438 136.375 166.15 136.875Z" stroke="#0D79D0"/>
<path d="M270.15 32.875C269.861 33.375 269.139 33.375 268.85 32.875C268.562 32.375 268.923 31.75 269.5 31.75C270.077 31.75 270.438 32.375 270.15 32.875Z" stroke="#0D79D0"/>
<path d="M63.1495 241.875C62.8608 242.375 62.1392 242.375 61.8505 241.875C61.5618 241.375 61.9227 240.75 62.5 240.75C63.0774 240.75 63.4382 241.375 63.1495 241.875Z" stroke="#0D79D0"/>
<path d="M300.15 301.875C299.861 302.375 299.139 302.375 298.85 301.875C298.562 301.375 298.923 300.75 299.5 300.75C300.077 300.75 300.438 301.375 300.15 301.875Z" stroke="#0D79D0"/>
<path d="M196.15 301.875C195.861 302.375 195.139 302.375 194.85 301.875C194.562 301.375 194.923 300.75 195.5 300.75C196.077 300.75 196.438 301.375 196.15 301.875Z" stroke="#0D79D0"/>
<path d="M300.15 198.875C299.861 199.375 299.139 199.375 298.85 198.875C298.562 198.375 298.923 197.75 299.5 197.75C300.077 197.75 300.438 198.375 300.15 198.875Z" stroke="#0D79D0"/>
<path d="M196.15 196.875C195.861 197.375 195.139 197.375 194.85 196.875C194.562 196.375 194.923 195.75 195.5 195.75C196.077 195.75 196.438 196.375 196.15 196.875Z" stroke="#0D79D0"/>
<path d="M300.15 92.875C299.861 93.375 299.139 93.375 298.85 92.875C298.562 92.375 298.923 91.75 299.5 91.75C300.077 91.75 300.438 92.375 300.15 92.875Z" stroke="#0D79D0"/>
<path d="M93.1495 301.875C92.8608 302.375 92.1392 302.375 91.8505 301.875C91.5618 301.375 91.9227 300.75 92.5 300.75C93.0774 300.75 93.4382 301.375 93.1495 301.875Z" stroke="#0D79D0"/>
<path d="M285.15 301.875C284.861 302.375 284.139 302.375 283.85 301.875C283.562 301.375 283.923 300.75 284.5 300.75C285.077 300.75 285.438 301.375 285.15 301.875Z" stroke="#0D79D0"/>
<path d="M181.15 301.875C180.861 302.375 180.139 302.375 179.85 301.875C179.562 301.375 179.923 300.75 180.5 300.75C181.077 300.75 181.438 301.375 181.15 301.875Z" stroke="#0D79D0"/>
<path d="M285.15 198.875C284.861 199.375 284.139 199.375 283.85 198.875C283.562 198.375 283.923 197.75 284.5 197.75C285.077 197.75 285.438 198.375 285.15 198.875Z" stroke="#0D79D0"/>
<path d="M181.15 196.875C180.861 197.375 180.139 197.375 179.85 196.875C179.562 196.375 179.923 195.75 180.5 195.75C181.077 195.75 181.438 196.375 181.15 196.875Z" stroke="#0D79D0"/>
<path d="M285.15 92.875C284.861 93.375 284.139 93.375 283.85 92.875C283.562 92.375 283.923 91.75 284.5 91.75C285.077 91.75 285.438 92.375 285.15 92.875Z" stroke="#0D79D0"/>
<path d="M78.1495 301.875C77.8608 302.375 77.1392 302.375 76.8505 301.875C76.5618 301.375 76.9227 300.75 77.5 300.75C78.0774 300.75 78.4382 301.375 78.1495 301.875Z" stroke="#0D79D0"/>
<path d="M270.15 301.875C269.861 302.375 269.139 302.375 268.85 301.875C268.562 301.375 268.923 300.75 269.5 300.75C270.077 300.75 270.438 301.375 270.15 301.875Z" stroke="#0D79D0"/>
<path d="M166.15 301.875C165.861 302.375 165.139 302.375 164.85 301.875C164.562 301.375 164.923 300.75 165.5 300.75C166.077 300.75 166.438 301.375 166.15 301.875Z" stroke="#0D79D0"/>
<path d="M270.15 198.875C269.861 199.375 269.139 199.375 268.85 198.875C268.562 198.375 268.923 197.75 269.5 197.75C270.077 197.75 270.438 198.375 270.15 198.875Z" stroke="#0D79D0"/>
<path d="M166.15 196.875C165.861 197.375 165.139 197.375 164.85 196.875C164.562 196.375 164.923 195.75 165.5 195.75C166.077 195.75 166.438 196.375 166.15 196.875Z" stroke="#0D79D0"/>
<path d="M270.15 92.875C269.861 93.375 269.139 93.375 268.85 92.875C268.562 92.375 268.923 91.75 269.5 91.75C270.077 91.75 270.438 92.375 270.15 92.875Z" stroke="#0D79D0"/>
<path d="M63.1495 301.875C62.8608 302.375 62.1392 302.375 61.8505 301.875C61.5618 301.375 61.9227 300.75 62.5 300.75C63.0774 300.75 63.4382 301.375 63.1495 301.875Z" stroke="#0D79D0"/>
<path d="M255.15 301.875C254.861 302.375 254.139 302.375 253.85 301.875C253.562 301.375 253.923 300.75 254.5 300.75C255.077 300.75 255.438 301.375 255.15 301.875Z" stroke="#0D79D0"/>
<path d="M151.15 301.875C150.861 302.375 150.139 302.375 149.85 301.875C149.562 301.375 149.923 300.75 150.5 300.75C151.077 300.75 151.438 301.375 151.15 301.875Z" stroke="#0D79D0"/>
<path d="M255.15 198.875C254.861 199.375 254.139 199.375 253.85 198.875C253.562 198.375 253.923 197.75 254.5 197.75C255.077 197.75 255.438 198.375 255.15 198.875Z" stroke="#0D79D0"/>
<path d="M151.15 196.875C150.861 197.375 150.139 197.375 149.85 196.875C149.562 196.375 149.923 195.75 150.5 195.75C151.077 195.75 151.438 196.375 151.15 196.875Z" stroke="#0D79D0"/>
<path d="M255.15 92.875C254.861 93.375 254.139 93.375 253.85 92.875C253.562 92.375 253.923 91.75 254.5 91.75C255.077 91.75 255.438 92.375 255.15 92.875Z" stroke="#0D79D0"/>
<path d="M48.1495 301.875C47.8608 302.375 47.1392 302.375 46.8505 301.875C46.5618 301.375 46.9227 300.75 47.5 300.75C48.0774 300.75 48.4382 301.375 48.1495 301.875Z" stroke="#0D79D0"/>
<path d="M240.15 301.875C239.861 302.375 239.139 302.375 238.85 301.875C238.562 301.375 238.923 300.75 239.5 300.75C240.077 300.75 240.438 301.375 240.15 301.875Z" stroke="#0D79D0"/>
<path d="M136.15 301.875C135.861 302.375 135.139 302.375 134.85 301.875C134.562 301.375 134.923 300.75 135.5 300.75C136.077 300.75 136.438 301.375 136.15 301.875Z" stroke="#0D79D0"/>
<path d="M240.15 198.875C239.861 199.375 239.139 199.375 238.85 198.875C238.562 198.375 238.923 197.75 239.5 197.75C240.077 197.75 240.438 198.375 240.15 198.875Z" stroke="#0D79D0"/>
<path d="M136.15 196.875C135.861 197.375 135.139 197.375 134.85 196.875C134.562 196.375 134.923 195.75 135.5 195.75C136.077 195.75 136.438 196.375 136.15 196.875Z" stroke="#0D79D0"/>
<path d="M240.15 92.875C239.861 93.375 239.139 93.375 238.85 92.875C238.562 92.375 238.923 91.75 239.5 91.75C240.077 91.75 240.438 92.375 240.15 92.875Z" stroke="#0D79D0"/>
<path d="M33.1495 301.875C32.8608 302.375 32.1392 302.375 31.8505 301.875C31.5618 301.375 31.9227 300.75 32.5 300.75C33.0774 300.75 33.4382 301.375 33.1495 301.875Z" stroke="#0D79D0"/>
<path d="M225.15 301.875C224.861 302.375 224.139 302.375 223.85 301.875C223.562 301.375 223.923 300.75 224.5 300.75C225.077 300.75 225.438 301.375 225.15 301.875Z" stroke="#0D79D0"/>
<path d="M121.15 301.875C120.861 302.375 120.139 302.375 119.85 301.875C119.562 301.375 119.923 300.75 120.5 300.75C121.077 300.75 121.438 301.375 121.15 301.875Z" stroke="#0D79D0"/>
<path d="M225.15 198.875C224.861 199.375 224.139 199.375 223.85 198.875C223.562 198.375 223.923 197.75 224.5 197.75C225.077 197.75 225.438 198.375 225.15 198.875Z" stroke="#0D79D0"/>
<path d="M121.15 196.875C120.861 197.375 120.139 197.375 119.85 196.875C119.562 196.375 119.923 195.75 120.5 195.75C121.077 195.75 121.438 196.375 121.15 196.875Z" stroke="#0D79D0"/>
<path d="M225.15 92.875C224.861 93.375 224.139 93.375 223.85 92.875C223.562 92.375 223.923 91.75 224.5 91.75C225.077 91.75 225.438 92.375 225.15 92.875Z" stroke="#0D79D0"/>
<path d="M18.1495 301.875C17.8608 302.375 17.1392 302.375 16.8505 301.875C16.5618 301.375 16.9227 300.75 17.5 300.75C18.0774 300.75 18.4382 301.375 18.1495 301.875Z" stroke="#0D79D0"/>
<path d="M210.15 301.875C209.861 302.375 209.139 302.375 208.85 301.875C208.562 301.375 208.923 300.75 209.5 300.75C210.077 300.75 210.438 301.375 210.15 301.875Z" stroke="#0D79D0"/>
<path d="M106.15 301.875C105.861 302.375 105.139 302.375 104.85 301.875C104.562 301.375 104.923 300.75 105.5 300.75C106.077 300.75 106.438 301.375 106.15 301.875Z" stroke="#0D79D0"/>
<path d="M210.15 198.875C209.861 199.375 209.139 199.375 208.85 198.875C208.562 198.375 208.923 197.75 209.5 197.75C210.077 197.75 210.438 198.375 210.15 198.875Z" stroke="#0D79D0"/>
<path d="M106.15 196.875C105.861 197.375 105.139 197.375 104.85 196.875C104.562 196.375 104.923 195.75 105.5 195.75C106.077 195.75 106.438 196.375 106.15 196.875Z" stroke="#0D79D0"/>
<path d="M210.15 92.875C209.861 93.375 209.139 93.375 208.85 92.875C208.562 92.375 208.923 91.75 209.5 91.75C210.077 91.75 210.438 92.375 210.15 92.875Z" stroke="#0D79D0"/>
<path d="M3.14952 301.875C2.86084 302.375 2.13916 302.375 1.85048 301.875C1.56181 301.375 1.92265 300.75 2.5 300.75C3.07735 300.75 3.43819 301.375 3.14952 301.875Z" stroke="#0D79D0"/>
</svg>
