<svg width="302" height="304" viewBox="0 0 302 304" fill="none" xmlns="http://www.w3.org/2000/svg">
<path d="M16.8505 17.125C17.1392 16.625 17.8608 16.625 18.1495 17.125C18.4382 17.625 18.0773 18.25 17.5 18.25C16.9227 18.25 16.5618 17.625 16.8505 17.125Z" stroke="#0D79D0"/>
<path d="M120.85 17.125C121.139 16.625 121.861 16.625 122.15 17.125C122.438 17.625 122.077 18.25 121.5 18.25C120.923 18.25 120.562 17.625 120.85 17.125Z" stroke="#0D79D0"/>
<path d="M16.8505 120.125C17.1392 119.625 17.8608 119.625 18.1495 120.125C18.4382 120.625 18.0773 121.25 17.5 121.25C16.9227 121.25 16.5618 120.625 16.8505 120.125Z" stroke="#0D79D0"/>
<path d="M120.85 122.125C121.139 121.625 121.861 121.625 122.15 122.125C122.438 122.625 122.077 123.25 121.5 123.25C120.923 123.25 120.562 122.625 120.85 122.125Z" stroke="#0D79D0"/>
<path d="M16.8505 226.125C17.1392 225.625 17.8608 225.625 18.1495 226.125C18.4382 226.625 18.0773 227.25 17.5 227.25C16.9227 227.25 16.5618 226.625 16.8505 226.125Z" stroke="#0D79D0"/>
<path d="M223.85 17.125C224.139 16.625 224.861 16.625 225.15 17.125C225.438 17.625 225.077 18.25 224.5 18.25C223.923 18.25 223.562 17.625 223.85 17.125Z" stroke="#0D79D0"/>
<path d="M31.8505 17.125C32.1392 16.625 32.8608 16.625 33.1495 17.125C33.4382 17.625 33.0773 18.25 32.5 18.25C31.9227 18.25 31.5618 17.625 31.8505 17.125Z" stroke="#0D79D0"/>
<path d="M135.85 17.125C136.139 16.625 136.861 16.625 137.15 17.125C137.438 17.625 137.077 18.25 136.5 18.25C135.923 18.25 135.562 17.625 135.85 17.125Z" stroke="#0D79D0"/>
<path d="M31.8505 120.125C32.1392 119.625 32.8608 119.625 33.1495 120.125C33.4382 120.625 33.0773 121.25 32.5 121.25C31.9227 121.25 31.5618 120.625 31.8505 120.125Z" stroke="#0D79D0"/>
<path d="M135.85 122.125C136.139 121.625 136.861 121.625 137.15 122.125C137.438 122.625 137.077 123.25 136.5 123.25C135.923 123.25 135.562 122.625 135.85 122.125Z" stroke="#0D79D0"/>
<path d="M31.8505 226.125C32.1392 225.625 32.8608 225.625 33.1495 226.125C33.4382 226.625 33.0773 227.25 32.5 227.25C31.9227 227.25 31.5618 226.625 31.8505 226.125Z" stroke="#0D79D0"/>
<path d="M238.85 17.125C239.139 16.625 239.861 16.625 240.15 17.125C240.438 17.625 240.077 18.25 239.5 18.25C238.923 18.25 238.562 17.625 238.85 17.125Z" stroke="#0D79D0"/>
<path d="M46.8505 17.125C47.1392 16.625 47.8608 16.625 48.1495 17.125C48.4382 17.625 48.0773 18.25 47.5 18.25C46.9227 18.25 46.5618 17.625 46.8505 17.125Z" stroke="#0D79D0"/>
<path d="M150.85 17.125C151.139 16.625 151.861 16.625 152.15 17.125C152.438 17.625 152.077 18.25 151.5 18.25C150.923 18.25 150.562 17.625 150.85 17.125Z" stroke="#0D79D0"/>
<path d="M46.8505 120.125C47.1392 119.625 47.8608 119.625 48.1495 120.125C48.4382 120.625 48.0773 121.25 47.5 121.25C46.9227 121.25 46.5618 120.625 46.8505 120.125Z" stroke="#0D79D0"/>
<path d="M150.85 122.125C151.139 121.625 151.861 121.625 152.15 122.125C152.438 122.625 152.077 123.25 151.5 123.25C150.923 123.25 150.562 122.625 150.85 122.125Z" stroke="#0D79D0"/>
<path d="M46.8505 226.125C47.1392 225.625 47.8608 225.625 48.1495 226.125C48.4382 226.625 48.0773 227.25 47.5 227.25C46.9227 227.25 46.5618 226.625 46.8505 226.125Z" stroke="#0D79D0"/>
<path d="M253.85 17.125C254.139 16.625 254.861 16.625 255.15 17.125C255.438 17.625 255.077 18.25 254.5 18.25C253.923 18.25 253.562 17.625 253.85 17.125Z" stroke="#0D79D0"/>
<path d="M61.8505 17.125C62.1392 16.625 62.8608 16.625 63.1495 17.125C63.4382 17.625 63.0773 18.25 62.5 18.25C61.9227 18.25 61.5618 17.625 61.8505 17.125Z" stroke="#0D79D0"/>
<path d="M165.85 17.125C166.139 16.625 166.861 16.625 167.15 17.125C167.438 17.625 167.077 18.25 166.5 18.25C165.923 18.25 165.562 17.625 165.85 17.125Z" stroke="#0D79D0"/>
<path d="M61.8505 120.125C62.1392 119.625 62.8608 119.625 63.1495 120.125C63.4382 120.625 63.0773 121.25 62.5 121.25C61.9227 121.25 61.5618 120.625 61.8505 120.125Z" stroke="#0D79D0"/>
<path d="M165.85 122.125C166.139 121.625 166.861 121.625 167.15 122.125C167.438 122.625 167.077 123.25 166.5 123.25C165.923 123.25 165.562 122.625 165.85 122.125Z" stroke="#0D79D0"/>
<path d="M61.8505 226.125C62.1392 225.625 62.8608 225.625 63.1495 226.125C63.4382 226.625 63.0773 227.25 62.5 227.25C61.9227 227.25 61.5618 226.625 61.8505 226.125Z" stroke="#0D79D0"/>
<path d="M268.85 17.125C269.139 16.625 269.861 16.625 270.15 17.125C270.438 17.625 270.077 18.25 269.5 18.25C268.923 18.25 268.562 17.625 268.85 17.125Z" stroke="#0D79D0"/>
<path d="M76.8505 17.125C77.1392 16.625 77.8608 16.625 78.1495 17.125C78.4382 17.625 78.0773 18.25 77.5 18.25C76.9227 18.25 76.5618 17.625 76.8505 17.125Z" stroke="#0D79D0"/>
<path d="M180.85 17.125C181.139 16.625 181.861 16.625 182.15 17.125C182.438 17.625 182.077 18.25 181.5 18.25C180.923 18.25 180.562 17.625 180.85 17.125Z" stroke="#0D79D0"/>
<path d="M76.8505 120.125C77.1392 119.625 77.8608 119.625 78.1495 120.125C78.4382 120.625 78.0773 121.25 77.5 121.25C76.9227 121.25 76.5618 120.625 76.8505 120.125Z" stroke="#0D79D0"/>
<path d="M180.85 122.125C181.139 121.625 181.861 121.625 182.15 122.125C182.438 122.625 182.077 123.25 181.5 123.25C180.923 123.25 180.562 122.625 180.85 122.125Z" stroke="#0D79D0"/>
<path d="M76.8505 226.125C77.1392 225.625 77.8608 225.625 78.1495 226.125C78.4382 226.625 78.0773 227.25 77.5 227.25C76.9227 227.25 76.5618 226.625 76.8505 226.125Z" stroke="#0D79D0"/>
<path d="M283.85 17.125C284.139 16.625 284.861 16.625 285.15 17.125C285.438 17.625 285.077 18.25 284.5 18.25C283.923 18.25 283.562 17.625 283.85 17.125Z" stroke="#0D79D0"/>
<path d="M91.8505 17.125C92.1392 16.625 92.8608 16.625 93.1495 17.125C93.4382 17.625 93.0773 18.25 92.5 18.25C91.9227 18.25 91.5618 17.625 91.8505 17.125Z" stroke="#0D79D0"/>
<path d="M195.85 17.125C196.139 16.625 196.861 16.625 197.15 17.125C197.438 17.625 197.077 18.25 196.5 18.25C195.923 18.25 195.562 17.625 195.85 17.125Z" stroke="#0D79D0"/>
<path d="M91.8505 120.125C92.1392 119.625 92.8608 119.625 93.1495 120.125C93.4382 120.625 93.0773 121.25 92.5 121.25C91.9227 121.25 91.5618 120.625 91.8505 120.125Z" stroke="#0D79D0"/>
<path d="M195.85 122.125C196.139 121.625 196.861 121.625 197.15 122.125C197.438 122.625 197.077 123.25 196.5 123.25C195.923 123.25 195.562 122.625 195.85 122.125Z" stroke="#0D79D0"/>
<path d="M91.8505 226.125C92.1392 225.625 92.8608 225.625 93.1495 226.125C93.4382 226.625 93.0773 227.25 92.5 227.25C91.9227 227.25 91.5618 226.625 91.8505 226.125Z" stroke="#0D79D0"/>
<path d="M298.85 17.125C299.139 16.625 299.861 16.625 300.15 17.125C300.438 17.625 300.077 18.25 299.5 18.25C298.923 18.25 298.562 17.625 298.85 17.125Z" stroke="#0D79D0"/>
<path d="M1.85048 17.125C2.13916 16.625 2.86084 16.625 3.14952 17.125C3.43819 17.625 3.07735 18.25 2.5 18.25C1.92265 18.25 1.56181 17.625 1.85048 17.125Z" stroke="#0D79D0"/>
<path d="M105.85 17.125C106.139 16.625 106.861 16.625 107.15 17.125C107.438 17.625 107.077 18.25 106.5 18.25C105.923 18.25 105.562 17.625 105.85 17.125Z" stroke="#0D79D0"/>
<path d="M1.85048 120.125C2.13916 119.625 2.86084 119.625 3.14952 120.125C3.43819 120.625 3.07735 121.25 2.5 121.25C1.92265 121.25 1.56181 120.625 1.85048 120.125Z" stroke="#0D79D0"/>
<path d="M105.85 122.125C106.139 121.625 106.861 121.625 107.15 122.125C107.438 122.625 107.077 123.25 106.5 123.25C105.923 123.25 105.562 122.625 105.85 122.125Z" stroke="#0D79D0"/>
<path d="M1.85048 226.125C2.13916 225.625 2.86084 225.625 3.14952 226.125C3.43819 226.625 3.07735 227.25 2.5 227.25C1.92265 227.25 1.56181 226.625 1.85048 226.125Z" stroke="#0D79D0"/>
<path d="M208.85 17.125C209.139 16.625 209.861 16.625 210.15 17.125C210.438 17.625 210.077 18.25 209.5 18.25C208.923 18.25 208.562 17.625 208.85 17.125Z" stroke="#0D79D0"/>
<path d="M1.85048 32.125C2.13916 31.625 2.86084 31.625 3.14952 32.125C3.43819 32.625 3.07735 33.25 2.5 33.25C1.92265 33.25 1.56181 32.625 1.85048 32.125Z" stroke="#0D79D0"/>
<path d="M105.85 32.125C106.139 31.625 106.861 31.625 107.15 32.125C107.438 32.625 107.077 33.25 106.5 33.25C105.923 33.25 105.562 32.625 105.85 32.125Z" stroke="#0D79D0"/>
<path d="M1.85048 135.125C2.13916 134.625 2.86084 134.625 3.14952 135.125C3.43819 135.625 3.07735 136.25 2.5 136.25C1.92265 136.25 1.56181 135.625 1.85048 135.125Z" stroke="#0D79D0"/>
<path d="M105.85 137.125C106.139 136.625 106.861 136.625 107.15 137.125C107.438 137.625 107.077 138.25 106.5 138.25C105.923 138.25 105.562 137.625 105.85 137.125Z" stroke="#0D79D0"/>
<path d="M1.85048 241.125C2.13916 240.625 2.86084 240.625 3.14952 241.125C3.43819 241.625 3.07735 242.25 2.5 242.25C1.92265 242.25 1.56181 241.625 1.85048 241.125Z" stroke="#0D79D0"/>
<path d="M208.85 32.125C209.139 31.625 209.861 31.625 210.15 32.125C210.438 32.625 210.077 33.25 209.5 33.25C208.923 33.25 208.562 32.625 208.85 32.125Z" stroke="#0D79D0"/>
<path d="M1.85048 47.125C2.13916 46.625 2.86084 46.625 3.14952 47.125C3.43819 47.625 3.07735 48.25 2.5 48.25C1.92265 48.25 1.56181 47.625 1.85048 47.125Z" stroke="#0D79D0"/>
<path d="M105.85 47.125C106.139 46.625 106.861 46.625 107.15 47.125C107.438 47.625 107.077 48.25 106.5 48.25C105.923 48.25 105.562 47.625 105.85 47.125Z" stroke="#0D79D0"/>
<path d="M1.85048 150.125C2.13916 149.625 2.86084 149.625 3.14952 150.125C3.43819 150.625 3.07735 151.25 2.5 151.25C1.92265 151.25 1.56181 150.625 1.85048 150.125Z" stroke="#0D79D0"/>
<path d="M105.85 152.125C106.139 151.625 106.861 151.625 107.15 152.125C107.438 152.625 107.077 153.25 106.5 153.25C105.923 153.25 105.562 152.625 105.85 152.125Z" stroke="#0D79D0"/>
<path d="M1.85048 256.125C2.13916 255.625 2.86084 255.625 3.14952 256.125C3.43819 256.625 3.07735 257.25 2.5 257.25C1.92265 257.25 1.56181 256.625 1.85048 256.125Z" stroke="#0D79D0"/>
<path d="M208.85 47.125C209.139 46.625 209.861 46.625 210.15 47.125C210.438 47.625 210.077 48.25 209.5 48.25C208.923 48.25 208.562 47.625 208.85 47.125Z" stroke="#0D79D0"/>
<path d="M1.85048 62.125C2.13916 61.625 2.86084 61.625 3.14952 62.125C3.43819 62.625 3.07735 63.25 2.5 63.25C1.92265 63.25 1.56181 62.625 1.85048 62.125Z" stroke="#0D79D0"/>
<path d="M105.85 62.125C106.139 61.625 106.861 61.625 107.15 62.125C107.438 62.625 107.077 63.25 106.5 63.25C105.923 63.25 105.562 62.625 105.85 62.125Z" stroke="#0D79D0"/>
<path d="M1.85048 165.125C2.13916 164.625 2.86084 164.625 3.14952 165.125C3.43819 165.625 3.07735 166.25 2.5 166.25C1.92265 166.25 1.56181 165.625 1.85048 165.125Z" stroke="#0D79D0"/>
<path d="M105.85 167.125C106.139 166.625 106.861 166.625 107.15 167.125C107.438 167.625 107.077 168.25 106.5 168.25C105.923 168.25 105.562 167.625 105.85 167.125Z" stroke="#0D79D0"/>
<path d="M1.85048 271.125C2.13916 270.625 2.86084 270.625 3.14952 271.125C3.43819 271.625 3.07735 272.25 2.5 272.25C1.92265 272.25 1.56181 271.625 1.85048 271.125Z" stroke="#0D79D0"/>
<path d="M208.85 62.125C209.139 61.625 209.861 61.625 210.15 62.125C210.438 62.625 210.077 63.25 209.5 63.25C208.923 63.25 208.562 62.625 208.85 62.125Z" stroke="#0D79D0"/>
<path d="M1.85048 77.125C2.13916 76.625 2.86084 76.625 3.14952 77.125C3.43819 77.625 3.07735 78.25 2.5 78.25C1.92265 78.25 1.56181 77.625 1.85048 77.125Z" stroke="#0D79D0"/>
<path d="M105.85 77.125C106.139 76.625 106.861 76.625 107.15 77.125C107.438 77.625 107.077 78.25 106.5 78.25C105.923 78.25 105.562 77.625 105.85 77.125Z" stroke="#0D79D0"/>
<path d="M1.85048 180.125C2.13916 179.625 2.86084 179.625 3.14952 180.125C3.43819 180.625 3.07735 181.25 2.5 181.25C1.92265 181.25 1.56181 180.625 1.85048 180.125Z" stroke="#0D79D0"/>
<path d="M105.85 182.125C106.139 181.625 106.861 181.625 107.15 182.125C107.438 182.625 107.077 183.25 106.5 183.25C105.923 183.25 105.562 182.625 105.85 182.125Z" stroke="#0D79D0"/>
<path d="M1.85048 286.125C2.13916 285.625 2.86084 285.625 3.14952 286.125C3.43819 286.625 3.07735 287.25 2.5 287.25C1.92265 287.25 1.56181 286.625 1.85048 286.125Z" stroke="#0D79D0"/>
<path d="M208.85 77.125C209.139 76.625 209.861 76.625 210.15 77.125C210.438 77.625 210.077 78.25 209.5 78.25C208.923 78.25 208.562 77.625 208.85 77.125Z" stroke="#0D79D0"/>
<path d="M1.85048 92.125C2.13916 91.625 2.86084 91.625 3.14952 92.125C3.43819 92.625 3.07735 93.25 2.5 93.25C1.92265 93.25 1.56181 92.625 1.85048 92.125Z" stroke="#0D79D0"/>
<path d="M105.85 92.125C106.139 91.625 106.861 91.625 107.15 92.125C107.438 92.625 107.077 93.25 106.5 93.25C105.923 93.25 105.562 92.625 105.85 92.125Z" stroke="#0D79D0"/>
<path d="M1.85048 195.125C2.13916 194.625 2.86084 194.625 3.14952 195.125C3.43819 195.625 3.07735 196.25 2.5 196.25C1.92265 196.25 1.56181 195.625 1.85048 195.125Z" stroke="#0D79D0"/>
<path d="M105.85 197.125C106.139 196.625 106.861 196.625 107.15 197.125C107.438 197.625 107.077 198.25 106.5 198.25C105.923 198.25 105.562 197.625 105.85 197.125Z" stroke="#0D79D0"/>
<path d="M105.85 211.125C106.139 210.625 106.861 210.625 107.15 211.125C107.438 211.625 107.077 212.25 106.5 212.25C105.923 212.25 105.562 211.625 105.85 211.125Z" stroke="#0D79D0"/>
<path d="M105.85 225.125C106.139 224.625 106.861 224.625 107.15 225.125C107.438 225.625 107.077 226.25 106.5 226.25C105.923 226.25 105.562 225.625 105.85 225.125Z" stroke="#0D79D0"/>
<path d="M105.85 239.125C106.139 238.625 106.861 238.625 107.15 239.125C107.438 239.625 107.077 240.25 106.5 240.25C105.923 240.25 105.562 239.625 105.85 239.125Z" stroke="#0D79D0"/>
<path d="M105.85 253.125C106.139 252.625 106.861 252.625 107.15 253.125C107.438 253.625 107.077 254.25 106.5 254.25C105.923 254.25 105.562 253.625 105.85 253.125Z" stroke="#0D79D0"/>
<path d="M1.85048 301.125C2.13916 300.625 2.86084 300.625 3.14952 301.125C3.43819 301.625 3.07735 302.25 2.5 302.25C1.92265 302.25 1.56181 301.625 1.85048 301.125Z" stroke="#0D79D0"/>
<path d="M208.85 92.125C209.139 91.625 209.861 91.625 210.15 92.125C210.438 92.625 210.077 93.25 209.5 93.25C208.923 93.25 208.562 92.625 208.85 92.125Z" stroke="#0D79D0"/>
<path d="M208.85 107.125C209.139 106.625 209.861 106.625 210.15 107.125C210.438 107.625 210.077 108.25 209.5 108.25C208.923 108.25 208.562 107.625 208.85 107.125Z" stroke="#0D79D0"/>
<path d="M208.85 122.125C209.139 121.625 209.861 121.625 210.15 122.125C210.438 122.625 210.077 123.25 209.5 123.25C208.923 123.25 208.562 122.625 208.85 122.125Z" stroke="#0D79D0"/>
<path d="M208.85 137.125C209.139 136.625 209.861 136.625 210.15 137.125C210.438 137.625 210.077 138.25 209.5 138.25C208.923 138.25 208.562 137.625 208.85 137.125Z" stroke="#0D79D0"/>
<path d="M208.85 152.125C209.139 151.625 209.861 151.625 210.15 152.125C210.438 152.625 210.077 153.25 209.5 153.25C208.923 153.25 208.562 152.625 208.85 152.125Z" stroke="#0D79D0"/>
<path d="M31.8505 92.125C32.1392 91.625 32.8608 91.625 33.1495 92.125C33.4382 92.625 33.0773 93.25 32.5 93.25C31.9227 93.25 31.5618 92.625 31.8505 92.125Z" stroke="#0D79D0"/>
<path d="M135.85 92.125C136.139 91.625 136.861 91.625 137.15 92.125C137.438 92.625 137.077 93.25 136.5 93.25C135.923 93.25 135.562 92.625 135.85 92.125Z" stroke="#0D79D0"/>
<path d="M31.8505 195.125C32.1392 194.625 32.8608 194.625 33.1495 195.125C33.4382 195.625 33.0773 196.25 32.5 196.25C31.9227 196.25 31.5618 195.625 31.8505 195.125Z" stroke="#0D79D0"/>
<path d="M135.85 197.125C136.139 196.625 136.861 196.625 137.15 197.125C137.438 197.625 137.077 198.25 136.5 198.25C135.923 198.25 135.562 197.625 135.85 197.125Z" stroke="#0D79D0"/>
<path d="M135.85 211.125C136.139 210.625 136.861 210.625 137.15 211.125C137.438 211.625 137.077 212.25 136.5 212.25C135.923 212.25 135.562 211.625 135.85 211.125Z" stroke="#0D79D0"/>
<path d="M135.85 225.125C136.139 224.625 136.861 224.625 137.15 225.125C137.438 225.625 137.077 226.25 136.5 226.25C135.923 226.25 135.562 225.625 135.85 225.125Z" stroke="#0D79D0"/>
<path d="M135.85 239.125C136.139 238.625 136.861 238.625 137.15 239.125C137.438 239.625 137.077 240.25 136.5 240.25C135.923 240.25 135.562 239.625 135.85 239.125Z" stroke="#0D79D0"/>
<path d="M135.85 253.125C136.139 252.625 136.861 252.625 137.15 253.125C137.438 253.625 137.077 254.25 136.5 254.25C135.923 254.25 135.562 253.625 135.85 253.125Z" stroke="#0D79D0"/>
<path d="M31.8505 301.125C32.1392 300.625 32.8608 300.625 33.1495 301.125C33.4382 301.625 33.0773 302.25 32.5 302.25C31.9227 302.25 31.5618 301.625 31.8505 301.125Z" stroke="#0D79D0"/>
<path d="M238.85 92.125C239.139 91.625 239.861 91.625 240.15 92.125C240.438 92.625 240.077 93.25 239.5 93.25C238.923 93.25 238.562 92.625 238.85 92.125Z" stroke="#0D79D0"/>
<path d="M238.85 107.125C239.139 106.625 239.861 106.625 240.15 107.125C240.438 107.625 240.077 108.25 239.5 108.25C238.923 108.25 238.562 107.625 238.85 107.125Z" stroke="#0D79D0"/>
<path d="M238.85 122.125C239.139 121.625 239.861 121.625 240.15 122.125C240.438 122.625 240.077 123.25 239.5 123.25C238.923 123.25 238.562 122.625 238.85 122.125Z" stroke="#0D79D0"/>
<path d="M238.85 137.125C239.139 136.625 239.861 136.625 240.15 137.125C240.438 137.625 240.077 138.25 239.5 138.25C238.923 138.25 238.562 137.625 238.85 137.125Z" stroke="#0D79D0"/>
<path d="M238.85 152.125C239.139 151.625 239.861 151.625 240.15 152.125C240.438 152.625 240.077 153.25 239.5 153.25C238.923 153.25 238.562 152.625 238.85 152.125Z" stroke="#0D79D0"/>
<path d="M31.8505 77.125C32.1392 76.625 32.8608 76.625 33.1495 77.125C33.4382 77.625 33.0773 78.25 32.5 78.25C31.9227 78.25 31.5618 77.625 31.8505 77.125Z" stroke="#0D79D0"/>
<path d="M135.85 77.125C136.139 76.625 136.861 76.625 137.15 77.125C137.438 77.625 137.077 78.25 136.5 78.25C135.923 78.25 135.562 77.625 135.85 77.125Z" stroke="#0D79D0"/>
<path d="M31.8505 180.125C32.1392 179.625 32.8608 179.625 33.1495 180.125C33.4382 180.625 33.0773 181.25 32.5 181.25C31.9227 181.25 31.5618 180.625 31.8505 180.125Z" stroke="#0D79D0"/>
<path d="M135.85 182.125C136.139 181.625 136.861 181.625 137.15 182.125C137.438 182.625 137.077 183.25 136.5 183.25C135.923 183.25 135.562 182.625 135.85 182.125Z" stroke="#0D79D0"/>
<path d="M31.8505 286.125C32.1392 285.625 32.8608 285.625 33.1495 286.125C33.4382 286.625 33.0773 287.25 32.5 287.25C31.9227 287.25 31.5618 286.625 31.8505 286.125Z" stroke="#0D79D0"/>
<path d="M238.85 77.125C239.139 76.625 239.861 76.625 240.15 77.125C240.438 77.625 240.077 78.25 239.5 78.25C238.923 78.25 238.562 77.625 238.85 77.125Z" stroke="#0D79D0"/>
<path d="M16.8505 32.125C17.1392 31.625 17.8608 31.625 18.1495 32.125C18.4382 32.625 18.0773 33.25 17.5 33.25C16.9227 33.25 16.5618 32.625 16.8505 32.125Z" stroke="#0D79D0"/>
<path d="M120.85 32.125C121.139 31.625 121.861 31.625 122.15 32.125C122.438 32.625 122.077 33.25 121.5 33.25C120.923 33.25 120.562 32.625 120.85 32.125Z" stroke="#0D79D0"/>
<path d="M16.8505 135.125C17.1392 134.625 17.8608 134.625 18.1495 135.125C18.4382 135.625 18.0773 136.25 17.5 136.25C16.9227 136.25 16.5618 135.625 16.8505 135.125Z" stroke="#0D79D0"/>
<path d="M120.85 137.125C121.139 136.625 121.861 136.625 122.15 137.125C122.438 137.625 122.077 138.25 121.5 138.25C120.923 138.25 120.562 137.625 120.85 137.125Z" stroke="#0D79D0"/>
<path d="M16.8505 241.125C17.1392 240.625 17.8608 240.625 18.1495 241.125C18.4382 241.625 18.0773 242.25 17.5 242.25C16.9227 242.25 16.5618 241.625 16.8505 241.125Z" stroke="#0D79D0"/>
<path d="M223.85 32.125C224.139 31.625 224.861 31.625 225.15 32.125C225.438 32.625 225.077 33.25 224.5 33.25C223.923 33.25 223.562 32.625 223.85 32.125Z" stroke="#0D79D0"/>
<path d="M16.8505 47.125C17.1392 46.625 17.8608 46.625 18.1495 47.125C18.4382 47.625 18.0773 48.25 17.5 48.25C16.9227 48.25 16.5618 47.625 16.8505 47.125Z" stroke="#0D79D0"/>
<path d="M120.85 47.125C121.139 46.625 121.861 46.625 122.15 47.125C122.438 47.625 122.077 48.25 121.5 48.25C120.923 48.25 120.562 47.625 120.85 47.125Z" stroke="#0D79D0"/>
<path d="M16.8505 150.125C17.1392 149.625 17.8608 149.625 18.1495 150.125C18.4382 150.625 18.0773 151.25 17.5 151.25C16.9227 151.25 16.5618 150.625 16.8505 150.125Z" stroke="#0D79D0"/>
<path d="M120.85 152.125C121.139 151.625 121.861 151.625 122.15 152.125C122.438 152.625 122.077 153.25 121.5 153.25C120.923 153.25 120.562 152.625 120.85 152.125Z" stroke="#0D79D0"/>
<path d="M16.8505 256.125C17.1392 255.625 17.8608 255.625 18.1495 256.125C18.4382 256.625 18.0773 257.25 17.5 257.25C16.9227 257.25 16.5618 256.625 16.8505 256.125Z" stroke="#0D79D0"/>
<path d="M223.85 47.125C224.139 46.625 224.861 46.625 225.15 47.125C225.438 47.625 225.077 48.25 224.5 48.25C223.923 48.25 223.562 47.625 223.85 47.125Z" stroke="#0D79D0"/>
<path d="M16.8505 62.125C17.1392 61.625 17.8608 61.625 18.1495 62.125C18.4382 62.625 18.0773 63.25 17.5 63.25C16.9227 63.25 16.5618 62.625 16.8505 62.125Z" stroke="#0D79D0"/>
<path d="M120.85 62.125C121.139 61.625 121.861 61.625 122.15 62.125C122.438 62.625 122.077 63.25 121.5 63.25C120.923 63.25 120.562 62.625 120.85 62.125Z" stroke="#0D79D0"/>
<path d="M16.8505 165.125C17.1392 164.625 17.8608 164.625 18.1495 165.125C18.4382 165.625 18.0773 166.25 17.5 166.25C16.9227 166.25 16.5618 165.625 16.8505 165.125Z" stroke="#0D79D0"/>
<path d="M120.85 167.125C121.139 166.625 121.861 166.625 122.15 167.125C122.438 167.625 122.077 168.25 121.5 168.25C120.923 168.25 120.562 167.625 120.85 167.125Z" stroke="#0D79D0"/>
<path d="M16.8505 271.125C17.1392 270.625 17.8608 270.625 18.1495 271.125C18.4382 271.625 18.0773 272.25 17.5 272.25C16.9227 272.25 16.5618 271.625 16.8505 271.125Z" stroke="#0D79D0"/>
<path d="M223.85 62.125C224.139 61.625 224.861 61.625 225.15 62.125C225.438 62.625 225.077 63.25 224.5 63.25C223.923 63.25 223.562 62.625 223.85 62.125Z" stroke="#0D79D0"/>
<path d="M16.8505 77.125C17.1392 76.625 17.8608 76.625 18.1495 77.125C18.4382 77.625 18.0773 78.25 17.5 78.25C16.9227 78.25 16.5618 77.625 16.8505 77.125Z" stroke="#0D79D0"/>
<path d="M120.85 77.125C121.139 76.625 121.861 76.625 122.15 77.125C122.438 77.625 122.077 78.25 121.5 78.25C120.923 78.25 120.562 77.625 120.85 77.125Z" stroke="#0D79D0"/>
<path d="M16.8505 180.125C17.1392 179.625 17.8608 179.625 18.1495 180.125C18.4382 180.625 18.0773 181.25 17.5 181.25C16.9227 181.25 16.5618 180.625 16.8505 180.125Z" stroke="#0D79D0"/>
<path d="M120.85 182.125C121.139 181.625 121.861 181.625 122.15 182.125C122.438 182.625 122.077 183.25 121.5 183.25C120.923 183.25 120.562 182.625 120.85 182.125Z" stroke="#0D79D0"/>
<path d="M16.8505 286.125C17.1392 285.625 17.8608 285.625 18.1495 286.125C18.4382 286.625 18.0773 287.25 17.5 287.25C16.9227 287.25 16.5618 286.625 16.8505 286.125Z" stroke="#0D79D0"/>
<path d="M223.85 77.125C224.139 76.625 224.861 76.625 225.15 77.125C225.438 77.625 225.077 78.25 224.5 78.25C223.923 78.25 223.562 77.625 223.85 77.125Z" stroke="#0D79D0"/>
<path d="M16.8505 92.125C17.1392 91.625 17.8608 91.625 18.1495 92.125C18.4382 92.625 18.0773 93.25 17.5 93.25C16.9227 93.25 16.5618 92.625 16.8505 92.125Z" stroke="#0D79D0"/>
<path d="M120.85 92.125C121.139 91.625 121.861 91.625 122.15 92.125C122.438 92.625 122.077 93.25 121.5 93.25C120.923 93.25 120.562 92.625 120.85 92.125Z" stroke="#0D79D0"/>
<path d="M16.8505 195.125C17.1392 194.625 17.8608 194.625 18.1495 195.125C18.4382 195.625 18.0773 196.25 17.5 196.25C16.9227 196.25 16.5618 195.625 16.8505 195.125Z" stroke="#0D79D0"/>
<path d="M120.85 197.125C121.139 196.625 121.861 196.625 122.15 197.125C122.438 197.625 122.077 198.25 121.5 198.25C120.923 198.25 120.562 197.625 120.85 197.125Z" stroke="#0D79D0"/>
<path d="M120.85 211.125C121.139 210.625 121.861 210.625 122.15 211.125C122.438 211.625 122.077 212.25 121.5 212.25C120.923 212.25 120.562 211.625 120.85 211.125Z" stroke="#0D79D0"/>
<path d="M120.85 225.125C121.139 224.625 121.861 224.625 122.15 225.125C122.438 225.625 122.077 226.25 121.5 226.25C120.923 226.25 120.562 225.625 120.85 225.125Z" stroke="#0D79D0"/>
<path d="M120.85 239.125C121.139 238.625 121.861 238.625 122.15 239.125C122.438 239.625 122.077 240.25 121.5 240.25C120.923 240.25 120.562 239.625 120.85 239.125Z" stroke="#0D79D0"/>
<path d="M120.85 253.125C121.139 252.625 121.861 252.625 122.15 253.125C122.438 253.625 122.077 254.25 121.5 254.25C120.923 254.25 120.562 253.625 120.85 253.125Z" stroke="#0D79D0"/>
<path d="M16.8505 301.125C17.1392 300.625 17.8608 300.625 18.1495 301.125C18.4382 301.625 18.0773 302.25 17.5 302.25C16.9227 302.25 16.5618 301.625 16.8505 301.125Z" stroke="#0D79D0"/>
<path d="M223.85 92.125C224.139 91.625 224.861 91.625 225.15 92.125C225.438 92.625 225.077 93.25 224.5 93.25C223.923 93.25 223.562 92.625 223.85 92.125Z" stroke="#0D79D0"/>
<path d="M223.85 107.125C224.139 106.625 224.861 106.625 225.15 107.125C225.438 107.625 225.077 108.25 224.5 108.25C223.923 108.25 223.562 107.625 223.85 107.125Z" stroke="#0D79D0"/>
<path d="M223.85 122.125C224.139 121.625 224.861 121.625 225.15 122.125C225.438 122.625 225.077 123.25 224.5 123.25C223.923 123.25 223.562 122.625 223.85 122.125Z" stroke="#0D79D0"/>
<path d="M223.85 137.125C224.139 136.625 224.861 136.625 225.15 137.125C225.438 137.625 225.077 138.25 224.5 138.25C223.923 138.25 223.562 137.625 223.85 137.125Z" stroke="#0D79D0"/>
<path d="M223.85 152.125C224.139 151.625 224.861 151.625 225.15 152.125C225.438 152.625 225.077 153.25 224.5 153.25C223.923 153.25 223.562 152.625 223.85 152.125Z" stroke="#0D79D0"/>
<path d="M46.8505 92.125C47.1392 91.625 47.8608 91.625 48.1495 92.125C48.4382 92.625 48.0773 93.25 47.5 93.25C46.9227 93.25 46.5618 92.625 46.8505 92.125Z" stroke="#0D79D0"/>
<path d="M150.85 92.125C151.139 91.625 151.861 91.625 152.15 92.125C152.438 92.625 152.077 93.25 151.5 93.25C150.923 93.25 150.562 92.625 150.85 92.125Z" stroke="#0D79D0"/>
<path d="M46.8505 195.125C47.1392 194.625 47.8608 194.625 48.1495 195.125C48.4382 195.625 48.0773 196.25 47.5 196.25C46.9227 196.25 46.5618 195.625 46.8505 195.125Z" stroke="#0D79D0"/>
<path d="M150.85 197.125C151.139 196.625 151.861 196.625 152.15 197.125C152.438 197.625 152.077 198.25 151.5 198.25C150.923 198.25 150.562 197.625 150.85 197.125Z" stroke="#0D79D0"/>
<path d="M150.85 211.125C151.139 210.625 151.861 210.625 152.15 211.125C152.438 211.625 152.077 212.25 151.5 212.25C150.923 212.25 150.562 211.625 150.85 211.125Z" stroke="#0D79D0"/>
<path d="M150.85 225.125C151.139 224.625 151.861 224.625 152.15 225.125C152.438 225.625 152.077 226.25 151.5 226.25C150.923 226.25 150.562 225.625 150.85 225.125Z" stroke="#0D79D0"/>
<path d="M150.85 239.125C151.139 238.625 151.861 238.625 152.15 239.125C152.438 239.625 152.077 240.25 151.5 240.25C150.923 240.25 150.562 239.625 150.85 239.125Z" stroke="#0D79D0"/>
<path d="M150.85 253.125C151.139 252.625 151.861 252.625 152.15 253.125C152.438 253.625 152.077 254.25 151.5 254.25C150.923 254.25 150.562 253.625 150.85 253.125Z" stroke="#0D79D0"/>
<path d="M46.8505 301.125C47.1392 300.625 47.8608 300.625 48.1495 301.125C48.4382 301.625 48.0773 302.25 47.5 302.25C46.9227 302.25 46.5618 301.625 46.8505 301.125Z" stroke="#0D79D0"/>
<path d="M253.85 92.125C254.139 91.625 254.861 91.625 255.15 92.125C255.438 92.625 255.077 93.25 254.5 93.25C253.923 93.25 253.562 92.625 253.85 92.125Z" stroke="#0D79D0"/>
<path d="M46.8505 77.125C47.1392 76.625 47.8608 76.625 48.1495 77.125C48.4382 77.625 48.0773 78.25 47.5 78.25C46.9227 78.25 46.5618 77.625 46.8505 77.125Z" stroke="#0D79D0"/>
<path d="M150.85 77.125C151.139 76.625 151.861 76.625 152.15 77.125C152.438 77.625 152.077 78.25 151.5 78.25C150.923 78.25 150.562 77.625 150.85 77.125Z" stroke="#0D79D0"/>
<path d="M46.8505 180.125C47.1392 179.625 47.8608 179.625 48.1495 180.125C48.4382 180.625 48.0773 181.25 47.5 181.25C46.9227 181.25 46.5618 180.625 46.8505 180.125Z" stroke="#0D79D0"/>
<path d="M150.85 182.125C151.139 181.625 151.861 181.625 152.15 182.125C152.438 182.625 152.077 183.25 151.5 183.25C150.923 183.25 150.562 182.625 150.85 182.125Z" stroke="#0D79D0"/>
<path d="M46.8505 286.125C47.1392 285.625 47.8608 285.625 48.1495 286.125C48.4382 286.625 48.0773 287.25 47.5 287.25C46.9227 287.25 46.5618 286.625 46.8505 286.125Z" stroke="#0D79D0"/>
<path d="M253.85 77.125C254.139 76.625 254.861 76.625 255.15 77.125C255.438 77.625 255.077 78.25 254.5 78.25C253.923 78.25 253.562 77.625 253.85 77.125Z" stroke="#0D79D0"/>
<path d="M31.8505 32.125C32.1392 31.625 32.8608 31.625 33.1495 32.125C33.4382 32.625 33.0773 33.25 32.5 33.25C31.9227 33.25 31.5618 32.625 31.8505 32.125Z" stroke="#0D79D0"/>
<path d="M135.85 32.125C136.139 31.625 136.861 31.625 137.15 32.125C137.438 32.625 137.077 33.25 136.5 33.25C135.923 33.25 135.562 32.625 135.85 32.125Z" stroke="#0D79D0"/>
<path d="M31.8505 135.125C32.1392 134.625 32.8608 134.625 33.1495 135.125C33.4382 135.625 33.0773 136.25 32.5 136.25C31.9227 136.25 31.5618 135.625 31.8505 135.125Z" stroke="#0D79D0"/>
<path d="M135.85 137.125C136.139 136.625 136.861 136.625 137.15 137.125C137.438 137.625 137.077 138.25 136.5 138.25C135.923 138.25 135.562 137.625 135.85 137.125Z" stroke="#0D79D0"/>
<path d="M31.8505 241.125C32.1392 240.625 32.8608 240.625 33.1495 241.125C33.4382 241.625 33.0773 242.25 32.5 242.25C31.9227 242.25 31.5618 241.625 31.8505 241.125Z" stroke="#0D79D0"/>
<path d="M238.85 32.125C239.139 31.625 239.861 31.625 240.15 32.125C240.438 32.625 240.077 33.25 239.5 33.25C238.923 33.25 238.562 32.625 238.85 32.125Z" stroke="#0D79D0"/>
<path d="M46.8505 32.125C47.1392 31.625 47.8608 31.625 48.1495 32.125C48.4382 32.625 48.0773 33.25 47.5 33.25C46.9227 33.25 46.5618 32.625 46.8505 32.125Z" stroke="#0D79D0"/>
<path d="M150.85 32.125C151.139 31.625 151.861 31.625 152.15 32.125C152.438 32.625 152.077 33.25 151.5 33.25C150.923 33.25 150.562 32.625 150.85 32.125Z" stroke="#0D79D0"/>
<path d="M46.8505 135.125C47.1392 134.625 47.8608 134.625 48.1495 135.125C48.4382 135.625 48.0773 136.25 47.5 136.25C46.9227 136.25 46.5618 135.625 46.8505 135.125Z" stroke="#0D79D0"/>
<path d="M150.85 137.125C151.139 136.625 151.861 136.625 152.15 137.125C152.438 137.625 152.077 138.25 151.5 138.25C150.923 138.25 150.562 137.625 150.85 137.125Z" stroke="#0D79D0"/>
<path d="M46.8505 241.125C47.1392 240.625 47.8608 240.625 48.1495 241.125C48.4382 241.625 48.0773 242.25 47.5 242.25C46.9227 242.25 46.5618 241.625 46.8505 241.125Z" stroke="#0D79D0"/>
<path d="M253.85 32.125C254.139 31.625 254.861 31.625 255.15 32.125C255.438 32.625 255.077 33.25 254.5 33.25C253.923 33.25 253.562 32.625 253.85 32.125Z" stroke="#0D79D0"/>
<path d="M61.8505 32.125C62.1392 31.625 62.8608 31.625 63.1495 32.125C63.4382 32.625 63.0773 33.25 62.5 33.25C61.9227 33.25 61.5618 32.625 61.8505 32.125Z" stroke="#0D79D0"/>
<path d="M165.85 32.125C166.139 31.625 166.861 31.625 167.15 32.125C167.438 32.625 167.077 33.25 166.5 33.25C165.923 33.25 165.562 32.625 165.85 32.125Z" stroke="#0D79D0"/>
<path d="M61.8505 135.125C62.1392 134.625 62.8608 134.625 63.1495 135.125C63.4382 135.625 63.0773 136.25 62.5 136.25C61.9227 136.25 61.5618 135.625 61.8505 135.125Z" stroke="#0D79D0"/>
<path d="M165.85 137.125C166.139 136.625 166.861 136.625 167.15 137.125C167.438 137.625 167.077 138.25 166.5 138.25C165.923 138.25 165.562 137.625 165.85 137.125Z" stroke="#0D79D0"/>
<path d="M61.8505 241.125C62.1392 240.625 62.8608 240.625 63.1495 241.125C63.4382 241.625 63.0773 242.25 62.5 242.25C61.9227 242.25 61.5618 241.625 61.8505 241.125Z" stroke="#0D79D0"/>
<path d="M268.85 32.125C269.139 31.625 269.861 31.625 270.15 32.125C270.438 32.625 270.077 33.25 269.5 33.25C268.923 33.25 268.562 32.625 268.85 32.125Z" stroke="#0D79D0"/>
<path d="M76.8505 32.125C77.1392 31.625 77.8608 31.625 78.1495 32.125C78.4382 32.625 78.0773 33.25 77.5 33.25C76.9227 33.25 76.5618 32.625 76.8505 32.125Z" stroke="#0D79D0"/>
<path d="M180.85 32.125C181.139 31.625 181.861 31.625 182.15 32.125C182.438 32.625 182.077 33.25 181.5 33.25C180.923 33.25 180.562 32.625 180.85 32.125Z" stroke="#0D79D0"/>
<path d="M76.8505 135.125C77.1392 134.625 77.8608 134.625 78.1495 135.125C78.4382 135.625 78.0773 136.25 77.5 136.25C76.9227 136.25 76.5618 135.625 76.8505 135.125Z" stroke="#0D79D0"/>
<path d="M180.85 137.125C181.139 136.625 181.861 136.625 182.15 137.125C182.438 137.625 182.077 138.25 181.5 138.25C180.923 138.25 180.562 137.625 180.85 137.125Z" stroke="#0D79D0"/>
<path d="M76.8505 241.125C77.1392 240.625 77.8608 240.625 78.1495 241.125C78.4382 241.625 78.0773 242.25 77.5 242.25C76.9227 242.25 76.5618 241.625 76.8505 241.125Z" stroke="#0D79D0"/>
<path d="M283.85 32.125C284.139 31.625 284.861 31.625 285.15 32.125C285.438 32.625 285.077 33.25 284.5 33.25C283.923 33.25 283.562 32.625 283.85 32.125Z" stroke="#0D79D0"/>
<path d="M91.8505 32.125C92.1392 31.625 92.8608 31.625 93.1495 32.125C93.4382 32.625 93.0773 33.25 92.5 33.25C91.9227 33.25 91.5618 32.625 91.8505 32.125Z" stroke="#0D79D0"/>
<path d="M195.85 32.125C196.139 31.625 196.861 31.625 197.15 32.125C197.438 32.625 197.077 33.25 196.5 33.25C195.923 33.25 195.562 32.625 195.85 32.125Z" stroke="#0D79D0"/>
<path d="M91.8505 135.125C92.1392 134.625 92.8608 134.625 93.1495 135.125C93.4382 135.625 93.0773 136.25 92.5 136.25C91.9227 136.25 91.5618 135.625 91.8505 135.125Z" stroke="#0D79D0"/>
<path d="M195.85 137.125C196.139 136.625 196.861 136.625 197.15 137.125C197.438 137.625 197.077 138.25 196.5 138.25C195.923 138.25 195.562 137.625 195.85 137.125Z" stroke="#0D79D0"/>
<path d="M91.8505 241.125C92.1392 240.625 92.8608 240.625 93.1495 241.125C93.4382 241.625 93.0773 242.25 92.5 242.25C91.9227 242.25 91.5618 241.625 91.8505 241.125Z" stroke="#0D79D0"/>
<path d="M298.85 32.125C299.139 31.625 299.861 31.625 300.15 32.125C300.438 32.625 300.077 33.25 299.5 33.25C298.923 33.25 298.562 32.625 298.85 32.125Z" stroke="#0D79D0"/>
<path d="M61.8505 47.125C62.1392 46.625 62.8608 46.625 63.1495 47.125C63.4382 47.625 63.0773 48.25 62.5 48.25C61.9227 48.25 61.5618 47.625 61.8505 47.125Z" stroke="#0D79D0"/>
<path d="M165.85 47.125C166.139 46.625 166.861 46.625 167.15 47.125C167.438 47.625 167.077 48.25 166.5 48.25C165.923 48.25 165.562 47.625 165.85 47.125Z" stroke="#0D79D0"/>
<path d="M61.8505 150.125C62.1392 149.625 62.8608 149.625 63.1495 150.125C63.4382 150.625 63.0773 151.25 62.5 151.25C61.9227 151.25 61.5618 150.625 61.8505 150.125Z" stroke="#0D79D0"/>
<path d="M165.85 152.125C166.139 151.625 166.861 151.625 167.15 152.125C167.438 152.625 167.077 153.25 166.5 153.25C165.923 153.25 165.562 152.625 165.85 152.125Z" stroke="#0D79D0"/>
<path d="M61.8505 256.125C62.1392 255.625 62.8608 255.625 63.1495 256.125C63.4382 256.625 63.0773 257.25 62.5 257.25C61.9227 257.25 61.5618 256.625 61.8505 256.125Z" stroke="#0D79D0"/>
<path d="M268.85 47.125C269.139 46.625 269.861 46.625 270.15 47.125C270.438 47.625 270.077 48.25 269.5 48.25C268.923 48.25 268.562 47.625 268.85 47.125Z" stroke="#0D79D0"/>
<path d="M76.8505 47.125C77.1392 46.625 77.8608 46.625 78.1495 47.125C78.4382 47.625 78.0773 48.25 77.5 48.25C76.9227 48.25 76.5618 47.625 76.8505 47.125Z" stroke="#0D79D0"/>
<path d="M180.85 47.125C181.139 46.625 181.861 46.625 182.15 47.125C182.438 47.625 182.077 48.25 181.5 48.25C180.923 48.25 180.562 47.625 180.85 47.125Z" stroke="#0D79D0"/>
<path d="M76.8505 150.125C77.1392 149.625 77.8608 149.625 78.1495 150.125C78.4382 150.625 78.0773 151.25 77.5 151.25C76.9227 151.25 76.5618 150.625 76.8505 150.125Z" stroke="#0D79D0"/>
<path d="M180.85 152.125C181.139 151.625 181.861 151.625 182.15 152.125C182.438 152.625 182.077 153.25 181.5 153.25C180.923 153.25 180.562 152.625 180.85 152.125Z" stroke="#0D79D0"/>
<path d="M76.8505 256.125C77.1392 255.625 77.8608 255.625 78.1495 256.125C78.4382 256.625 78.0773 257.25 77.5 257.25C76.9227 257.25 76.5618 256.625 76.8505 256.125Z" stroke="#0D79D0"/>
<path d="M283.85 47.125C284.139 46.625 284.861 46.625 285.15 47.125C285.438 47.625 285.077 48.25 284.5 48.25C283.923 48.25 283.562 47.625 283.85 47.125Z" stroke="#0D79D0"/>
<path d="M91.8505 47.125C92.1392 46.625 92.8608 46.625 93.1495 47.125C93.4382 47.625 93.0773 48.25 92.5 48.25C91.9227 48.25 91.5618 47.625 91.8505 47.125Z" stroke="#0D79D0"/>
<path d="M195.85 47.125C196.139 46.625 196.861 46.625 197.15 47.125C197.438 47.625 197.077 48.25 196.5 48.25C195.923 48.25 195.562 47.625 195.85 47.125Z" stroke="#0D79D0"/>
<path d="M91.8505 150.125C92.1392 149.625 92.8608 149.625 93.1495 150.125C93.4382 150.625 93.0773 151.25 92.5 151.25C91.9227 151.25 91.5618 150.625 91.8505 150.125Z" stroke="#0D79D0"/>
<path d="M195.85 152.125C196.139 151.625 196.861 151.625 197.15 152.125C197.438 152.625 197.077 153.25 196.5 153.25C195.923 153.25 195.562 152.625 195.85 152.125Z" stroke="#0D79D0"/>
<path d="M91.8505 256.125C92.1392 255.625 92.8608 255.625 93.1495 256.125C93.4382 256.625 93.0773 257.25 92.5 257.25C91.9227 257.25 91.5618 256.625 91.8505 256.125Z" stroke="#0D79D0"/>
<path d="M298.85 47.125C299.139 46.625 299.861 46.625 300.15 47.125C300.438 47.625 300.077 48.25 299.5 48.25C298.923 48.25 298.562 47.625 298.85 47.125Z" stroke="#0D79D0"/>
<path d="M61.8505 62.125C62.1392 61.625 62.8608 61.625 63.1495 62.125C63.4382 62.625 63.0773 63.25 62.5 63.25C61.9227 63.25 61.5618 62.625 61.8505 62.125Z" stroke="#0D79D0"/>
<path d="M165.85 62.125C166.139 61.625 166.861 61.625 167.15 62.125C167.438 62.625 167.077 63.25 166.5 63.25C165.923 63.25 165.562 62.625 165.85 62.125Z" stroke="#0D79D0"/>
<path d="M61.8505 165.125C62.1392 164.625 62.8608 164.625 63.1495 165.125C63.4382 165.625 63.0773 166.25 62.5 166.25C61.9227 166.25 61.5618 165.625 61.8505 165.125Z" stroke="#0D79D0"/>
<path d="M165.85 167.125C166.139 166.625 166.861 166.625 167.15 167.125C167.438 167.625 167.077 168.25 166.5 168.25C165.923 168.25 165.562 167.625 165.85 167.125Z" stroke="#0D79D0"/>
<path d="M61.8505 271.125C62.1392 270.625 62.8608 270.625 63.1495 271.125C63.4382 271.625 63.0773 272.25 62.5 272.25C61.9227 272.25 61.5618 271.625 61.8505 271.125Z" stroke="#0D79D0"/>
<path d="M268.85 62.125C269.139 61.625 269.861 61.625 270.15 62.125C270.438 62.625 270.077 63.25 269.5 63.25C268.923 63.25 268.562 62.625 268.85 62.125Z" stroke="#0D79D0"/>
<path d="M76.8505 62.125C77.1392 61.625 77.8608 61.625 78.1495 62.125C78.4382 62.625 78.0773 63.25 77.5 63.25C76.9227 63.25 76.5618 62.625 76.8505 62.125Z" stroke="#0D79D0"/>
<path d="M180.85 62.125C181.139 61.625 181.861 61.625 182.15 62.125C182.438 62.625 182.077 63.25 181.5 63.25C180.923 63.25 180.562 62.625 180.85 62.125Z" stroke="#0D79D0"/>
<path d="M76.8505 165.125C77.1392 164.625 77.8608 164.625 78.1495 165.125C78.4382 165.625 78.0773 166.25 77.5 166.25C76.9227 166.25 76.5618 165.625 76.8505 165.125Z" stroke="#0D79D0"/>
<path d="M180.85 167.125C181.139 166.625 181.861 166.625 182.15 167.125C182.438 167.625 182.077 168.25 181.5 168.25C180.923 168.25 180.562 167.625 180.85 167.125Z" stroke="#0D79D0"/>
<path d="M76.8505 271.125C77.1392 270.625 77.8608 270.625 78.1495 271.125C78.4382 271.625 78.0773 272.25 77.5 272.25C76.9227 272.25 76.5618 271.625 76.8505 271.125Z" stroke="#0D79D0"/>
<path d="M283.85 62.125C284.139 61.625 284.861 61.625 285.15 62.125C285.438 62.625 285.077 63.25 284.5 63.25C283.923 63.25 283.562 62.625 283.85 62.125Z" stroke="#0D79D0"/>
<path d="M91.8505 62.125C92.1392 61.625 92.8608 61.625 93.1495 62.125C93.4382 62.625 93.0773 63.25 92.5 63.25C91.9227 63.25 91.5618 62.625 91.8505 62.125Z" stroke="#0D79D0"/>
<path d="M195.85 62.125C196.139 61.625 196.861 61.625 197.15 62.125C197.438 62.625 197.077 63.25 196.5 63.25C195.923 63.25 195.562 62.625 195.85 62.125Z" stroke="#0D79D0"/>
<path d="M91.8505 165.125C92.1392 164.625 92.8608 164.625 93.1495 165.125C93.4382 165.625 93.0773 166.25 92.5 166.25C91.9227 166.25 91.5618 165.625 91.8505 165.125Z" stroke="#0D79D0"/>
<path d="M195.85 167.125C196.139 166.625 196.861 166.625 197.15 167.125C197.438 167.625 197.077 168.25 196.5 168.25C195.923 168.25 195.562 167.625 195.85 167.125Z" stroke="#0D79D0"/>
<path d="M91.8505 271.125C92.1392 270.625 92.8608 270.625 93.1495 271.125C93.4382 271.625 93.0773 272.25 92.5 272.25C91.9227 272.25 91.5618 271.625 91.8505 271.125Z" stroke="#0D79D0"/>
<path d="M298.85 62.125C299.139 61.625 299.861 61.625 300.15 62.125C300.438 62.625 300.077 63.25 299.5 63.25C298.923 63.25 298.562 62.625 298.85 62.125Z" stroke="#0D79D0"/>
<path d="M61.8505 77.125C62.1392 76.625 62.8608 76.625 63.1495 77.125C63.4382 77.625 63.0773 78.25 62.5 78.25C61.9227 78.25 61.5618 77.625 61.8505 77.125Z" stroke="#0D79D0"/>
<path d="M165.85 77.125C166.139 76.625 166.861 76.625 167.15 77.125C167.438 77.625 167.077 78.25 166.5 78.25C165.923 78.25 165.562 77.625 165.85 77.125Z" stroke="#0D79D0"/>
<path d="M61.8505 180.125C62.1392 179.625 62.8608 179.625 63.1495 180.125C63.4382 180.625 63.0773 181.25 62.5 181.25C61.9227 181.25 61.5618 180.625 61.8505 180.125Z" stroke="#0D79D0"/>
<path d="M165.85 182.125C166.139 181.625 166.861 181.625 167.15 182.125C167.438 182.625 167.077 183.25 166.5 183.25C165.923 183.25 165.562 182.625 165.85 182.125Z" stroke="#0D79D0"/>
<path d="M61.8505 286.125C62.1392 285.625 62.8608 285.625 63.1495 286.125C63.4382 286.625 63.0773 287.25 62.5 287.25C61.9227 287.25 61.5618 286.625 61.8505 286.125Z" stroke="#0D79D0"/>
<path d="M268.85 77.125C269.139 76.625 269.861 76.625 270.15 77.125C270.438 77.625 270.077 78.25 269.5 78.25C268.923 78.25 268.562 77.625 268.85 77.125Z" stroke="#0D79D0"/>
<path d="M76.8505 77.125C77.1392 76.625 77.8608 76.625 78.1495 77.125C78.4382 77.625 78.0773 78.25 77.5 78.25C76.9227 78.25 76.5618 77.625 76.8505 77.125Z" stroke="#0D79D0"/>
<path d="M180.85 77.125C181.139 76.625 181.861 76.625 182.15 77.125C182.438 77.625 182.077 78.25 181.5 78.25C180.923 78.25 180.562 77.625 180.85 77.125Z" stroke="#0D79D0"/>
<path d="M76.8505 180.125C77.1392 179.625 77.8608 179.625 78.1495 180.125C78.4382 180.625 78.0773 181.25 77.5 181.25C76.9227 181.25 76.5618 180.625 76.8505 180.125Z" stroke="#0D79D0"/>
<path d="M180.85 182.125C181.139 181.625 181.861 181.625 182.15 182.125C182.438 182.625 182.077 183.25 181.5 183.25C180.923 183.25 180.562 182.625 180.85 182.125Z" stroke="#0D79D0"/>
<path d="M76.8505 286.125C77.1392 285.625 77.8608 285.625 78.1495 286.125C78.4382 286.625 78.0773 287.25 77.5 287.25C76.9227 287.25 76.5618 286.625 76.8505 286.125Z" stroke="#0D79D0"/>
<path d="M283.85 77.125C284.139 76.625 284.861 76.625 285.15 77.125C285.438 77.625 285.077 78.25 284.5 78.25C283.923 78.25 283.562 77.625 283.85 77.125Z" stroke="#0D79D0"/>
<path d="M91.8505 77.125C92.1392 76.625 92.8608 76.625 93.1495 77.125C93.4382 77.625 93.0773 78.25 92.5 78.25C91.9227 78.25 91.5618 77.625 91.8505 77.125Z" stroke="#0D79D0"/>
<path d="M195.85 77.125C196.139 76.625 196.861 76.625 197.15 77.125C197.438 77.625 197.077 78.25 196.5 78.25C195.923 78.25 195.562 77.625 195.85 77.125Z" stroke="#0D79D0"/>
<path d="M91.8505 180.125C92.1392 179.625 92.8608 179.625 93.1495 180.125C93.4382 180.625 93.0773 181.25 92.5 181.25C91.9227 181.25 91.5618 180.625 91.8505 180.125Z" stroke="#0D79D0"/>
<path d="M195.85 182.125C196.139 181.625 196.861 181.625 197.15 182.125C197.438 182.625 197.077 183.25 196.5 183.25C195.923 183.25 195.562 182.625 195.85 182.125Z" stroke="#0D79D0"/>
<path d="M91.8505 286.125C92.1392 285.625 92.8608 285.625 93.1495 286.125C93.4382 286.625 93.0773 287.25 92.5 287.25C91.9227 287.25 91.5618 286.625 91.8505 286.125Z" stroke="#0D79D0"/>
<path d="M298.85 77.125C299.139 76.625 299.861 76.625 300.15 77.125C300.438 77.625 300.077 78.25 299.5 78.25C298.923 78.25 298.562 77.625 298.85 77.125Z" stroke="#0D79D0"/>
<path d="M61.8505 92.125C62.1392 91.625 62.8608 91.625 63.1495 92.125C63.4382 92.625 63.0773 93.25 62.5 93.25C61.9227 93.25 61.5618 92.625 61.8505 92.125Z" stroke="#0D79D0"/>
<path d="M165.85 92.125C166.139 91.625 166.861 91.625 167.15 92.125C167.438 92.625 167.077 93.25 166.5 93.25C165.923 93.25 165.562 92.625 165.85 92.125Z" stroke="#0D79D0"/>
<path d="M61.8505 195.125C62.1392 194.625 62.8608 194.625 63.1495 195.125C63.4382 195.625 63.0773 196.25 62.5 196.25C61.9227 196.25 61.5618 195.625 61.8505 195.125Z" stroke="#0D79D0"/>
<path d="M165.85 197.125C166.139 196.625 166.861 196.625 167.15 197.125C167.438 197.625 167.077 198.25 166.5 198.25C165.923 198.25 165.562 197.625 165.85 197.125Z" stroke="#0D79D0"/>
<path d="M61.8505 301.125C62.1392 300.625 62.8608 300.625 63.1495 301.125C63.4382 301.625 63.0773 302.25 62.5 302.25C61.9227 302.25 61.5618 301.625 61.8505 301.125Z" stroke="#0D79D0"/>
<path d="M268.85 92.125C269.139 91.625 269.861 91.625 270.15 92.125C270.438 92.625 270.077 93.25 269.5 93.25C268.923 93.25 268.562 92.625 268.85 92.125Z" stroke="#0D79D0"/>
<path d="M76.8505 92.125C77.1392 91.625 77.8608 91.625 78.1495 92.125C78.4382 92.625 78.0773 93.25 77.5 93.25C76.9227 93.25 76.5618 92.625 76.8505 92.125Z" stroke="#0D79D0"/>
<path d="M180.85 92.125C181.139 91.625 181.861 91.625 182.15 92.125C182.438 92.625 182.077 93.25 181.5 93.25C180.923 93.25 180.562 92.625 180.85 92.125Z" stroke="#0D79D0"/>
<path d="M76.8505 195.125C77.1392 194.625 77.8608 194.625 78.1495 195.125C78.4382 195.625 78.0773 196.25 77.5 196.25C76.9227 196.25 76.5618 195.625 76.8505 195.125Z" stroke="#0D79D0"/>
<path d="M180.85 197.125C181.139 196.625 181.861 196.625 182.15 197.125C182.438 197.625 182.077 198.25 181.5 198.25C180.923 198.25 180.562 197.625 180.85 197.125Z" stroke="#0D79D0"/>
<path d="M76.8505 301.125C77.1392 300.625 77.8608 300.625 78.1495 301.125C78.4382 301.625 78.0773 302.25 77.5 302.25C76.9227 302.25 76.5618 301.625 76.8505 301.125Z" stroke="#0D79D0"/>
<path d="M283.85 92.125C284.139 91.625 284.861 91.625 285.15 92.125C285.438 92.625 285.077 93.25 284.5 93.25C283.923 93.25 283.562 92.625 283.85 92.125Z" stroke="#0D79D0"/>
<path d="M91.8505 92.125C92.1392 91.625 92.8608 91.625 93.1495 92.125C93.4382 92.625 93.0773 93.25 92.5 93.25C91.9227 93.25 91.5618 92.625 91.8505 92.125Z" stroke="#0D79D0"/>
<path d="M195.85 92.125C196.139 91.625 196.861 91.625 197.15 92.125C197.438 92.625 197.077 93.25 196.5 93.25C195.923 93.25 195.562 92.625 195.85 92.125Z" stroke="#0D79D0"/>
<path d="M91.8505 195.125C92.1392 194.625 92.8608 194.625 93.1495 195.125C93.4382 195.625 93.0773 196.25 92.5 196.25C91.9227 196.25 91.5618 195.625 91.8505 195.125Z" stroke="#0D79D0"/>
<path d="M195.85 197.125C196.139 196.625 196.861 196.625 197.15 197.125C197.438 197.625 197.077 198.25 196.5 198.25C195.923 198.25 195.562 197.625 195.85 197.125Z" stroke="#0D79D0"/>
<path d="M91.8505 301.125C92.1392 300.625 92.8608 300.625 93.1495 301.125C93.4382 301.625 93.0773 302.25 92.5 302.25C91.9227 302.25 91.5618 301.625 91.8505 301.125Z" stroke="#0D79D0"/>
<path d="M298.85 92.125C299.139 91.625 299.861 91.625 300.15 92.125C300.438 92.625 300.077 93.25 299.5 93.25C298.923 93.25 298.562 92.625 298.85 92.125Z" stroke="#0D79D0"/>
<path d="M46.8505 47.125C47.1392 46.625 47.8608 46.625 48.1495 47.125C48.4382 47.625 48.0773 48.25 47.5 48.25C46.9227 48.25 46.5618 47.625 46.8505 47.125Z" stroke="#0D79D0"/>
<path d="M150.85 47.125C151.139 46.625 151.861 46.625 152.15 47.125C152.438 47.625 152.077 48.25 151.5 48.25C150.923 48.25 150.562 47.625 150.85 47.125Z" stroke="#0D79D0"/>
<path d="M46.8505 150.125C47.1392 149.625 47.8608 149.625 48.1495 150.125C48.4382 150.625 48.0773 151.25 47.5 151.25C46.9227 151.25 46.5618 150.625 46.8505 150.125Z" stroke="#0D79D0"/>
<path d="M150.85 152.125C151.139 151.625 151.861 151.625 152.15 152.125C152.438 152.625 152.077 153.25 151.5 153.25C150.923 153.25 150.562 152.625 150.85 152.125Z" stroke="#0D79D0"/>
<path d="M46.8505 256.125C47.1392 255.625 47.8608 255.625 48.1495 256.125C48.4382 256.625 48.0773 257.25 47.5 257.25C46.9227 257.25 46.5618 256.625 46.8505 256.125Z" stroke="#0D79D0"/>
<path d="M253.85 47.125C254.139 46.625 254.861 46.625 255.15 47.125C255.438 47.625 255.077 48.25 254.5 48.25C253.923 48.25 253.562 47.625 253.85 47.125Z" stroke="#0D79D0"/>
<path d="M46.8505 62.125C47.1392 61.625 47.8608 61.625 48.1495 62.125C48.4382 62.625 48.0773 63.25 47.5 63.25C46.9227 63.25 46.5618 62.625 46.8505 62.125Z" stroke="#0D79D0"/>
<path d="M150.85 62.125C151.139 61.625 151.861 61.625 152.15 62.125C152.438 62.625 152.077 63.25 151.5 63.25C150.923 63.25 150.562 62.625 150.85 62.125Z" stroke="#0D79D0"/>
<path d="M46.8505 165.125C47.1392 164.625 47.8608 164.625 48.1495 165.125C48.4382 165.625 48.0773 166.25 47.5 166.25C46.9227 166.25 46.5618 165.625 46.8505 165.125Z" stroke="#0D79D0"/>
<path d="M150.85 167.125C151.139 166.625 151.861 166.625 152.15 167.125C152.438 167.625 152.077 168.25 151.5 168.25C150.923 168.25 150.562 167.625 150.85 167.125Z" stroke="#0D79D0"/>
<path d="M46.8505 271.125C47.1392 270.625 47.8608 270.625 48.1495 271.125C48.4382 271.625 48.0773 272.25 47.5 272.25C46.9227 272.25 46.5618 271.625 46.8505 271.125Z" stroke="#0D79D0"/>
<path d="M253.85 62.125C254.139 61.625 254.861 61.625 255.15 62.125C255.438 62.625 255.077 63.25 254.5 63.25C253.923 63.25 253.562 62.625 253.85 62.125Z" stroke="#0D79D0"/>
<path d="M31.8505 47.125C32.1392 46.625 32.8608 46.625 33.1495 47.125C33.4382 47.625 33.0773 48.25 32.5 48.25C31.9227 48.25 31.5618 47.625 31.8505 47.125Z" stroke="#0D79D0"/>
<path d="M135.85 47.125C136.139 46.625 136.861 46.625 137.15 47.125C137.438 47.625 137.077 48.25 136.5 48.25C135.923 48.25 135.562 47.625 135.85 47.125Z" stroke="#0D79D0"/>
<path d="M31.8505 150.125C32.1392 149.625 32.8608 149.625 33.1495 150.125C33.4382 150.625 33.0773 151.25 32.5 151.25C31.9227 151.25 31.5618 150.625 31.8505 150.125Z" stroke="#0D79D0"/>
<path d="M135.85 152.125C136.139 151.625 136.861 151.625 137.15 152.125C137.438 152.625 137.077 153.25 136.5 153.25C135.923 153.25 135.562 152.625 135.85 152.125Z" stroke="#0D79D0"/>
<path d="M31.8505 256.125C32.1392 255.625 32.8608 255.625 33.1495 256.125C33.4382 256.625 33.0773 257.25 32.5 257.25C31.9227 257.25 31.5618 256.625 31.8505 256.125Z" stroke="#0D79D0"/>
<path d="M238.85 47.125C239.139 46.625 239.861 46.625 240.15 47.125C240.438 47.625 240.077 48.25 239.5 48.25C238.923 48.25 238.562 47.625 238.85 47.125Z" stroke="#0D79D0"/>
<path d="M31.8505 62.125C32.1392 61.625 32.8608 61.625 33.1495 62.125C33.4382 62.625 33.0773 63.25 32.5 63.25C31.9227 63.25 31.5618 62.625 31.8505 62.125Z" stroke="#0D79D0"/>
<path d="M135.85 62.125C136.139 61.625 136.861 61.625 137.15 62.125C137.438 62.625 137.077 63.25 136.5 63.25C135.923 63.25 135.562 62.625 135.85 62.125Z" stroke="#0D79D0"/>
<path d="M31.8505 165.125C32.1392 164.625 32.8608 164.625 33.1495 165.125C33.4382 165.625 33.0773 166.25 32.5 166.25C31.9227 166.25 31.5618 165.625 31.8505 165.125Z" stroke="#0D79D0"/>
<path d="M135.85 167.125C136.139 166.625 136.861 166.625 137.15 167.125C137.438 167.625 137.077 168.25 136.5 168.25C135.923 168.25 135.562 167.625 135.85 167.125Z" stroke="#0D79D0"/>
<path d="M31.8505 271.125C32.1392 270.625 32.8608 270.625 33.1495 271.125C33.4382 271.625 33.0773 272.25 32.5 272.25C31.9227 272.25 31.5618 271.625 31.8505 271.125Z" stroke="#0D79D0"/>
<path d="M238.85 62.125C239.139 61.625 239.861 61.625 240.15 62.125C240.438 62.625 240.077 63.25 239.5 63.25C238.923 63.25 238.562 62.625 238.85 62.125Z" stroke="#0D79D0"/>
<path d="M1.85048 2.125C2.13916 1.625 2.86084 1.625 3.14952 2.125C3.43819 2.625 3.07735 3.25 2.5 3.25C1.92265 3.25 1.56181 2.625 1.85048 2.125Z" stroke="#0D79D0"/>
<path d="M105.85 2.125C106.139 1.625 106.861 1.625 107.15 2.125C107.438 2.625 107.077 3.25 106.5 3.25C105.923 3.25 105.562 2.625 105.85 2.125Z" stroke="#0D79D0"/>
<path d="M1.85048 105.125C2.13916 104.625 2.86084 104.625 3.14952 105.125C3.43819 105.625 3.07735 106.25 2.5 106.25C1.92265 106.25 1.56181 105.625 1.85048 105.125Z" stroke="#0D79D0"/>
<path d="M105.85 107.125C106.139 106.625 106.861 106.625 107.15 107.125C107.438 107.625 107.077 108.25 106.5 108.25C105.923 108.25 105.562 107.625 105.85 107.125Z" stroke="#0D79D0"/>
<path d="M1.85048 211.125C2.13916 210.625 2.86084 210.625 3.14952 211.125C3.43819 211.625 3.07735 212.25 2.5 212.25C1.92265 212.25 1.56181 211.625 1.85048 211.125Z" stroke="#0D79D0"/>
<path d="M208.85 2.125C209.139 1.625 209.861 1.625 210.15 2.125C210.438 2.625 210.077 3.25 209.5 3.25C208.923 3.25 208.562 2.625 208.85 2.125Z" stroke="#0D79D0"/>
<path d="M16.8505 2.125C17.1392 1.625 17.8608 1.625 18.1495 2.125C18.4382 2.625 18.0773 3.25 17.5 3.25C16.9227 3.25 16.5618 2.625 16.8505 2.125Z" stroke="#0D79D0"/>
<path d="M120.85 2.125C121.139 1.625 121.861 1.625 122.15 2.125C122.438 2.625 122.077 3.25 121.5 3.25C120.923 3.25 120.562 2.625 120.85 2.125Z" stroke="#0D79D0"/>
<path d="M16.8505 105.125C17.1392 104.625 17.8608 104.625 18.1495 105.125C18.4382 105.625 18.0773 106.25 17.5 106.25C16.9227 106.25 16.5618 105.625 16.8505 105.125Z" stroke="#0D79D0"/>
<path d="M120.85 107.125C121.139 106.625 121.861 106.625 122.15 107.125C122.438 107.625 122.077 108.25 121.5 108.25C120.923 108.25 120.562 107.625 120.85 107.125Z" stroke="#0D79D0"/>
<path d="M16.8505 211.125C17.1392 210.625 17.8608 210.625 18.1495 211.125C18.4382 211.625 18.0773 212.25 17.5 212.25C16.9227 212.25 16.5618 211.625 16.8505 211.125Z" stroke="#0D79D0"/>
<path d="M223.85 2.125C224.139 1.625 224.861 1.625 225.15 2.125C225.438 2.625 225.077 3.25 224.5 3.25C223.923 3.25 223.562 2.625 223.85 2.125Z" stroke="#0D79D0"/>
<path d="M31.8505 2.125C32.1392 1.625 32.8608 1.625 33.1495 2.125C33.4382 2.625 33.0773 3.25 32.5 3.25C31.9227 3.25 31.5618 2.625 31.8505 2.125Z" stroke="#0D79D0"/>
<path d="M135.85 2.125C136.139 1.625 136.861 1.625 137.15 2.125C137.438 2.625 137.077 3.25 136.5 3.25C135.923 3.25 135.562 2.625 135.85 2.125Z" stroke="#0D79D0"/>
<path d="M31.8505 105.125C32.1392 104.625 32.8608 104.625 33.1495 105.125C33.4382 105.625 33.0773 106.25 32.5 106.25C31.9227 106.25 31.5618 105.625 31.8505 105.125Z" stroke="#0D79D0"/>
<path d="M135.85 107.125C136.139 106.625 136.861 106.625 137.15 107.125C137.438 107.625 137.077 108.25 136.5 108.25C135.923 108.25 135.562 107.625 135.85 107.125Z" stroke="#0D79D0"/>
<path d="M31.8505 211.125C32.1392 210.625 32.8608 210.625 33.1495 211.125C33.4382 211.625 33.0773 212.25 32.5 212.25C31.9227 212.25 31.5618 211.625 31.8505 211.125Z" stroke="#0D79D0"/>
<path d="M238.85 2.125C239.139 1.625 239.861 1.625 240.15 2.125C240.438 2.625 240.077 3.25 239.5 3.25C238.923 3.25 238.562 2.625 238.85 2.125Z" stroke="#0D79D0"/>
<path d="M46.8505 2.125C47.1392 1.625 47.8608 1.625 48.1495 2.125C48.4382 2.625 48.0773 3.25 47.5 3.25C46.9227 3.25 46.5618 2.625 46.8505 2.125Z" stroke="#0D79D0"/>
<path d="M150.85 2.125C151.139 1.625 151.861 1.625 152.15 2.125C152.438 2.625 152.077 3.25 151.5 3.25C150.923 3.25 150.562 2.625 150.85 2.125Z" stroke="#0D79D0"/>
<path d="M46.8505 105.125C47.1392 104.625 47.8608 104.625 48.1495 105.125C48.4382 105.625 48.0773 106.25 47.5 106.25C46.9227 106.25 46.5618 105.625 46.8505 105.125Z" stroke="#0D79D0"/>
<path d="M150.85 107.125C151.139 106.625 151.861 106.625 152.15 107.125C152.438 107.625 152.077 108.25 151.5 108.25C150.923 108.25 150.562 107.625 150.85 107.125Z" stroke="#0D79D0"/>
<path d="M46.8505 211.125C47.1392 210.625 47.8608 210.625 48.1495 211.125C48.4382 211.625 48.0773 212.25 47.5 212.25C46.9227 212.25 46.5618 211.625 46.8505 211.125Z" stroke="#0D79D0"/>
<path d="M253.85 2.125C254.139 1.625 254.861 1.625 255.15 2.125C255.438 2.625 255.077 3.25 254.5 3.25C253.923 3.25 253.562 2.625 253.85 2.125Z" stroke="#0D79D0"/>
<path d="M61.8505 2.125C62.1392 1.625 62.8608 1.625 63.1495 2.125C63.4382 2.625 63.0773 3.25 62.5 3.25C61.9227 3.25 61.5618 2.625 61.8505 2.125Z" stroke="#0D79D0"/>
<path d="M165.85 2.125C166.139 1.625 166.861 1.625 167.15 2.125C167.438 2.625 167.077 3.25 166.5 3.25C165.923 3.25 165.562 2.625 165.85 2.125Z" stroke="#0D79D0"/>
<path d="M61.8505 105.125C62.1392 104.625 62.8608 104.625 63.1495 105.125C63.4382 105.625 63.0773 106.25 62.5 106.25C61.9227 106.25 61.5618 105.625 61.8505 105.125Z" stroke="#0D79D0"/>
<path d="M165.85 107.125C166.139 106.625 166.861 106.625 167.15 107.125C167.438 107.625 167.077 108.25 166.5 108.25C165.923 108.25 165.562 107.625 165.85 107.125Z" stroke="#0D79D0"/>
<path d="M61.8505 211.125C62.1392 210.625 62.8608 210.625 63.1495 211.125C63.4382 211.625 63.0773 212.25 62.5 212.25C61.9227 212.25 61.5618 211.625 61.8505 211.125Z" stroke="#0D79D0"/>
<path d="M268.85 2.125C269.139 1.625 269.861 1.625 270.15 2.125C270.438 2.625 270.077 3.25 269.5 3.25C268.923 3.25 268.562 2.625 268.85 2.125Z" stroke="#0D79D0"/>
<path d="M76.8505 2.125C77.1392 1.625 77.8608 1.625 78.1495 2.125C78.4382 2.625 78.0773 3.25 77.5 3.25C76.9227 3.25 76.5618 2.625 76.8505 2.125Z" stroke="#0D79D0"/>
<path d="M180.85 2.125C181.139 1.625 181.861 1.625 182.15 2.125C182.438 2.625 182.077 3.25 181.5 3.25C180.923 3.25 180.562 2.625 180.85 2.125Z" stroke="#0D79D0"/>
<path d="M76.8505 105.125C77.1392 104.625 77.8608 104.625 78.1495 105.125C78.4382 105.625 78.0773 106.25 77.5 106.25C76.9227 106.25 76.5618 105.625 76.8505 105.125Z" stroke="#0D79D0"/>
<path d="M180.85 107.125C181.139 106.625 181.861 106.625 182.15 107.125C182.438 107.625 182.077 108.25 181.5 108.25C180.923 108.25 180.562 107.625 180.85 107.125Z" stroke="#0D79D0"/>
<path d="M76.8505 211.125C77.1392 210.625 77.8608 210.625 78.1495 211.125C78.4382 211.625 78.0773 212.25 77.5 212.25C76.9227 212.25 76.5618 211.625 76.8505 211.125Z" stroke="#0D79D0"/>
<path d="M283.85 2.125C284.139 1.625 284.861 1.625 285.15 2.125C285.438 2.625 285.077 3.25 284.5 3.25C283.923 3.25 283.562 2.625 283.85 2.125Z" stroke="#0D79D0"/>
<path d="M91.8505 2.125C92.1392 1.625 92.8608 1.625 93.1495 2.125C93.4382 2.625 93.0773 3.25 92.5 3.25C91.9227 3.25 91.5618 2.625 91.8505 2.125Z" stroke="#0D79D0"/>
<path d="M195.85 2.125C196.139 1.625 196.861 1.625 197.15 2.125C197.438 2.625 197.077 3.25 196.5 3.25C195.923 3.25 195.562 2.625 195.85 2.125Z" stroke="#0D79D0"/>
<path d="M91.8505 105.125C92.1392 104.625 92.8608 104.625 93.1495 105.125C93.4382 105.625 93.0773 106.25 92.5 106.25C91.9227 106.25 91.5618 105.625 91.8505 105.125Z" stroke="#0D79D0"/>
<path d="M195.85 107.125C196.139 106.625 196.861 106.625 197.15 107.125C197.438 107.625 197.077 108.25 196.5 108.25C195.923 108.25 195.562 107.625 195.85 107.125Z" stroke="#0D79D0"/>
<path d="M91.8505 211.125C92.1392 210.625 92.8608 210.625 93.1495 211.125C93.4382 211.625 93.0773 212.25 92.5 212.25C91.9227 212.25 91.5618 211.625 91.8505 211.125Z" stroke="#0D79D0"/>
<path d="M298.85 2.125C299.139 1.625 299.861 1.625 300.15 2.125C300.438 2.625 300.077 3.25 299.5 3.25C298.923 3.25 298.562 2.625 298.85 2.125Z" stroke="#0D79D0"/>
</svg>
