<svg width="95" height="95" viewBox="0 0 95 95" fill="none" xmlns="http://www.w3.org/2000/svg">
<path d="M16.8505 17.125C17.1392 16.625 17.8608 16.625 18.1495 17.125C18.4382 17.625 18.0773 18.25 17.5 18.25C16.9227 18.25 16.5618 17.625 16.8505 17.125Z" stroke="#42A5F5"/>
<path d="M31.8505 17.125C32.1392 16.625 32.8608 16.625 33.1495 17.125C33.4382 17.625 33.0773 18.25 32.5 18.25C31.9227 18.25 31.5618 17.625 31.8505 17.125Z" stroke="#42A5F5"/>
<path d="M46.8505 17.125C47.1392 16.625 47.8608 16.625 48.1495 17.125C48.4382 17.625 48.0773 18.25 47.5 18.25C46.9227 18.25 46.5618 17.625 46.8505 17.125Z" stroke="#42A5F5"/>
<path d="M61.8505 17.125C62.1392 16.625 62.8608 16.625 63.1495 17.125C63.4382 17.625 63.0773 18.25 62.5 18.25C61.9227 18.25 61.5618 17.625 61.8505 17.125Z" stroke="#42A5F5"/>
<path d="M76.8505 17.125C77.1392 16.625 77.8608 16.625 78.1495 17.125C78.4382 17.625 78.0773 18.25 77.5 18.25C76.9227 18.25 76.5618 17.625 76.8505 17.125Z" stroke="#42A5F5"/>
<path d="M91.8505 17.125C92.1392 16.625 92.8608 16.625 93.1495 17.125C93.4382 17.625 93.0773 18.25 92.5 18.25C91.9227 18.25 91.5618 17.625 91.8505 17.125Z" stroke="#42A5F5"/>
<path d="M1.85048 17.125C2.13916 16.625 2.86084 16.625 3.14952 17.125C3.43819 17.625 3.07735 18.25 2.5 18.25C1.92265 18.25 1.56181 17.625 1.85048 17.125Z" stroke="#42A5F5"/>
<path d="M1.85048 32.125C2.13916 31.625 2.86084 31.625 3.14952 32.125C3.43819 32.625 3.07735 33.25 2.5 33.25C1.92265 33.25 1.56181 32.625 1.85048 32.125Z" stroke="#42A5F5"/>
<path d="M1.85048 47.125C2.13916 46.625 2.86084 46.625 3.14952 47.125C3.43819 47.625 3.07735 48.25 2.5 48.25C1.92265 48.25 1.56181 47.625 1.85048 47.125Z" stroke="#42A5F5"/>
<path d="M1.85048 62.125C2.13916 61.625 2.86084 61.625 3.14952 62.125C3.43819 62.625 3.07735 63.25 2.5 63.25C1.92265 63.25 1.56181 62.625 1.85048 62.125Z" stroke="#42A5F5"/>
<path d="M1.85048 77.125C2.13916 76.625 2.86084 76.625 3.14952 77.125C3.43819 77.625 3.07735 78.25 2.5 78.25C1.92265 78.25 1.56181 77.625 1.85048 77.125Z" stroke="#42A5F5"/>
<path d="M1.85048 92.125C2.13916 91.625 2.86084 91.625 3.14952 92.125C3.43819 92.625 3.07735 93.25 2.5 93.25C1.92265 93.25 1.56181 92.625 1.85048 92.125Z" stroke="#42A5F5"/>
<path d="M16.8505 32.125C17.1392 31.625 17.8608 31.625 18.1495 32.125C18.4382 32.625 18.0773 33.25 17.5 33.25C16.9227 33.25 16.5618 32.625 16.8505 32.125Z" stroke="#42A5F5"/>
<path d="M16.8505 47.125C17.1392 46.625 17.8608 46.625 18.1495 47.125C18.4382 47.625 18.0773 48.25 17.5 48.25C16.9227 48.25 16.5618 47.625 16.8505 47.125Z" stroke="#42A5F5"/>
<path d="M16.8505 62.125C17.1392 61.625 17.8608 61.625 18.1495 62.125C18.4382 62.625 18.0773 63.25 17.5 63.25C16.9227 63.25 16.5618 62.625 16.8505 62.125Z" stroke="#42A5F5"/>
<path d="M16.8505 77.125C17.1392 76.625 17.8608 76.625 18.1495 77.125C18.4382 77.625 18.0773 78.25 17.5 78.25C16.9227 78.25 16.5618 77.625 16.8505 77.125Z" stroke="#42A5F5"/>
<path d="M16.8505 92.125C17.1392 91.625 17.8608 91.625 18.1495 92.125C18.4382 92.625 18.0773 93.25 17.5 93.25C16.9227 93.25 16.5618 92.625 16.8505 92.125Z" stroke="#42A5F5"/>
<path d="M31.8505 32.125C32.1392 31.625 32.8608 31.625 33.1495 32.125C33.4382 32.625 33.0773 33.25 32.5 33.25C31.9227 33.25 31.5618 32.625 31.8505 32.125Z" stroke="#42A5F5"/>
<path d="M46.8505 32.125C47.1392 31.625 47.8608 31.625 48.1495 32.125C48.4382 32.625 48.0773 33.25 47.5 33.25C46.9227 33.25 46.5618 32.625 46.8505 32.125Z" stroke="#42A5F5"/>
<path d="M61.8505 32.125C62.1392 31.625 62.8608 31.625 63.1495 32.125C63.4382 32.625 63.0773 33.25 62.5 33.25C61.9227 33.25 61.5618 32.625 61.8505 32.125Z" stroke="#42A5F5"/>
<path d="M61.8505 47.125C62.1392 46.625 62.8608 46.625 63.1495 47.125C63.4382 47.625 63.0773 48.25 62.5 48.25C61.9227 48.25 61.5618 47.625 61.8505 47.125Z" stroke="#42A5F5"/>
<path d="M61.8505 62.125C62.1392 61.625 62.8608 61.625 63.1495 62.125C63.4382 62.625 63.0773 63.25 62.5 63.25C61.9227 63.25 61.5618 62.625 61.8505 62.125Z" stroke="#42A5F5"/>
<path d="M46.8505 46.125C47.1392 45.625 47.8608 45.625 48.1495 46.125C48.4382 46.625 48.0773 47.25 47.5 47.25C46.9227 47.25 46.5618 46.625 46.8505 46.125Z" stroke="#42A5F5"/>
<path d="M46.8505 62.125C47.1392 61.625 47.8608 61.625 48.1495 62.125C48.4382 62.625 48.0773 63.25 47.5 63.25C46.9227 63.25 46.5618 62.625 46.8505 62.125Z" stroke="#42A5F5"/>
<path d="M31.8505 47.125C32.1392 46.625 32.8608 46.625 33.1495 47.125C33.4382 47.625 33.0773 48.25 32.5 48.25C31.9227 48.25 31.5618 47.625 31.8505 47.125Z" stroke="#42A5F5"/>
<path d="M31.8505 62.125C32.1392 61.625 32.8608 61.625 33.1495 62.125C33.4382 62.625 33.0773 63.25 32.5 63.25C31.9227 63.25 31.5618 62.625 31.8505 62.125Z" stroke="#42A5F5"/>
<path d="M1.85048 2.125C2.13916 1.625 2.86084 1.625 3.14952 2.125C3.43819 2.625 3.07735 3.25 2.5 3.25C1.92265 3.25 1.56181 2.625 1.85048 2.125Z" stroke="#42A5F5"/>
<path d="M16.8505 2.125C17.1392 1.625 17.8608 1.625 18.1495 2.125C18.4382 2.625 18.0773 3.25 17.5 3.25C16.9227 3.25 16.5618 2.625 16.8505 2.125Z" stroke="#42A5F5"/>
<path d="M31.8505 2.125C32.1392 1.625 32.8608 1.625 33.1495 2.125C33.4382 2.625 33.0773 3.25 32.5 3.25C31.9227 3.25 31.5618 2.625 31.8505 2.125Z" stroke="#42A5F5"/>
<path d="M46.8505 2.125C47.1392 1.625 47.8608 1.625 48.1495 2.125C48.4382 2.625 48.0773 3.25 47.5 3.25C46.9227 3.25 46.5618 2.625 46.8505 2.125Z" stroke="#42A5F5"/>
<path d="M61.8505 2.125C62.1392 1.625 62.8608 1.625 63.1495 2.125C63.4382 2.625 63.0773 3.25 62.5 3.25C61.9227 3.25 61.5618 2.625 61.8505 2.125Z" stroke="#42A5F5"/>
<path d="M76.8505 2.125C77.1392 1.625 77.8608 1.625 78.1495 2.125C78.4382 2.625 78.0773 3.25 77.5 3.25C76.9227 3.25 76.5618 2.625 76.8505 2.125Z" stroke="#42A5F5"/>
<path d="M91.8505 2.125C92.1392 1.625 92.8608 1.625 93.1495 2.125C93.4382 2.625 93.0773 3.25 92.5 3.25C91.9227 3.25 91.5618 2.625 91.8505 2.125Z" stroke="#42A5F5"/>
</svg>
