<svg width="257" height="257" viewBox="0 0 257 257" fill="none" xmlns="http://www.w3.org/2000/svg">
<path d="M34.202 162.373C6.49838 86.258 17.8542 61.9054 93.9693 34.2018C170.084 6.49816 194.437 17.8539 222.141 93.969C249.844 170.084 238.488 194.437 162.373 222.14C86.2582 249.844 61.9056 238.488 34.202 162.373Z" fill="#42A5F5"/>
<path d="M90.5 83.25C89.9226 83.25 89.5618 82.625 89.8505 82.125C90.1392 81.625 90.8608 81.625 91.1495 82.125C91.4382 82.625 91.0774 83.25 90.5 83.25Z" stroke="#0D79D0"/>
<path d="M194.5 83.25C193.923 83.25 193.562 82.625 193.85 82.125C194.139 81.625 194.861 81.625 195.15 82.125C195.438 82.625 195.077 83.25 194.5 83.25Z" stroke="#0D79D0"/>
<path d="M90.5 186.25C89.9226 186.25 89.5618 185.625 89.8505 185.125C90.1392 184.625 90.8608 184.625 91.1495 185.125C91.4382 185.625 91.0774 186.25 90.5 186.25Z" stroke="#0D79D0"/>
<path d="M194.5 188.25C193.923 188.25 193.562 187.625 193.85 187.125C194.139 186.625 194.861 186.625 195.15 187.125C195.438 187.625 195.077 188.25 194.5 188.25Z" stroke="#0D79D0"/>
<path d="M105.5 83.25C104.923 83.25 104.562 82.625 104.85 82.125C105.139 81.625 105.861 81.625 106.15 82.125C106.438 82.625 106.077 83.25 105.5 83.25Z" stroke="#0D79D0"/>
<path d="M209.5 83.25C208.923 83.25 208.562 82.625 208.85 82.125C209.139 81.625 209.861 81.625 210.15 82.125C210.438 82.625 210.077 83.25 209.5 83.25Z" stroke="#0D79D0"/>
<path d="M105.5 186.25C104.923 186.25 104.562 185.625 104.85 185.125C105.139 184.625 105.861 184.625 106.15 185.125C106.438 185.625 106.077 186.25 105.5 186.25Z" stroke="#0D79D0"/>
<path d="M209.5 188.25C208.923 188.25 208.562 187.625 208.85 187.125C209.139 186.625 209.861 186.625 210.15 187.125C210.438 187.625 210.077 188.25 209.5 188.25Z" stroke="#0D79D0"/>
<path d="M120.5 83.25C119.923 83.25 119.562 82.625 119.85 82.125C120.139 81.625 120.861 81.625 121.15 82.125C121.438 82.625 121.077 83.25 120.5 83.25Z" stroke="#0D79D0"/>
<path d="M120.5 186.25C119.923 186.25 119.562 185.625 119.85 185.125C120.139 184.625 120.861 184.625 121.15 185.125C121.438 185.625 121.077 186.25 120.5 186.25Z" stroke="#0D79D0"/>
<path d="M224.5 188.25C223.923 188.25 223.562 187.625 223.85 187.125C224.139 186.625 224.861 186.625 225.15 187.125C225.438 187.625 225.077 188.25 224.5 188.25Z" stroke="#0D79D0"/>
<path d="M135.5 83.25C134.923 83.25 134.562 82.625 134.85 82.125C135.139 81.625 135.861 81.625 136.15 82.125C136.438 82.625 136.077 83.25 135.5 83.25Z" stroke="#0D79D0"/>
<path d="M135.5 186.25C134.923 186.25 134.562 185.625 134.85 185.125C135.139 184.625 135.861 184.625 136.15 185.125C136.438 185.625 136.077 186.25 135.5 186.25Z" stroke="#0D79D0"/>
<path d="M150.5 83.25C149.923 83.25 149.562 82.625 149.85 82.125C150.139 81.625 150.861 81.625 151.15 82.125C151.438 82.625 151.077 83.25 150.5 83.25Z" stroke="#0D79D0"/>
<path d="M150.5 186.25C149.923 186.25 149.562 185.625 149.85 185.125C150.139 184.625 150.861 184.625 151.15 185.125C151.438 185.625 151.077 186.25 150.5 186.25Z" stroke="#0D79D0"/>
<path d="M165.5 83.25C164.923 83.25 164.562 82.625 164.85 82.125C165.139 81.625 165.861 81.625 166.15 82.125C166.438 82.625 166.077 83.25 165.5 83.25Z" stroke="#0D79D0"/>
<path d="M165.5 186.25C164.923 186.25 164.562 185.625 164.85 185.125C165.139 184.625 165.861 184.625 166.15 185.125C166.438 185.625 166.077 186.25 165.5 186.25Z" stroke="#0D79D0"/>
<path d="M75.5 83.25C74.9226 83.25 74.5618 82.625 74.8505 82.125C75.1392 81.625 75.8608 81.625 76.1495 82.125C76.4382 82.625 76.0774 83.25 75.5 83.25Z" stroke="#0D79D0"/>
<path d="M179.5 83.25C178.923 83.25 178.562 82.625 178.85 82.125C179.139 81.625 179.861 81.625 180.15 82.125C180.438 82.625 180.077 83.25 179.5 83.25Z" stroke="#0D79D0"/>
<path d="M75.5 186.25C74.9226 186.25 74.5618 185.625 74.8505 185.125C75.1392 184.625 75.8608 184.625 76.1495 185.125C76.4382 185.625 76.0774 186.25 75.5 186.25Z" stroke="#0D79D0"/>
<path d="M179.5 188.25C178.923 188.25 178.562 187.625 178.85 187.125C179.139 186.625 179.861 186.625 180.15 187.125C180.438 187.625 180.077 188.25 179.5 188.25Z" stroke="#0D79D0"/>
<path d="M75.5 98.25C74.9226 98.25 74.5618 97.625 74.8505 97.125C75.1392 96.625 75.8608 96.625 76.1495 97.125C76.4382 97.625 76.0774 98.25 75.5 98.25Z" stroke="#0D79D0"/>
<path d="M179.5 98.25C178.923 98.25 178.562 97.625 178.85 97.125C179.139 96.625 179.861 96.625 180.15 97.125C180.438 97.625 180.077 98.25 179.5 98.25Z" stroke="#0D79D0"/>
<path d="M75.5 201.25C74.9226 201.25 74.5618 200.625 74.8505 200.125C75.1392 199.625 75.8608 199.625 76.1495 200.125C76.4382 200.625 76.0774 201.25 75.5 201.25Z" stroke="#0D79D0"/>
<path d="M179.5 203.25C178.923 203.25 178.562 202.625 178.85 202.125C179.139 201.625 179.861 201.625 180.15 202.125C180.438 202.625 180.077 203.25 179.5 203.25Z" stroke="#0D79D0"/>
<path d="M75.5 113.25C74.9226 113.25 74.5618 112.625 74.8505 112.125C75.1392 111.625 75.8608 111.625 76.1495 112.125C76.4382 112.625 76.0774 113.25 75.5 113.25Z" stroke="#0D79D0"/>
<path d="M179.5 113.25C178.923 113.25 178.562 112.625 178.85 112.125C179.139 111.625 179.861 111.625 180.15 112.125C180.438 112.625 180.077 113.25 179.5 113.25Z" stroke="#0D79D0"/>
<path d="M75.5 216.25C74.9226 216.25 74.5618 215.625 74.8505 215.125C75.1392 214.625 75.8608 214.625 76.1495 215.125C76.4382 215.625 76.0774 216.25 75.5 216.25Z" stroke="#0D79D0"/>
<path d="M75.5 128.25C74.9226 128.25 74.5618 127.625 74.8505 127.125C75.1392 126.625 75.8608 126.625 76.1495 127.125C76.4382 127.625 76.0774 128.25 75.5 128.25Z" stroke="#0D79D0"/>
<path d="M179.5 128.25C178.923 128.25 178.562 127.625 178.85 127.125C179.139 126.625 179.861 126.625 180.15 127.125C180.438 127.625 180.077 128.25 179.5 128.25Z" stroke="#0D79D0"/>
<path d="M75.5 143.25C74.9226 143.25 74.5618 142.625 74.8505 142.125C75.1392 141.625 75.8608 141.625 76.1495 142.125C76.4382 142.625 76.0774 143.25 75.5 143.25Z" stroke="#0D79D0"/>
<path d="M179.5 143.25C178.923 143.25 178.562 142.625 178.85 142.125C179.139 141.625 179.861 141.625 180.15 142.125C180.438 142.625 180.077 143.25 179.5 143.25Z" stroke="#0D79D0"/>
<path d="M75.5 158.25C74.9226 158.25 74.5618 157.625 74.8505 157.125C75.1392 156.625 75.8608 156.625 76.1495 157.125C76.4382 157.625 76.0774 158.25 75.5 158.25Z" stroke="#0D79D0"/>
<path d="M179.5 158.25C178.923 158.25 178.562 157.625 178.85 157.125C179.139 156.625 179.861 156.625 180.15 157.125C180.438 157.625 180.077 158.25 179.5 158.25Z" stroke="#0D79D0"/>
<path d="M105.5 158.25C104.923 158.25 104.562 157.625 104.85 157.125C105.139 156.625 105.861 156.625 106.15 157.125C106.438 157.625 106.077 158.25 105.5 158.25Z" stroke="#0D79D0"/>
<path d="M209.5 158.25C208.923 158.25 208.562 157.625 208.85 157.125C209.139 156.625 209.861 156.625 210.15 157.125C210.438 157.625 210.077 158.25 209.5 158.25Z" stroke="#0D79D0"/>
<path d="M105.5 143.25C104.923 143.25 104.562 142.625 104.85 142.125C105.139 141.625 105.861 141.625 106.15 142.125C106.438 142.625 106.077 143.25 105.5 143.25Z" stroke="#0D79D0"/>
<path d="M209.5 143.25C208.923 143.25 208.562 142.625 208.85 142.125C209.139 141.625 209.861 141.625 210.15 142.125C210.438 142.625 210.077 143.25 209.5 143.25Z" stroke="#0D79D0"/>
<path d="M90.5 98.25C89.9226 98.25 89.5618 97.625 89.8505 97.125C90.1392 96.625 90.8608 96.625 91.1495 97.125C91.4382 97.625 91.0774 98.25 90.5 98.25Z" stroke="#0D79D0"/>
<path d="M194.5 98.25C193.923 98.25 193.562 97.625 193.85 97.125C194.139 96.625 194.861 96.625 195.15 97.125C195.438 97.625 195.077 98.25 194.5 98.25Z" stroke="#0D79D0"/>
<path d="M90.5 201.25C89.9226 201.25 89.5618 200.625 89.8505 200.125C90.1392 199.625 90.8608 199.625 91.1495 200.125C91.4382 200.625 91.0774 201.25 90.5 201.25Z" stroke="#0D79D0"/>
<path d="M194.5 203.25C193.923 203.25 193.562 202.625 193.85 202.125C194.139 201.625 194.861 201.625 195.15 202.125C195.438 202.625 195.077 203.25 194.5 203.25Z" stroke="#0D79D0"/>
<path d="M90.5 113.25C89.9226 113.25 89.5618 112.625 89.8505 112.125C90.1392 111.625 90.8608 111.625 91.1495 112.125C91.4382 112.625 91.0774 113.25 90.5 113.25Z" stroke="#0D79D0"/>
<path d="M194.5 113.25C193.923 113.25 193.562 112.625 193.85 112.125C194.139 111.625 194.861 111.625 195.15 112.125C195.438 112.625 195.077 113.25 194.5 113.25Z" stroke="#0D79D0"/>
<path d="M90.5 216.25C89.9226 216.25 89.5618 215.625 89.8505 215.125C90.1392 214.625 90.8608 214.625 91.1495 215.125C91.4382 215.625 91.0774 216.25 90.5 216.25Z" stroke="#0D79D0"/>
<path d="M90.5 128.25C89.9226 128.25 89.5618 127.625 89.8505 127.125C90.1392 126.625 90.8608 126.625 91.1495 127.125C91.4382 127.625 91.0774 128.25 90.5 128.25Z" stroke="#0D79D0"/>
<path d="M194.5 128.25C193.923 128.25 193.562 127.625 193.85 127.125C194.139 126.625 194.861 126.625 195.15 127.125C195.438 127.625 195.077 128.25 194.5 128.25Z" stroke="#0D79D0"/>
<path d="M90.5 231.25C89.9226 231.25 89.5618 230.625 89.8505 230.125C90.1392 229.625 90.8608 229.625 91.1495 230.125C91.4382 230.625 91.0774 231.25 90.5 231.25Z" stroke="#0D79D0"/>
<path d="M90.5 143.25C89.9226 143.25 89.5618 142.625 89.8505 142.125C90.1392 141.625 90.8608 141.625 91.1495 142.125C91.4382 142.625 91.0774 143.25 90.5 143.25Z" stroke="#0D79D0"/>
<path d="M194.5 143.25C193.923 143.25 193.562 142.625 193.85 142.125C194.139 141.625 194.861 141.625 195.15 142.125C195.438 142.625 195.077 143.25 194.5 143.25Z" stroke="#0D79D0"/>
<path d="M90.5 158.25C89.9226 158.25 89.5618 157.625 89.8505 157.125C90.1392 156.625 90.8608 156.625 91.1495 157.125C91.4382 157.625 91.0774 158.25 90.5 158.25Z" stroke="#0D79D0"/>
<path d="M194.5 158.25C193.923 158.25 193.562 157.625 193.85 157.125C194.139 156.625 194.861 156.625 195.15 157.125C195.438 157.625 195.077 158.25 194.5 158.25Z" stroke="#0D79D0"/>
<path d="M120.5 158.25C119.923 158.25 119.562 157.625 119.85 157.125C120.139 156.625 120.861 156.625 121.15 157.125C121.438 157.625 121.077 158.25 120.5 158.25Z" stroke="#0D79D0"/>
<path d="M224.5 158.25C223.923 158.25 223.562 157.625 223.85 157.125C224.139 156.625 224.861 156.625 225.15 157.125C225.438 157.625 225.077 158.25 224.5 158.25Z" stroke="#0D79D0"/>
<path d="M120.5 143.25C119.923 143.25 119.562 142.625 119.85 142.125C120.139 141.625 120.861 141.625 121.15 142.125C121.438 142.625 121.077 143.25 120.5 143.25Z" stroke="#0D79D0"/>
<path d="M224.5 143.25C223.923 143.25 223.562 142.625 223.85 142.125C224.139 141.625 224.861 141.625 225.15 142.125C225.438 142.625 225.077 143.25 224.5 143.25Z" stroke="#0D79D0"/>
<path d="M105.5 98.25C104.923 98.25 104.562 97.625 104.85 97.125C105.139 96.625 105.861 96.625 106.15 97.125C106.438 97.625 106.077 98.25 105.5 98.25Z" stroke="#0D79D0"/>
<path d="M209.5 98.25C208.923 98.25 208.562 97.625 208.85 97.125C209.139 96.625 209.861 96.625 210.15 97.125C210.438 97.625 210.077 98.25 209.5 98.25Z" stroke="#0D79D0"/>
<path d="M105.5 201.25C104.923 201.25 104.562 200.625 104.85 200.125C105.139 199.625 105.861 199.625 106.15 200.125C106.438 200.625 106.077 201.25 105.5 201.25Z" stroke="#0D79D0"/>
<path d="M120.5 98.25C119.923 98.25 119.562 97.625 119.85 97.125C120.139 96.625 120.861 96.625 121.15 97.125C121.438 97.625 121.077 98.25 120.5 98.25Z" stroke="#0D79D0"/>
<path d="M120.5 201.25C119.923 201.25 119.562 200.625 119.85 200.125C120.139 199.625 120.861 199.625 121.15 200.125C121.438 200.625 121.077 201.25 120.5 201.25Z" stroke="#0D79D0"/>
<path d="M135.5 98.25C134.923 98.25 134.562 97.625 134.85 97.125C135.139 96.625 135.861 96.625 136.15 97.125C136.438 97.625 136.077 98.25 135.5 98.25Z" stroke="#0D79D0"/>
<path d="M135.5 201.25C134.923 201.25 134.562 200.625 134.85 200.125C135.139 199.625 135.861 199.625 136.15 200.125C136.438 200.625 136.077 201.25 135.5 201.25Z" stroke="#0D79D0"/>
<path d="M150.5 98.25C149.923 98.25 149.562 97.625 149.85 97.125C150.139 96.625 150.861 96.625 151.15 97.125C151.438 97.625 151.077 98.25 150.5 98.25Z" stroke="#0D79D0"/>
<path d="M150.5 201.25C149.923 201.25 149.562 200.625 149.85 200.125C150.139 199.625 150.861 199.625 151.15 200.125C151.438 200.625 151.077 201.25 150.5 201.25Z" stroke="#0D79D0"/>
<path d="M165.5 98.25C164.923 98.25 164.562 97.625 164.85 97.125C165.139 96.625 165.861 96.625 166.15 97.125C166.438 97.625 166.077 98.25 165.5 98.25Z" stroke="#0D79D0"/>
<path d="M165.5 201.25C164.923 201.25 164.562 200.625 164.85 200.125C165.139 199.625 165.861 199.625 166.15 200.125C166.438 200.625 166.077 201.25 165.5 201.25Z" stroke="#0D79D0"/>
<path d="M135.5 113.25C134.923 113.25 134.562 112.625 134.85 112.125C135.139 111.625 135.861 111.625 136.15 112.125C136.438 112.625 136.077 113.25 135.5 113.25Z" stroke="#0D79D0"/>
<path d="M135.5 216.25C134.923 216.25 134.562 215.625 134.85 215.125C135.139 214.625 135.861 214.625 136.15 215.125C136.438 215.625 136.077 216.25 135.5 216.25Z" stroke="#0D79D0"/>
<path d="M150.5 113.25C149.923 113.25 149.562 112.625 149.85 112.125C150.139 111.625 150.861 111.625 151.15 112.125C151.438 112.625 151.077 113.25 150.5 113.25Z" stroke="#0D79D0"/>
<path d="M150.5 216.25C149.923 216.25 149.562 215.625 149.85 215.125C150.139 214.625 150.861 214.625 151.15 215.125C151.438 215.625 151.077 216.25 150.5 216.25Z" stroke="#0D79D0"/>
<path d="M165.5 113.25C164.923 113.25 164.562 112.625 164.85 112.125C165.139 111.625 165.861 111.625 166.15 112.125C166.438 112.625 166.077 113.25 165.5 113.25Z" stroke="#0D79D0"/>
<path d="M165.5 216.25C164.923 216.25 164.562 215.625 164.85 215.125C165.139 214.625 165.861 214.625 166.15 215.125C166.438 215.625 166.077 216.25 165.5 216.25Z" stroke="#0D79D0"/>
<path d="M135.5 128.25C134.923 128.25 134.562 127.625 134.85 127.125C135.139 126.625 135.861 126.625 136.15 127.125C136.438 127.625 136.077 128.25 135.5 128.25Z" stroke="#0D79D0"/>
<path d="M135.5 231.25C134.923 231.25 134.562 230.625 134.85 230.125C135.139 229.625 135.861 229.625 136.15 230.125C136.438 230.625 136.077 231.25 135.5 231.25Z" stroke="#0D79D0"/>
<path d="M150.5 128.25C149.923 128.25 149.562 127.625 149.85 127.125C150.139 126.625 150.861 126.625 151.15 127.125C151.438 127.625 151.077 128.25 150.5 128.25Z" stroke="#0D79D0"/>
<path d="M165.5 128.25C164.923 128.25 164.562 127.625 164.85 127.125C165.139 126.625 165.861 126.625 166.15 127.125C166.438 127.625 166.077 128.25 165.5 128.25Z" stroke="#0D79D0"/>
<path d="M135.5 143.25C134.923 143.25 134.562 142.625 134.85 142.125C135.139 141.625 135.861 141.625 136.15 142.125C136.438 142.625 136.077 143.25 135.5 143.25Z" stroke="#0D79D0"/>
<path d="M150.5 143.25C149.923 143.25 149.562 142.625 149.85 142.125C150.139 141.625 150.861 141.625 151.15 142.125C151.438 142.625 151.077 143.25 150.5 143.25Z" stroke="#0D79D0"/>
<path d="M165.5 143.25C164.923 143.25 164.562 142.625 164.85 142.125C165.139 141.625 165.861 141.625 166.15 142.125C166.438 142.625 166.077 143.25 165.5 143.25Z" stroke="#0D79D0"/>
<path d="M135.5 158.25C134.923 158.25 134.562 157.625 134.85 157.125C135.139 156.625 135.861 156.625 136.15 157.125C136.438 157.625 136.077 158.25 135.5 158.25Z" stroke="#0D79D0"/>
<path d="M150.5 158.25C149.923 158.25 149.562 157.625 149.85 157.125C150.139 156.625 150.861 156.625 151.15 157.125C151.438 157.625 151.077 158.25 150.5 158.25Z" stroke="#0D79D0"/>
<path d="M165.5 158.25C164.923 158.25 164.562 157.625 164.85 157.125C165.139 156.625 165.861 156.625 166.15 157.125C166.438 157.625 166.077 158.25 165.5 158.25Z" stroke="#0D79D0"/>
<path d="M120.5 113.25C119.923 113.25 119.562 112.625 119.85 112.125C120.139 111.625 120.861 111.625 121.15 112.125C121.438 112.625 121.077 113.25 120.5 113.25Z" stroke="#0D79D0"/>
<path d="M224.5 113.25C223.923 113.25 223.562 112.625 223.85 112.125C224.139 111.625 224.861 111.625 225.15 112.125C225.438 112.625 225.077 113.25 224.5 113.25Z" stroke="#0D79D0"/>
<path d="M120.5 216.25C119.923 216.25 119.562 215.625 119.85 215.125C120.139 214.625 120.861 214.625 121.15 215.125C121.438 215.625 121.077 216.25 120.5 216.25Z" stroke="#0D79D0"/>
<path d="M120.5 128.25C119.923 128.25 119.562 127.625 119.85 127.125C120.139 126.625 120.861 126.625 121.15 127.125C121.438 127.625 121.077 128.25 120.5 128.25Z" stroke="#0D79D0"/>
<path d="M224.5 128.25C223.923 128.25 223.562 127.625 223.85 127.125C224.139 126.625 224.861 126.625 225.15 127.125C225.438 127.625 225.077 128.25 224.5 128.25Z" stroke="#0D79D0"/>
<path d="M120.5 231.25C119.923 231.25 119.562 230.625 119.85 230.125C120.139 229.625 120.861 229.625 121.15 230.125C121.438 230.625 121.077 231.25 120.5 231.25Z" stroke="#0D79D0"/>
<path d="M105.5 113.25C104.923 113.25 104.562 112.625 104.85 112.125C105.139 111.625 105.861 111.625 106.15 112.125C106.438 112.625 106.077 113.25 105.5 113.25Z" stroke="#0D79D0"/>
<path d="M209.5 113.25C208.923 113.25 208.562 112.625 208.85 112.125C209.139 111.625 209.861 111.625 210.15 112.125C210.438 112.625 210.077 113.25 209.5 113.25Z" stroke="#0D79D0"/>
<path d="M105.5 216.25C104.923 216.25 104.562 215.625 104.85 215.125C105.139 214.625 105.861 214.625 106.15 215.125C106.438 215.625 106.077 216.25 105.5 216.25Z" stroke="#0D79D0"/>
<path d="M105.5 128.25C104.923 128.25 104.562 127.625 104.85 127.125C105.139 126.625 105.861 126.625 106.15 127.125C106.438 127.625 106.077 128.25 105.5 128.25Z" stroke="#0D79D0"/>
<path d="M209.5 128.25C208.923 128.25 208.562 127.625 208.85 127.125C209.139 126.625 209.861 126.625 210.15 127.125C210.438 127.625 210.077 128.25 209.5 128.25Z" stroke="#0D79D0"/>
<path d="M105.5 231.25C104.923 231.25 104.562 230.625 104.85 230.125C105.139 229.625 105.861 229.625 106.15 230.125C106.438 230.625 106.077 231.25 105.5 231.25Z" stroke="#0D79D0"/>
<path d="M75.5 68.25C74.9226 68.25 74.5618 67.625 74.8505 67.125C75.1392 66.625 75.8608 66.625 76.1495 67.125C76.4382 67.625 76.0774 68.25 75.5 68.25Z" stroke="#0D79D0"/>
<path d="M179.5 68.25C178.923 68.25 178.562 67.625 178.85 67.125C179.139 66.625 179.861 66.625 180.15 67.125C180.438 67.625 180.077 68.25 179.5 68.25Z" stroke="#0D79D0"/>
<path d="M75.5 171.25C74.9226 171.25 74.5618 170.625 74.8505 170.125C75.1392 169.625 75.8608 169.625 76.1495 170.125C76.4382 170.625 76.0774 171.25 75.5 171.25Z" stroke="#0D79D0"/>
<path d="M179.5 173.25C178.923 173.25 178.562 172.625 178.85 172.125C179.139 171.625 179.861 171.625 180.15 172.125C180.438 172.625 180.077 173.25 179.5 173.25Z" stroke="#0D79D0"/>
<path d="M90.5 68.25C89.9226 68.25 89.5618 67.625 89.8505 67.125C90.1392 66.625 90.8608 66.625 91.1495 67.125C91.4382 67.625 91.0774 68.25 90.5 68.25Z" stroke="#0D79D0"/>
<path d="M194.5 68.25C193.923 68.25 193.562 67.625 193.85 67.125C194.139 66.625 194.861 66.625 195.15 67.125C195.438 67.625 195.077 68.25 194.5 68.25Z" stroke="#0D79D0"/>
<path d="M90.5 171.25C89.9226 171.25 89.5618 170.625 89.8505 170.125C90.1392 169.625 90.8608 169.625 91.1495 170.125C91.4382 170.625 91.0774 171.25 90.5 171.25Z" stroke="#0D79D0"/>
<path d="M194.5 173.25C193.923 173.25 193.562 172.625 193.85 172.125C194.139 171.625 194.861 171.625 195.15 172.125C195.438 172.625 195.077 173.25 194.5 173.25Z" stroke="#0D79D0"/>
<path d="M105.5 68.25C104.923 68.25 104.562 67.625 104.85 67.125C105.139 66.625 105.861 66.625 106.15 67.125C106.438 67.625 106.077 68.25 105.5 68.25Z" stroke="#0D79D0"/>
<path d="M209.5 68.25C208.923 68.25 208.562 67.625 208.85 67.125C209.139 66.625 209.861 66.625 210.15 67.125C210.438 67.625 210.077 68.25 209.5 68.25Z" stroke="#0D79D0"/>
<path d="M105.5 171.25C104.923 171.25 104.562 170.625 104.85 170.125C105.139 169.625 105.861 169.625 106.15 170.125C106.438 170.625 106.077 171.25 105.5 171.25Z" stroke="#0D79D0"/>
<path d="M209.5 173.25C208.923 173.25 208.562 172.625 208.85 172.125C209.139 171.625 209.861 171.625 210.15 172.125C210.438 172.625 210.077 173.25 209.5 173.25Z" stroke="#0D79D0"/>
<path d="M120.5 68.25C119.923 68.25 119.562 67.625 119.85 67.125C120.139 66.625 120.861 66.625 121.15 67.125C121.438 67.625 121.077 68.25 120.5 68.25Z" stroke="#0D79D0"/>
<path d="M120.5 171.25C119.923 171.25 119.562 170.625 119.85 170.125C120.139 169.625 120.861 169.625 121.15 170.125C121.438 170.625 121.077 171.25 120.5 171.25Z" stroke="#0D79D0"/>
<path d="M224.5 173.25C223.923 173.25 223.562 172.625 223.85 172.125C224.139 171.625 224.861 171.625 225.15 172.125C225.438 172.625 225.077 173.25 224.5 173.25Z" stroke="#0D79D0"/>
<path d="M135.5 68.25C134.923 68.25 134.562 67.625 134.85 67.125C135.139 66.625 135.861 66.625 136.15 67.125C136.438 67.625 136.077 68.25 135.5 68.25Z" stroke="#0D79D0"/>
<path d="M135.5 171.25C134.923 171.25 134.562 170.625 134.85 170.125C135.139 169.625 135.861 169.625 136.15 170.125C136.438 170.625 136.077 171.25 135.5 171.25Z" stroke="#0D79D0"/>
<path d="M150.5 68.25C149.923 68.25 149.562 67.625 149.85 67.125C150.139 66.625 150.861 66.625 151.15 67.125C151.438 67.625 151.077 68.25 150.5 68.25Z" stroke="#0D79D0"/>
<path d="M150.5 171.25C149.923 171.25 149.562 170.625 149.85 170.125C150.139 169.625 150.861 169.625 151.15 170.125C151.438 170.625 151.077 171.25 150.5 171.25Z" stroke="#0D79D0"/>
<path d="M165.5 68.25C164.923 68.25 164.562 67.625 164.85 67.125C165.139 66.625 165.861 66.625 166.15 67.125C166.438 67.625 166.077 68.25 165.5 68.25Z" stroke="#0D79D0"/>
<path d="M165.5 171.25C164.923 171.25 164.562 170.625 164.85 170.125C165.139 169.625 165.861 169.625 166.15 170.125C166.438 170.625 166.077 171.25 165.5 171.25Z" stroke="#0D79D0"/>
</svg>
